%TF.GenerationSoftware,KiCad,Pcbnew,8.0.2-8.0.2-0~ubuntu22.04.1*%
%TF.CreationDate,2024-07-23T14:23:55-05:00*%
%TF.ProjectId,atslim-328,6174736c-696d-42d3-9332-382e6b696361,rev?*%
%TF.SameCoordinates,Original*%
%TF.FileFunction,Profile,NP*%
%FSLAX46Y46*%
G04 Gerber Fmt 4.6, Leading zero omitted, Abs format (unit mm)*
G04 Created by KiCad (PCBNEW 8.0.2-8.0.2-0~ubuntu22.04.1) date 2024-07-23 14:23:55*
%MOMM*%
%LPD*%
G01*
G04 APERTURE LIST*
%TA.AperFunction,Profile*%
%ADD10C,0.200000*%
%TD*%
%TA.AperFunction,Profile*%
%ADD11C,0.100000*%
%TD*%
%TA.AperFunction,Profile*%
%ADD12C,0.050000*%
%TD*%
%TA.AperFunction,Profile*%
%ADD13C,0.010000*%
%TD*%
G04 APERTURE END LIST*
D10*
X76890000Y-95720000D02*
X73551449Y-95720018D01*
X137330000Y-98970000D02*
G75*
G02*
X134330000Y-101970000I-3000000J0D01*
G01*
D11*
X85550000Y-73610000D02*
X81730000Y-73610000D01*
D10*
X137330000Y-98970000D02*
X137330000Y-74970000D01*
X73539027Y-78223553D02*
G75*
G02*
X72329949Y-77002104I5973J1215053D01*
G01*
D11*
X85550000Y-72380000D02*
G75*
G02*
X85955000Y-71975000I405000J0D01*
G01*
X81730000Y-73610000D02*
X81730000Y-72380000D01*
D12*
X119030000Y-72375000D02*
G75*
G02*
X119435000Y-71970000I405000J0D01*
G01*
D10*
X75330000Y-101970000D02*
X134330000Y-101970000D01*
D12*
X109385000Y-71970000D02*
G75*
G02*
X109790000Y-72375000I0J-405000D01*
G01*
D10*
X81325000Y-71975000D02*
X75330000Y-71970000D01*
D12*
X109790000Y-78165000D02*
X109790000Y-72375000D01*
D10*
X72330000Y-74970000D02*
G75*
G02*
X75330000Y-71970000I3000000J0D01*
G01*
X72330000Y-96929028D02*
G75*
G02*
X73551449Y-95720002I1215000J-5972D01*
G01*
X109385000Y-71970000D02*
X85955000Y-71975000D01*
D11*
X81325000Y-71975000D02*
G75*
G02*
X81730000Y-72380000I0J-405000D01*
G01*
D10*
X72330000Y-74970000D02*
X72330017Y-77002104D01*
D11*
X85550000Y-72380000D02*
X85550000Y-73610000D01*
D10*
X76890000Y-78223553D02*
X73539027Y-78223553D01*
X134330000Y-71970000D02*
X119435000Y-71970000D01*
D12*
X119030000Y-78165000D02*
X119030000Y-72375000D01*
D10*
X75330000Y-101970000D02*
G75*
G02*
X72330000Y-98970000I0J3000000D01*
G01*
X134330000Y-71970000D02*
G75*
G02*
X137330000Y-74970000I0J-3000000D01*
G01*
X72330000Y-96929028D02*
X72330000Y-98970000D01*
%TO.C,J5*%
X77395000Y-78725000D02*
X77395000Y-95225000D01*
X76895000Y-78225000D02*
G75*
G02*
X77395000Y-78725000I-1J-500001D01*
G01*
X77395000Y-95225000D02*
G75*
G02*
X76895000Y-95725000I-500000J0D01*
G01*
D13*
%TO.C,J4*%
X110590000Y-78115000D02*
X118230000Y-78115000D01*
X110140000Y-78515000D02*
G75*
G02*
X109790000Y-78165000I0J350000D01*
G01*
X110440000Y-78235000D02*
G75*
G02*
X110140000Y-78515000I-290000J10000D01*
G01*
X110440000Y-78235000D02*
G75*
G02*
X110590000Y-78115000I135000J-15000D01*
G01*
X118230000Y-78115000D02*
G75*
G02*
X118380000Y-78235000I15000J-135000D01*
G01*
X118680000Y-78515000D02*
G75*
G02*
X118380000Y-78235000I-10000J290000D01*
G01*
X119030000Y-78165000D02*
G75*
G02*
X118680000Y-78515000I-350001J1D01*
G01*
%TD*%
M02*
