%TF.GenerationSoftware,KiCad,Pcbnew,8.0.2-8.0.2-0~ubuntu22.04.1*%
%TF.CreationDate,2024-07-23T14:23:55-05:00*%
%TF.ProjectId,atslim-328,6174736c-696d-42d3-9332-382e6b696361,rev?*%
%TF.SameCoordinates,Original*%
%TF.FileFunction,Other,Comment*%
%FSLAX46Y46*%
G04 Gerber Fmt 4.6, Leading zero omitted, Abs format (unit mm)*
G04 Created by KiCad (PCBNEW 8.0.2-8.0.2-0~ubuntu22.04.1) date 2024-07-23 14:23:55*
%MOMM*%
%LPD*%
G01*
G04 APERTURE LIST*
%ADD10C,0.070000*%
G04 APERTURE END LIST*
D10*
X95431904Y-75511407D02*
X95431904Y-75111407D01*
X95660475Y-75511407D02*
X95489046Y-75282836D01*
X95660475Y-75111407D02*
X95431904Y-75339979D01*
X95831904Y-75301883D02*
X95965237Y-75301883D01*
X96022380Y-75511407D02*
X95831904Y-75511407D01*
X95831904Y-75511407D02*
X95831904Y-75111407D01*
X95831904Y-75111407D02*
X96022380Y-75111407D01*
X96193809Y-75301883D02*
X96327142Y-75301883D01*
X96384285Y-75511407D02*
X96193809Y-75511407D01*
X96193809Y-75511407D02*
X96193809Y-75111407D01*
X96193809Y-75111407D02*
X96384285Y-75111407D01*
X96555714Y-75511407D02*
X96555714Y-75111407D01*
X96555714Y-75111407D02*
X96708095Y-75111407D01*
X96708095Y-75111407D02*
X96746190Y-75130455D01*
X96746190Y-75130455D02*
X96765237Y-75149502D01*
X96765237Y-75149502D02*
X96784285Y-75187598D01*
X96784285Y-75187598D02*
X96784285Y-75244740D01*
X96784285Y-75244740D02*
X96765237Y-75282836D01*
X96765237Y-75282836D02*
X96746190Y-75301883D01*
X96746190Y-75301883D02*
X96708095Y-75320931D01*
X96708095Y-75320931D02*
X96555714Y-75320931D01*
X97031904Y-75111407D02*
X97108095Y-75111407D01*
X97108095Y-75111407D02*
X97146190Y-75130455D01*
X97146190Y-75130455D02*
X97184285Y-75168550D01*
X97184285Y-75168550D02*
X97203333Y-75244740D01*
X97203333Y-75244740D02*
X97203333Y-75378074D01*
X97203333Y-75378074D02*
X97184285Y-75454264D01*
X97184285Y-75454264D02*
X97146190Y-75492360D01*
X97146190Y-75492360D02*
X97108095Y-75511407D01*
X97108095Y-75511407D02*
X97031904Y-75511407D01*
X97031904Y-75511407D02*
X96993809Y-75492360D01*
X96993809Y-75492360D02*
X96955714Y-75454264D01*
X96955714Y-75454264D02*
X96936666Y-75378074D01*
X96936666Y-75378074D02*
X96936666Y-75244740D01*
X96936666Y-75244740D02*
X96955714Y-75168550D01*
X96955714Y-75168550D02*
X96993809Y-75130455D01*
X96993809Y-75130455D02*
X97031904Y-75111407D01*
X97374762Y-75111407D02*
X97374762Y-75435217D01*
X97374762Y-75435217D02*
X97393809Y-75473312D01*
X97393809Y-75473312D02*
X97412857Y-75492360D01*
X97412857Y-75492360D02*
X97450952Y-75511407D01*
X97450952Y-75511407D02*
X97527143Y-75511407D01*
X97527143Y-75511407D02*
X97565238Y-75492360D01*
X97565238Y-75492360D02*
X97584285Y-75473312D01*
X97584285Y-75473312D02*
X97603333Y-75435217D01*
X97603333Y-75435217D02*
X97603333Y-75111407D01*
X97736667Y-75111407D02*
X97965238Y-75111407D01*
X97850952Y-75511407D02*
X97850952Y-75111407D01*
M02*
