M48
; DRILL file {KiCad 8.0.2-8.0.2-0~ubuntu22.04.1} date 2024-07-23T14:23:55-0500
; FORMAT={-:-/ absolute / inch / decimal}
; #@! TF.CreationDate,2024-07-23T14:23:55-05:00
; #@! TF.GenerationSoftware,Kicad,Pcbnew,8.0.2-8.0.2-0~ubuntu22.04.1
; #@! TF.FileFunction,Plated,1,2,PTH
FMAT,2
INCH
; #@! TA.AperFunction,Plated,PTH,ViaDrill
T1C0.0079
; #@! TA.AperFunction,Plated,PTH,ComponentDrill
T2C0.0079
; #@! TA.AperFunction,Plated,PTH,ViaDrill
T3C0.0118
; #@! TA.AperFunction,Plated,PTH,ComponentDrill
T4C0.0236
; #@! TA.AperFunction,Plated,PTH,ComponentDrill
T5C0.0315
; #@! TA.AperFunction,Plated,PTH,ComponentDrill
T6C0.0394
; #@! TA.AperFunction,Plated,PTH,ComponentDrill
T7C0.0413
%
G90
G05
T1
X4.4354Y-3.1291
X4.4748Y-3.1348
X4.5142Y-3.135
X4.5535Y-3.1297
T2
X4.4359Y-3.4445
X4.4637Y-3.4166
X4.4637Y-3.4723
X4.4915Y-3.3888
X4.4915Y-3.4445
X4.4915Y-3.5002
X4.5194Y-3.4166
X4.5194Y-3.4723
X4.5472Y-3.4445
T3
X3.2921Y-2.9778
X3.3866Y-3.7591
X3.3866Y-3.8118
X3.4276Y-3.7591
X3.4276Y-3.8112
X3.4906Y-2.89
X3.5472Y-3.2604
X3.5478Y-3.7033
X3.5795Y-3.5248
X3.5799Y-3.4314
X3.5839Y-3.1616
X3.6053Y-3.3811
X3.6789Y-2.9659
X3.7081Y-3.5252
X3.7581Y-3.6346
X3.7711Y-3.3325
X3.7728Y-3.161
X3.7825Y-3.1278
X3.7907Y-3.6346
X3.8264Y-3.4078
X3.836Y-3.2254
X3.8577Y-3.5063
X3.9026Y-3.189
X3.9108Y-3.7049
X3.9186Y-3.5094
X3.92Y-3.3151
X3.9453Y-3.5417
X3.974Y-3.5632
X4.0089Y-2.8783
X4.0147Y-3.0211
X4.0248Y-3.2094
X4.0953Y-3.6364
X4.1043Y-3.0203
X4.1632Y-3.1705
X4.1667Y-3.75
X4.1896Y-3.1293
X4.2138Y-3.2031
X4.222Y-3.4947
X4.2451Y-3.2004
X4.2496Y-3.3494
X4.2557Y-3.4945
X4.272Y-3.3258
X4.2726Y-3.2895
X4.2828Y-3.6647
X4.2872Y-3.4945
X4.2943Y-3.2183
X4.3233Y-3.5988
X4.3233Y-3.5654
X4.3268Y-3.5341
X4.3312Y-3.177
X4.34Y-3.3106
X4.3421Y-3.1138
X4.3481Y-3.2802
X4.3842Y-3.2855
X4.4628Y-3.7736
X4.4807Y-3.1679
X4.622Y-3.3783
X4.6438Y-3.401
X4.6734Y-3.1248
X4.6799Y-3.2028
X4.6917Y-3.7762
X4.7862Y-3.3469
X4.8744Y-3.3467
X4.897Y-3.186
X4.9069Y-3.5656
X4.9254Y-3.0039
X4.9345Y-3.5808
X4.9549Y-3.6048
X5.0108Y-3.464
X5.023Y-3.247
X5.0347Y-3.3628
X5.0738Y-3.5697
X5.123Y-3.251
X5.124Y-3.5715
X5.1606Y-3.2195
X5.1742Y-3.0439
X5.2604Y-3.3768
X5.2848Y-3.4437
X5.2996Y-3.5671
T4
X3.1061Y-3.2612
X3.1061Y-3.6439
X3.1967Y-3.2045
X3.1967Y-3.5872
T5
X3.3266Y-3.3242
X3.3266Y-3.4042
X3.3266Y-3.4842
X3.3266Y-3.5642
X3.4266Y-3.2842
X3.4266Y-3.3642
X3.4266Y-3.4442
X3.4266Y-3.5242
T6
X3.6311Y-3.8376
X3.6311Y-3.9376
X3.7311Y-3.8376
X3.7311Y-3.9376
X3.9419Y-3.838
X3.9419Y-3.938
X4.0419Y-3.838
X4.0419Y-3.938
X4.1419Y-3.838
X4.1419Y-3.938
X4.2419Y-3.838
X4.2419Y-3.938
X4.3419Y-3.838
X4.3419Y-3.938
X4.4419Y-3.838
X4.4419Y-3.938
X4.5419Y-3.838
X4.5419Y-3.938
X4.6419Y-3.838
X4.6419Y-3.938
X4.7419Y-3.838
X4.7419Y-3.938
X4.8419Y-3.838
X4.8419Y-3.938
X4.9419Y-3.838
X4.9419Y-3.938
T7
X3.2931Y-3.1075
X3.2931Y-3.7409
X3.5136Y-3.188
X3.5136Y-3.6604
T4
G00X4.2831Y-2.9199
M15
G01X4.2831Y-2.8726
M16
G05
G00X4.2831Y-3.0695
M15
G01X4.2831Y-3.038
M16
G05
G00X4.7256Y-2.9199
M15
G01X4.7256Y-2.8726
M16
G05
G00X4.7256Y-3.0695
M15
G01X4.7256Y-3.038
M16
G05
M30
