%TF.GenerationSoftware,KiCad,Pcbnew,8.0.2-8.0.2-0~ubuntu22.04.1*%
%TF.CreationDate,2024-07-23T14:23:55-05:00*%
%TF.ProjectId,atslim-328,6174736c-696d-42d3-9332-382e6b696361,rev?*%
%TF.SameCoordinates,Original*%
%TF.FileFunction,Paste,Bot*%
%TF.FilePolarity,Positive*%
%FSLAX46Y46*%
G04 Gerber Fmt 4.6, Leading zero omitted, Abs format (unit mm)*
G04 Created by KiCad (PCBNEW 8.0.2-8.0.2-0~ubuntu22.04.1) date 2024-07-23 14:23:55*
%MOMM*%
%LPD*%
G01*
G04 APERTURE LIST*
G04 Aperture macros list*
%AMRoundRect*
0 Rectangle with rounded corners*
0 $1 Rounding radius*
0 $2 $3 $4 $5 $6 $7 $8 $9 X,Y pos of 4 corners*
0 Add a 4 corners polygon primitive as box body*
4,1,4,$2,$3,$4,$5,$6,$7,$8,$9,$2,$3,0*
0 Add four circle primitives for the rounded corners*
1,1,$1+$1,$2,$3*
1,1,$1+$1,$4,$5*
1,1,$1+$1,$6,$7*
1,1,$1+$1,$8,$9*
0 Add four rect primitives between the rounded corners*
20,1,$1+$1,$2,$3,$4,$5,0*
20,1,$1+$1,$4,$5,$6,$7,0*
20,1,$1+$1,$6,$7,$8,$9,0*
20,1,$1+$1,$8,$9,$2,$3,0*%
G04 Aperture macros list end*
%ADD10RoundRect,0.160000X-0.160000X0.197500X-0.160000X-0.197500X0.160000X-0.197500X0.160000X0.197500X0*%
%ADD11RoundRect,0.160000X0.160000X-0.197500X0.160000X0.197500X-0.160000X0.197500X-0.160000X-0.197500X0*%
%ADD12RoundRect,0.155000X-0.040659X-0.259862X0.259862X0.040659X0.040659X0.259862X-0.259862X-0.040659X0*%
%ADD13RoundRect,0.155000X-0.155000X0.212500X-0.155000X-0.212500X0.155000X-0.212500X0.155000X0.212500X0*%
%ADD14RoundRect,0.155000X0.155000X-0.212500X0.155000X0.212500X-0.155000X0.212500X-0.155000X-0.212500X0*%
%ADD15R,1.500000X0.800000*%
%ADD16R,2.000000X1.450000*%
%ADD17RoundRect,0.160000X0.026517X0.252791X-0.252791X-0.026517X-0.026517X-0.252791X0.252791X0.026517X0*%
%ADD18RoundRect,0.250000X0.275000X0.700000X-0.275000X0.700000X-0.275000X-0.700000X0.275000X-0.700000X0*%
%ADD19RoundRect,0.155000X-0.212500X-0.155000X0.212500X-0.155000X0.212500X0.155000X-0.212500X0.155000X0*%
%ADD20RoundRect,0.160000X-0.252791X0.026517X0.026517X-0.252791X0.252791X-0.026517X-0.026517X0.252791X0*%
G04 APERTURE END LIST*
D10*
%TO.C,R15*%
X90895000Y-88187500D03*
X90895000Y-89382500D03*
%TD*%
D11*
%TO.C,R2*%
X108525000Y-83552500D03*
X108525000Y-82357500D03*
%TD*%
D12*
%TO.C,C8*%
X100813717Y-89336283D03*
X101616283Y-88533717D03*
%TD*%
D13*
%TO.C,C2*%
X109610000Y-82367500D03*
X109610000Y-83502500D03*
%TD*%
D14*
%TO.C,C15*%
X92120000Y-92247500D03*
X92120000Y-91112500D03*
%TD*%
D13*
%TO.C,C18*%
X94575000Y-93495000D03*
X94575000Y-94630000D03*
%TD*%
D11*
%TO.C,R7*%
X112665000Y-81427500D03*
X112665000Y-80232500D03*
%TD*%
D12*
%TO.C,C9*%
X100082434Y-88587566D03*
X100885000Y-87785000D03*
%TD*%
D15*
%TO.C,J3*%
X132625000Y-90170000D03*
X132625000Y-89070000D03*
X132625000Y-87970000D03*
X132625000Y-86870000D03*
X132625000Y-85770000D03*
X132625000Y-84670000D03*
X132625000Y-83570000D03*
X132625000Y-82470000D03*
D16*
X126925000Y-93845000D03*
X135225000Y-93845000D03*
X126925000Y-80095000D03*
X135225000Y-80095000D03*
%TD*%
D17*
%TO.C,R13*%
X102391213Y-89263787D03*
X101546221Y-90108779D03*
%TD*%
D11*
%TO.C,R8*%
X115665000Y-81422500D03*
X115665000Y-80227500D03*
%TD*%
D14*
%TO.C,C14*%
X93290000Y-92247500D03*
X93290000Y-91112500D03*
%TD*%
D18*
%TO.C,FB1*%
X99335000Y-93995000D03*
X96185000Y-93995000D03*
%TD*%
D13*
%TO.C,C19*%
X91005000Y-93505000D03*
X91005000Y-94640000D03*
%TD*%
D19*
%TO.C,C11*%
X88652500Y-88440000D03*
X89787500Y-88440000D03*
%TD*%
D17*
%TO.C,R17*%
X98367496Y-86307504D03*
X97522504Y-87152496D03*
%TD*%
D13*
%TO.C,C17*%
X93375000Y-93485000D03*
X93375000Y-94620000D03*
%TD*%
%TO.C,C3*%
X118860000Y-81342500D03*
X118860000Y-82477500D03*
%TD*%
%TO.C,C16*%
X92175000Y-93505000D03*
X92175000Y-94640000D03*
%TD*%
D14*
%TO.C,C13*%
X94450000Y-92247500D03*
X94450000Y-91112500D03*
%TD*%
D20*
%TO.C,R18*%
X96592504Y-81052504D03*
X97437496Y-81897496D03*
%TD*%
D19*
%TO.C,C12*%
X88647500Y-86425000D03*
X89782500Y-86425000D03*
%TD*%
M02*
