%TF.GenerationSoftware,KiCad,Pcbnew,8.0.2-8.0.2-0~ubuntu22.04.1*%
%TF.CreationDate,2024-07-23T14:23:55-05:00*%
%TF.ProjectId,atslim-328,6174736c-696d-42d3-9332-382e6b696361,rev?*%
%TF.SameCoordinates,Original*%
%TF.FileFunction,Copper,L2,Bot*%
%TF.FilePolarity,Positive*%
%FSLAX46Y46*%
G04 Gerber Fmt 4.6, Leading zero omitted, Abs format (unit mm)*
G04 Created by KiCad (PCBNEW 8.0.2-8.0.2-0~ubuntu22.04.1) date 2024-07-23 14:23:55*
%MOMM*%
%LPD*%
G01*
G04 APERTURE LIST*
G04 Aperture macros list*
%AMRoundRect*
0 Rectangle with rounded corners*
0 $1 Rounding radius*
0 $2 $3 $4 $5 $6 $7 $8 $9 X,Y pos of 4 corners*
0 Add a 4 corners polygon primitive as box body*
4,1,4,$2,$3,$4,$5,$6,$7,$8,$9,$2,$3,0*
0 Add four circle primitives for the rounded corners*
1,1,$1+$1,$2,$3*
1,1,$1+$1,$4,$5*
1,1,$1+$1,$6,$7*
1,1,$1+$1,$8,$9*
0 Add four rect primitives between the rounded corners*
20,1,$1+$1,$2,$3,$4,$5,0*
20,1,$1+$1,$4,$5,$6,$7,0*
20,1,$1+$1,$6,$7,$8,$9,0*
20,1,$1+$1,$8,$9,$2,$3,0*%
%AMRotRect*
0 Rectangle, with rotation*
0 The origin of the aperture is its center*
0 $1 length*
0 $2 width*
0 $3 Rotation angle, in degrees counterclockwise*
0 Add horizontal line*
21,1,$1,$2,0,0,$3*%
G04 Aperture macros list end*
%TA.AperFunction,ComponentPad*%
%ADD10R,1.700000X1.700000*%
%TD*%
%TA.AperFunction,ComponentPad*%
%ADD11O,1.700000X1.700000*%
%TD*%
%TA.AperFunction,ComponentPad*%
%ADD12R,1.300000X1.300000*%
%TD*%
%TA.AperFunction,ComponentPad*%
%ADD13C,1.300000*%
%TD*%
%TA.AperFunction,ComponentPad*%
%ADD14C,1.100000*%
%TD*%
%TA.AperFunction,ComponentPad*%
%ADD15C,1.550000*%
%TD*%
%TA.AperFunction,HeatsinkPad*%
%ADD16C,0.500000*%
%TD*%
%TA.AperFunction,HeatsinkPad*%
%ADD17RotRect,2.500000X2.500000X45.000000*%
%TD*%
%TA.AperFunction,ComponentPad*%
%ADD18O,1.000000X2.200000*%
%TD*%
%TA.AperFunction,ComponentPad*%
%ADD19O,1.000000X1.800000*%
%TD*%
%TA.AperFunction,SMDPad,CuDef*%
%ADD20RoundRect,0.160000X-0.160000X0.197500X-0.160000X-0.197500X0.160000X-0.197500X0.160000X0.197500X0*%
%TD*%
%TA.AperFunction,SMDPad,CuDef*%
%ADD21RoundRect,0.160000X0.160000X-0.197500X0.160000X0.197500X-0.160000X0.197500X-0.160000X-0.197500X0*%
%TD*%
%TA.AperFunction,SMDPad,CuDef*%
%ADD22RoundRect,0.155000X-0.040659X-0.259862X0.259862X0.040659X0.040659X0.259862X-0.259862X-0.040659X0*%
%TD*%
%TA.AperFunction,SMDPad,CuDef*%
%ADD23RoundRect,0.155000X-0.155000X0.212500X-0.155000X-0.212500X0.155000X-0.212500X0.155000X0.212500X0*%
%TD*%
%TA.AperFunction,SMDPad,CuDef*%
%ADD24RoundRect,0.155000X0.155000X-0.212500X0.155000X0.212500X-0.155000X0.212500X-0.155000X-0.212500X0*%
%TD*%
%TA.AperFunction,SMDPad,CuDef*%
%ADD25R,1.500000X0.800000*%
%TD*%
%TA.AperFunction,SMDPad,CuDef*%
%ADD26R,2.000000X1.450000*%
%TD*%
%TA.AperFunction,SMDPad,CuDef*%
%ADD27RoundRect,0.160000X0.026517X0.252791X-0.252791X-0.026517X-0.026517X-0.252791X0.252791X0.026517X0*%
%TD*%
%TA.AperFunction,SMDPad,CuDef*%
%ADD28RoundRect,0.250000X0.275000X0.700000X-0.275000X0.700000X-0.275000X-0.700000X0.275000X-0.700000X0*%
%TD*%
%TA.AperFunction,SMDPad,CuDef*%
%ADD29RoundRect,0.155000X-0.212500X-0.155000X0.212500X-0.155000X0.212500X0.155000X-0.212500X0.155000X0*%
%TD*%
%TA.AperFunction,SMDPad,CuDef*%
%ADD30RoundRect,0.160000X-0.252791X0.026517X0.026517X-0.252791X0.252791X-0.026517X-0.026517X0.252791X0*%
%TD*%
%TA.AperFunction,ViaPad*%
%ADD31C,0.600000*%
%TD*%
%TA.AperFunction,ViaPad*%
%ADD32C,0.400000*%
%TD*%
%TA.AperFunction,Conductor*%
%ADD33C,0.200000*%
%TD*%
%TA.AperFunction,Conductor*%
%ADD34C,0.400000*%
%TD*%
%TA.AperFunction,Conductor*%
%ADD35C,0.300000*%
%TD*%
%TA.AperFunction,Conductor*%
%ADD36C,0.450000*%
%TD*%
G04 APERTURE END LIST*
D10*
%TO.P,J7,1,Pin_1*%
%TO.N,GND*%
X94770000Y-97475000D03*
D11*
%TO.P,J7,2,Pin_2*%
X94770000Y-100015000D03*
%TO.P,J7,3,Pin_3*%
%TO.N,TR0_TAP*%
X92230000Y-97475000D03*
%TO.P,J7,4,Pin_4*%
%TO.N,TR1_TAP*%
X92230000Y-100015000D03*
%TD*%
D12*
%TO.P,J5,1,TD+*%
%TO.N,/ethernet/TX+*%
X87035000Y-83419000D03*
D13*
%TO.P,J5,2,TCT*%
%TO.N,Net-(J5-TCT)*%
X84495000Y-84435000D03*
%TO.P,J5,3,TD-*%
%TO.N,/ethernet/TX-*%
X87035000Y-85451000D03*
%TO.P,J5,4,RD+*%
%TO.N,Net-(J5-RD+)*%
X84495000Y-86467000D03*
%TO.P,J5,5,RCT*%
%TO.N,Net-(J5-RCT)*%
X87035000Y-87483000D03*
%TO.P,J5,6,RD-*%
%TO.N,Net-(J5-RD-)*%
X84495000Y-88499000D03*
%TO.P,J5,7,V+*%
%TO.N,TR0_TAP*%
X87035000Y-89515000D03*
%TO.P,J5,8,V-*%
%TO.N,TR1_TAP*%
X84495000Y-90531000D03*
D14*
%TO.P,J5,9,LED1_VIN*%
%TO.N,+3V3*%
X81195000Y-91115000D03*
%TO.P,J5,10,LED1_DAT*%
%TO.N,Net-(J5-LED1_DAT)*%
X78895000Y-92555000D03*
%TO.P,J5,11,LED2_VIN*%
%TO.N,+3V3*%
X81195000Y-81395000D03*
%TO.P,J5,12,LED2_DAT*%
%TO.N,Net-(J5-LED2_DAT)*%
X78895000Y-82835000D03*
D15*
%TO.P,J5,SH1*%
%TO.N,N/C*%
X89245000Y-80975000D03*
%TO.P,J5,SH2*%
X89245000Y-92975000D03*
%TO.P,J5,SH3*%
X83645000Y-95020000D03*
%TO.P,J5,SH4*%
X83645000Y-78930000D03*
%TD*%
D16*
%TO.P,U1,33,GND*%
%TO.N,GND*%
X112670901Y-87490000D03*
X113378008Y-88197107D03*
X114085115Y-88904214D03*
X113378008Y-86782893D03*
X114085115Y-87490000D03*
D17*
X114085115Y-87490000D03*
D16*
X114792222Y-88197107D03*
X114085115Y-86075786D03*
X114792222Y-86782893D03*
X115499329Y-87490000D03*
%TD*%
D10*
%TO.P,J6,1,Pin_1*%
%TO.N,GND*%
X100125000Y-100025000D03*
D11*
%TO.P,J6,2,Pin_2*%
%TO.N,+3V3*%
X100125000Y-97485000D03*
%TO.P,J6,3,Pin_3*%
%TO.N,/Serial_TX*%
X102665000Y-100025000D03*
%TO.P,J6,4,Pin_4*%
%TO.N,/AN7*%
X102665000Y-97485000D03*
%TO.P,J6,5,Pin_5*%
%TO.N,/Serial_RX*%
X105205000Y-100025000D03*
%TO.P,J6,6,Pin_6*%
%TO.N,/DIGC2{slash}SDA*%
X105205000Y-97485000D03*
%TO.P,J6,7,Pin_7*%
%TO.N,/DIGD1*%
X107745000Y-100025000D03*
%TO.P,J6,8,Pin_8*%
%TO.N,/DIGC3{slash}SCL*%
X107745000Y-97485000D03*
%TO.P,J6,9,Pin_9*%
%TO.N,/DIGD2*%
X110285000Y-100025000D03*
%TO.P,J6,10,Pin_10*%
%TO.N,/DIGD0*%
X110285000Y-97485000D03*
%TO.P,J6,11,Pin_11*%
%TO.N,/DIGD4*%
X112825000Y-100025000D03*
%TO.P,J6,12,Pin_12*%
%TO.N,/DIGD3*%
X112825000Y-97485000D03*
%TO.P,J6,13,Pin_13*%
%TO.N,/DIGD6*%
X115365000Y-100025000D03*
%TO.P,J6,14,Pin_14*%
%TO.N,/DIGD5*%
X115365000Y-97485000D03*
%TO.P,J6,15,Pin_15*%
%TO.N,/DIGF1*%
X117905000Y-100025000D03*
%TO.P,J6,16,Pin_16*%
%TO.N,/DIGF0*%
X117905000Y-97485000D03*
%TO.P,J6,17,Pin_17*%
%TO.N,/DIGF2*%
X120445000Y-100025000D03*
%TO.P,J6,18,Pin_18*%
%TO.N,/DIGF3*%
X120445000Y-97485000D03*
%TO.P,J6,19,Pin_19*%
%TO.N,/DIGF4*%
X122985000Y-100025000D03*
%TO.P,J6,20,Pin_20*%
%TO.N,/DIGF5*%
X122985000Y-97485000D03*
%TO.P,J6,21,Pin_21*%
%TO.N,+5V*%
X125525000Y-100025000D03*
%TO.P,J6,22,Pin_22*%
%TO.N,GND*%
X125525000Y-97485000D03*
%TD*%
D18*
%TO.P,J4,SH1,SHELL_GND*%
%TO.N,GND*%
X120030000Y-73565000D03*
D19*
%TO.P,J4,SH2,SHELL_GND__1*%
X108790000Y-77565000D03*
%TO.P,J4,SH3,SHELL_GND__2*%
X120030000Y-77565000D03*
D18*
%TO.P,J4,SH4,SHELL_GND__3*%
X108790000Y-73565000D03*
%TD*%
D20*
%TO.P,R15,1*%
%TO.N,/ethernet/RX-*%
X90895000Y-88187500D03*
%TO.P,R15,2*%
%TO.N,Net-(J5-RCT)*%
X90895000Y-89382500D03*
%TD*%
D21*
%TO.P,R2,1*%
%TO.N,RESET*%
X108525000Y-83552500D03*
%TO.P,R2,2*%
%TO.N,+5V*%
X108525000Y-82357500D03*
%TD*%
D22*
%TO.P,C8,1*%
%TO.N,Net-(U3-1V2O)*%
X100813717Y-89336283D03*
%TO.P,C8,2*%
%TO.N,GND*%
X101616283Y-88533717D03*
%TD*%
D23*
%TO.P,C2,1*%
%TO.N,+5V*%
X109610000Y-82367500D03*
%TO.P,C2,2*%
%TO.N,Net-(U1-VDD)*%
X109610000Y-83502500D03*
%TD*%
D24*
%TO.P,C15,1*%
%TO.N,AVDD*%
X92120000Y-92247500D03*
%TO.P,C15,2*%
%TO.N,GND*%
X92120000Y-91112500D03*
%TD*%
D23*
%TO.P,C18,1*%
%TO.N,AVDD*%
X94575000Y-93495000D03*
%TO.P,C18,2*%
%TO.N,GND*%
X94575000Y-94630000D03*
%TD*%
D21*
%TO.P,R7,1*%
%TO.N,GND*%
X112665000Y-81427500D03*
%TO.P,R7,2*%
%TO.N,Net-(J4-CC2)*%
X112665000Y-80232500D03*
%TD*%
D22*
%TO.P,C9,1*%
%TO.N,Net-(U3-TOCAP)*%
X100082434Y-88587566D03*
%TO.P,C9,2*%
%TO.N,GND*%
X100885000Y-87785000D03*
%TD*%
D25*
%TO.P,J3,1,DAT2*%
%TO.N,unconnected-(J3-DAT2-Pad1)*%
X132625000Y-90170000D03*
%TO.P,J3,2,DAT3/CD*%
%TO.N,CS_LLS*%
X132625000Y-89070000D03*
%TO.P,J3,3,CMD*%
%TO.N,DI_LLS*%
X132625000Y-87970000D03*
%TO.P,J3,4,VDD*%
%TO.N,+3V3*%
X132625000Y-86870000D03*
%TO.P,J3,5,CLK*%
%TO.N,SCK_LLS*%
X132625000Y-85770000D03*
%TO.P,J3,6,VSS*%
%TO.N,GND*%
X132625000Y-84670000D03*
%TO.P,J3,7,DAT0*%
%TO.N,DO_LLS*%
X132625000Y-83570000D03*
%TO.P,J3,8,DAT1*%
%TO.N,unconnected-(J3-DAT1-Pad8)*%
X132625000Y-82470000D03*
D26*
%TO.P,J3,9,DET*%
%TO.N,unconnected-(J3-DET-Pad9)_1*%
X126925000Y-93845000D03*
%TO.N,unconnected-(J3-DET-Pad9)*%
X135225000Y-93845000D03*
%TO.N,unconnected-(J3-DET-Pad9)_2*%
X126925000Y-80095000D03*
%TO.N,unconnected-(J3-DET-Pad9)_0*%
X135225000Y-80095000D03*
%TD*%
D27*
%TO.P,R13,1*%
%TO.N,GND*%
X102391213Y-89263787D03*
%TO.P,R13,2*%
%TO.N,Net-(R13-Pad2)*%
X101546221Y-90108779D03*
%TD*%
D21*
%TO.P,R8,1*%
%TO.N,GND*%
X115665000Y-81422500D03*
%TO.P,R8,2*%
%TO.N,Net-(J4-CC1)*%
X115665000Y-80227500D03*
%TD*%
D24*
%TO.P,C14,1*%
%TO.N,AVDD*%
X93290000Y-92247500D03*
%TO.P,C14,2*%
%TO.N,GND*%
X93290000Y-91112500D03*
%TD*%
D28*
%TO.P,FB1,1*%
%TO.N,+3V3*%
X99335000Y-93995000D03*
%TO.P,FB1,2*%
%TO.N,AVDD*%
X96185000Y-93995000D03*
%TD*%
D23*
%TO.P,C19,1*%
%TO.N,AVDD*%
X91005000Y-93505000D03*
%TO.P,C19,2*%
%TO.N,GND*%
X91005000Y-94640000D03*
%TD*%
D29*
%TO.P,C11,1*%
%TO.N,Net-(J5-RD-)*%
X88652500Y-88440000D03*
%TO.P,C11,2*%
%TO.N,/ethernet/RX-*%
X89787500Y-88440000D03*
%TD*%
D27*
%TO.P,R17,1*%
%TO.N,GND*%
X98367496Y-86307504D03*
%TO.P,R17,2*%
%TO.N,Net-(U3-EXRES1)*%
X97522504Y-87152496D03*
%TD*%
D23*
%TO.P,C17,1*%
%TO.N,AVDD*%
X93375000Y-93485000D03*
%TO.P,C17,2*%
%TO.N,GND*%
X93375000Y-94620000D03*
%TD*%
%TO.P,C3,1*%
%TO.N,+5V*%
X118860000Y-81342500D03*
%TO.P,C3,2*%
%TO.N,Net-(U1-AVDD)*%
X118860000Y-82477500D03*
%TD*%
%TO.P,C16,1*%
%TO.N,AVDD*%
X92175000Y-93505000D03*
%TO.P,C16,2*%
%TO.N,GND*%
X92175000Y-94640000D03*
%TD*%
D24*
%TO.P,C13,1*%
%TO.N,AVDD*%
X94450000Y-92247500D03*
%TO.P,C13,2*%
%TO.N,GND*%
X94450000Y-91112500D03*
%TD*%
D30*
%TO.P,R18,1*%
%TO.N,+3V3*%
X96592504Y-81052504D03*
%TO.P,R18,2*%
%TO.N,/ethernet/TX+*%
X97437496Y-81897496D03*
%TD*%
D29*
%TO.P,C12,1*%
%TO.N,Net-(J5-RD+)*%
X88647500Y-86425000D03*
%TO.P,C12,2*%
%TO.N,/ethernet/RX+*%
X89782500Y-86425000D03*
%TD*%
D31*
%TO.N,+3V3*%
X123810000Y-85005000D03*
X121570000Y-85010000D03*
%TO.N,+5V*%
X118870000Y-81350000D03*
%TO.N,SPI_MOSI*%
X109812427Y-91409134D03*
%TO.N,SPI_SCK*%
X109900463Y-89765463D03*
%TO.N,SPI_MISO*%
X109812428Y-90560605D03*
%TO.N,SPI_SCK*%
X108895003Y-88760000D03*
%TO.N,SPI_MISO*%
X108095000Y-88760000D03*
%TO.N,SPI_MOSI*%
X107240000Y-88765000D03*
%TO.N,TR1_TAP*%
X86020000Y-96820000D03*
%TO.N,TR0_TAP*%
X87060000Y-96805000D03*
%TO.N,TR1_TAP*%
X86020000Y-95480000D03*
%TO.N,TR0_TAP*%
X87060000Y-95480000D03*
%TO.N,SPI_SCK*%
X124635419Y-90566409D03*
%TO.N,SPI_MOSI*%
X125853433Y-91562223D03*
%TO.N,SPI_MISO*%
X125336594Y-90951582D03*
%TO.N,GND*%
X91030000Y-80305000D03*
%TO.N,Net-(J5-LED1_DAT)*%
X90115000Y-94065000D03*
%TO.N,Net-(J5-RCT)*%
X90920000Y-89530000D03*
%TO.N,GND*%
X118705000Y-79370000D03*
X125105000Y-76300000D03*
X130125000Y-82575000D03*
X130150000Y-90715000D03*
X131425000Y-77315000D03*
X88660000Y-73405000D03*
X93445000Y-75335000D03*
X94185000Y-89540000D03*
X134610000Y-90605000D03*
X110290000Y-79090000D03*
X101825000Y-73110000D03*
X127585000Y-82475000D03*
X95785000Y-84645000D03*
X108782580Y-93082691D03*
X83620000Y-75635000D03*
X127274500Y-87985000D03*
X102230000Y-81520000D03*
X104020000Y-92365000D03*
X113810000Y-80465000D03*
X99567703Y-84203093D03*
X97985000Y-89060000D03*
%TO.N,+5V*%
X109075000Y-81745000D03*
X104250000Y-76715000D03*
X101973235Y-76736765D03*
%TO.N,+3V3*%
X99335000Y-94105000D03*
X127880735Y-85415735D03*
X95830000Y-80290000D03*
%TO.N,CS_LLS*%
X134235000Y-87470000D03*
%TO.N,SCK_LLS*%
X133615000Y-85770000D03*
%TO.N,DI_LLS*%
X128875000Y-90670000D03*
%TO.N,DO_LLS*%
X131080000Y-81775000D03*
%TO.N,RESET*%
X107029265Y-81360000D03*
X108525000Y-83552500D03*
%TO.N,/Serial_TX*%
X105834265Y-95250000D03*
%TO.N,Net-(J2-COM_2)*%
X110011765Y-80695000D03*
X111359265Y-83450735D03*
%TO.N,Net-(U3-1V2O)*%
X100210000Y-89960000D03*
%TO.N,Net-(U3-TOCAP)*%
X99532500Y-89137500D03*
%TO.N,/ethernet/RX-*%
X91575735Y-85880735D03*
%TO.N,/ethernet/RX+*%
X90930000Y-87157500D03*
%TO.N,AVDD*%
X96285000Y-92320000D03*
X95455000Y-92320000D03*
%TO.N,/ethernet/LINK_LED*%
X96075000Y-79445000D03*
X99125000Y-81000000D03*
%TO.N,Net-(U3-EXRES1)*%
X97190406Y-86558147D03*
%TO.N,/ethernet/TX+*%
X97435000Y-81925000D03*
%TO.N,/ethernet/TX-*%
X90100000Y-82815000D03*
D32*
%TO.N,Net-(J4-DP1)*%
X113660000Y-79625000D03*
X114660000Y-79630000D03*
%TO.N,Net-(J4-CC2)*%
X112660000Y-79480000D03*
D31*
%TO.N,SPI_CS*%
X124385000Y-80925000D03*
X117952872Y-86384761D03*
D32*
%TO.N,Net-(J4-CC1)*%
X115660000Y-79495000D03*
D31*
%TO.N,Net-(R13-Pad2)*%
X100940443Y-90505443D03*
%TO.N,/DIGF2*%
X119170000Y-95915000D03*
%TO.N,/DIGD2*%
X113355000Y-95850000D03*
%TO.N,Net-(U1-VDD)*%
X110235000Y-84090000D03*
%TO.N,Net-(U1-AVDD)*%
X117398235Y-85808235D03*
%TO.N,Prog_RX*%
X105745001Y-80530785D03*
X107940000Y-85075000D03*
%TO.N,/UPDI*%
X107826218Y-81290253D03*
X110442176Y-83317289D03*
%TO.N,Prog_TX*%
X106416765Y-79483235D03*
X108510000Y-84475000D03*
%TD*%
D33*
%TO.N,SPI_CS*%
X119530000Y-82215000D02*
X119530000Y-84312866D01*
X124581372Y-80925000D02*
X124385000Y-80925000D01*
X124385000Y-80925000D02*
X120820000Y-80925000D01*
X120820000Y-80925000D02*
X119530000Y-82215000D01*
X119530000Y-84312866D02*
X117998235Y-85844631D01*
X117998235Y-85844631D02*
X117998235Y-86339398D01*
X117998235Y-86339398D02*
X117952872Y-86384761D01*
%TO.N,SPI_MOSI*%
X125853433Y-91562223D02*
X125660656Y-91755000D01*
X125660656Y-91755000D02*
X110158293Y-91755000D01*
X110158293Y-91755000D02*
X109812427Y-91409134D01*
%TO.N,SPI_MISO*%
X125336594Y-90951582D02*
X124933176Y-91355000D01*
X110606823Y-91355000D02*
X109812428Y-90560605D01*
X124933176Y-91355000D02*
X110606823Y-91355000D01*
D34*
%TO.N,+3V3*%
X121570000Y-85010000D02*
X123730000Y-85010000D01*
D35*
%TO.N,Net-(U1-AVDD)*%
X118860000Y-84346470D02*
X118860000Y-82477500D01*
X117398235Y-85808235D02*
X118860000Y-84346470D01*
D33*
%TO.N,/UPDI*%
X107826218Y-81290253D02*
X107971471Y-81145000D01*
X107971471Y-81145000D02*
X109560000Y-81145000D01*
X109560000Y-81145000D02*
X110305000Y-81890000D01*
X110305000Y-83180113D02*
X110442176Y-83317289D01*
X110305000Y-81890000D02*
X110305000Y-83180113D01*
D34*
%TO.N,+5V*%
X101995000Y-76715000D02*
X104250000Y-76715000D01*
X101973235Y-76736765D02*
X101995000Y-76715000D01*
D33*
%TO.N,Prog_TX*%
X106416765Y-79483235D02*
X106429265Y-79495735D01*
X106429265Y-79495735D02*
X106429265Y-82469237D01*
X106429265Y-82469237D02*
X108435028Y-84475000D01*
X108435028Y-84475000D02*
X108510000Y-84475000D01*
%TO.N,Prog_RX*%
X105745001Y-80530785D02*
X105745001Y-82550001D01*
X105745001Y-82550001D02*
X107940000Y-84745000D01*
X107940000Y-84745000D02*
X107940000Y-85075000D01*
%TO.N,CS_LLS*%
X134235000Y-87470000D02*
X134235000Y-88110000D01*
X134235000Y-88110000D02*
X133275000Y-89070000D01*
X133275000Y-89070000D02*
X132625000Y-89070000D01*
%TO.N,Net-(J5-LED1_DAT)*%
X78895000Y-92555000D02*
X79860000Y-93520000D01*
X79860000Y-93520000D02*
X83665280Y-93520000D01*
X83665280Y-93520000D02*
X84210280Y-94065000D01*
X84210280Y-94065000D02*
X90115000Y-94065000D01*
D34*
%TO.N,+3V3*%
X129335000Y-86870000D02*
X132625000Y-86870000D01*
X127880735Y-85415735D02*
X129335000Y-86870000D01*
D33*
%TO.N,SPI_SCK*%
X111090000Y-90955000D02*
X109900463Y-89765463D01*
X124635419Y-90566409D02*
X124246828Y-90955000D01*
X124246828Y-90955000D02*
X111090000Y-90955000D01*
X124635419Y-90566409D02*
X124640000Y-90561828D01*
%TO.N,SPI_MOSI*%
X107240000Y-88836707D02*
X107240000Y-88765000D01*
X109812427Y-91409134D02*
X107240000Y-88836707D01*
%TO.N,SPI_MISO*%
X109812428Y-90560605D02*
X108095000Y-88843177D01*
X108095000Y-88843177D02*
X108095000Y-88760000D01*
%TO.N,SPI_SCK*%
X109900463Y-89765463D02*
X108895003Y-88760003D01*
X108895003Y-88760003D02*
X108895003Y-88760000D01*
D36*
%TO.N,TR0_TAP*%
X87060000Y-96805000D02*
X87060000Y-95480000D01*
X87060000Y-96805000D02*
X87060000Y-96895000D01*
%TO.N,TR1_TAP*%
X86020000Y-96820000D02*
X86020000Y-95480000D01*
X86020000Y-96820000D02*
X86020000Y-96865000D01*
X86020000Y-96865000D02*
X86025000Y-96870000D01*
D33*
%TO.N,/ethernet/LINK_LED*%
X97570000Y-79445000D02*
X99125000Y-81000000D01*
X96075000Y-79445000D02*
X97570000Y-79445000D01*
%TO.N,Net-(U3-1V2O)*%
X100210000Y-89960000D02*
X100210000Y-89940000D01*
X100210000Y-89940000D02*
X100813717Y-89336283D01*
%TO.N,Net-(R13-Pad2)*%
X100940443Y-90505443D02*
X101149557Y-90505443D01*
X101149557Y-90505443D02*
X101546221Y-90108779D01*
%TO.N,Net-(U3-TOCAP)*%
X99532500Y-89137500D02*
X100082434Y-88587566D01*
%TO.N,DO_LLS*%
X132625000Y-83570000D02*
X131960000Y-83570000D01*
X131515000Y-83125000D02*
X131515000Y-82210000D01*
X131515000Y-82210000D02*
X131080000Y-81775000D01*
X131960000Y-83570000D02*
X131515000Y-83125000D01*
%TO.N,/ethernet/RX-*%
X90930000Y-88440000D02*
X89787500Y-88440000D01*
X91575735Y-87794265D02*
X90930000Y-88440000D01*
X91575735Y-85880735D02*
X91575735Y-87794265D01*
%TO.N,/ethernet/RX+*%
X90930000Y-87157500D02*
X90197500Y-86425000D01*
X90197500Y-86425000D02*
X89782500Y-86425000D01*
%TO.N,Net-(J5-RD-)*%
X84495000Y-88499000D02*
X88593500Y-88499000D01*
X88593500Y-88499000D02*
X88652500Y-88440000D01*
%TO.N,Net-(J5-RD+)*%
X84495000Y-86467000D02*
X88605500Y-86467000D01*
X88605500Y-86467000D02*
X88647500Y-86425000D01*
D35*
%TO.N,+5V*%
X109075000Y-81745000D02*
X109610000Y-82280000D01*
X109075000Y-81745000D02*
X108525000Y-82295000D01*
D34*
%TO.N,+3V3*%
X95830000Y-80290000D02*
X96592504Y-81052504D01*
D33*
%TO.N,SCK_LLS*%
X133615000Y-85770000D02*
X132625000Y-85770000D01*
%TO.N,/Serial_TX*%
X103930000Y-98760000D02*
X102665000Y-100025000D01*
X103930000Y-96890000D02*
X103930000Y-98760000D01*
X105834265Y-95250000D02*
X105570000Y-95250000D01*
X105570000Y-95250000D02*
X103930000Y-96890000D01*
%TO.N,Net-(U3-EXRES1)*%
X97190406Y-86558147D02*
X97190406Y-86820398D01*
X97190406Y-86820398D02*
X97522504Y-87152496D01*
%TO.N,/ethernet/TX-*%
X89685000Y-82815000D02*
X87049000Y-85451000D01*
X90100000Y-82815000D02*
X89685000Y-82815000D01*
%TO.N,Net-(J4-DP1)*%
X113660000Y-79625000D02*
X114655000Y-79625000D01*
X114655000Y-79625000D02*
X114660000Y-79630000D01*
%TO.N,Net-(J4-CC2)*%
X112660000Y-79480000D02*
X112660000Y-80227500D01*
%TO.N,Net-(J4-CC1)*%
X115660000Y-79495000D02*
X115660000Y-80222500D01*
%TO.N,/DIGF2*%
X119170000Y-98750000D02*
X120445000Y-100025000D01*
X119170000Y-95915000D02*
X119170000Y-98750000D01*
%TO.N,/DIGD2*%
X111555000Y-96935000D02*
X112640000Y-95850000D01*
X110285000Y-100025000D02*
X111555000Y-98755000D01*
X111555000Y-98755000D02*
X111555000Y-96935000D01*
X112640000Y-95850000D02*
X113355000Y-95850000D01*
%TO.N,Net-(U1-VDD)*%
X110197500Y-84090000D02*
X109610000Y-83502500D01*
X110235000Y-84090000D02*
X110197500Y-84090000D01*
%TO.N,DI_LLS*%
X128875000Y-90670000D02*
X128875000Y-89220000D01*
X128875000Y-89220000D02*
X130125000Y-87970000D01*
X130125000Y-87970000D02*
X132625000Y-87970000D01*
%TO.N,RESET*%
X107029265Y-82056765D02*
X108525000Y-83552500D01*
X107029265Y-81360000D02*
X107029265Y-82056765D01*
%TO.N,Net-(J2-COM_2)*%
X110011765Y-80695000D02*
X110011765Y-81031079D01*
X110011765Y-81031079D02*
X110705000Y-81724314D01*
X110705000Y-81724314D02*
X110705000Y-82731584D01*
X110705000Y-82731584D02*
X111359265Y-83385849D01*
X111359265Y-83385849D02*
X111359265Y-83450735D01*
%TD*%
%TA.AperFunction,Conductor*%
%TO.N,GND*%
G36*
X95020000Y-99581988D02*
G01*
X94962993Y-99549075D01*
X94835826Y-99515000D01*
X94704174Y-99515000D01*
X94577007Y-99549075D01*
X94520000Y-99581988D01*
X94520000Y-97908012D01*
X94577007Y-97940925D01*
X94704174Y-97975000D01*
X94835826Y-97975000D01*
X94962993Y-97940925D01*
X95020000Y-97908012D01*
X95020000Y-99581988D01*
G37*
%TD.AperFunction*%
%TA.AperFunction,Conductor*%
G36*
X132947772Y-72040185D02*
G01*
X132993527Y-72092989D01*
X133003471Y-72162147D01*
X132974446Y-72225703D01*
X132934535Y-72256220D01*
X132852092Y-72295922D01*
X132561983Y-72478210D01*
X132294107Y-72691833D01*
X132051833Y-72934107D01*
X131838210Y-73201983D01*
X131655922Y-73492092D01*
X131507264Y-73800783D01*
X131394103Y-74124181D01*
X131394102Y-74124183D01*
X131317861Y-74458217D01*
X131317858Y-74458231D01*
X131279500Y-74798681D01*
X131279500Y-75141318D01*
X131317858Y-75481768D01*
X131317861Y-75481782D01*
X131394102Y-75815816D01*
X131394103Y-75815818D01*
X131507264Y-76139216D01*
X131655922Y-76447907D01*
X131673092Y-76475233D01*
X131838211Y-76738018D01*
X131946109Y-76873318D01*
X132049681Y-77003194D01*
X132051834Y-77005893D01*
X132294107Y-77248166D01*
X132561982Y-77461789D01*
X132852090Y-77644076D01*
X133160785Y-77792736D01*
X133484183Y-77905897D01*
X133818217Y-77982139D01*
X133818226Y-77982140D01*
X133818231Y-77982141D01*
X134016645Y-78004496D01*
X134158682Y-78020499D01*
X134158685Y-78020500D01*
X134158688Y-78020500D01*
X134501315Y-78020500D01*
X134501316Y-78020499D01*
X134675311Y-78000895D01*
X134841768Y-77982141D01*
X134841771Y-77982140D01*
X134841783Y-77982139D01*
X135175817Y-77905897D01*
X135499215Y-77792736D01*
X135807910Y-77644076D01*
X136098018Y-77461789D01*
X136365893Y-77248166D01*
X136608166Y-77005893D01*
X136821789Y-76738018D01*
X137004076Y-76447910D01*
X137004079Y-76447904D01*
X137043780Y-76365465D01*
X137090602Y-76313605D01*
X137158029Y-76295292D01*
X137224653Y-76316340D01*
X137269322Y-76370066D01*
X137279500Y-76419266D01*
X137279500Y-97520733D01*
X137259815Y-97587772D01*
X137207011Y-97633527D01*
X137137853Y-97643471D01*
X137074297Y-97614446D01*
X137043780Y-97574535D01*
X137004077Y-97492092D01*
X136997104Y-97480994D01*
X136821789Y-97201982D01*
X136608166Y-96934107D01*
X136365893Y-96691834D01*
X136098018Y-96478211D01*
X135807910Y-96295924D01*
X135807907Y-96295922D01*
X135499216Y-96147264D01*
X135175818Y-96034103D01*
X135175816Y-96034102D01*
X134875264Y-95965503D01*
X134841783Y-95957861D01*
X134841780Y-95957860D01*
X134841768Y-95957858D01*
X134501318Y-95919500D01*
X134501312Y-95919500D01*
X134158688Y-95919500D01*
X134158681Y-95919500D01*
X133818231Y-95957858D01*
X133818217Y-95957861D01*
X133484183Y-96034102D01*
X133484181Y-96034103D01*
X133160783Y-96147264D01*
X132852092Y-96295922D01*
X132561983Y-96478210D01*
X132294107Y-96691833D01*
X132051833Y-96934107D01*
X131838210Y-97201983D01*
X131655922Y-97492092D01*
X131507264Y-97800783D01*
X131394103Y-98124181D01*
X131394102Y-98124183D01*
X131317861Y-98458217D01*
X131317858Y-98458231D01*
X131279500Y-98798681D01*
X131279500Y-99141318D01*
X131317858Y-99481768D01*
X131317861Y-99481782D01*
X131394102Y-99815816D01*
X131394103Y-99815818D01*
X131507264Y-100139216D01*
X131655922Y-100447907D01*
X131655924Y-100447910D01*
X131838211Y-100738018D01*
X132051834Y-101005893D01*
X132294107Y-101248166D01*
X132561982Y-101461789D01*
X132755318Y-101583270D01*
X132852092Y-101644077D01*
X132934535Y-101683780D01*
X132986394Y-101730603D01*
X133004707Y-101798030D01*
X132983659Y-101864654D01*
X132929933Y-101909322D01*
X132880733Y-101919500D01*
X76779267Y-101919500D01*
X76712228Y-101899815D01*
X76666473Y-101847011D01*
X76656529Y-101777853D01*
X76685554Y-101714297D01*
X76725465Y-101683780D01*
X76768861Y-101662881D01*
X76807910Y-101644076D01*
X77098018Y-101461789D01*
X77365893Y-101248166D01*
X77608166Y-101005893D01*
X77821789Y-100738018D01*
X78004076Y-100447910D01*
X78152736Y-100139215D01*
X78265897Y-99815817D01*
X78342139Y-99481783D01*
X78345962Y-99447858D01*
X78362591Y-99300265D01*
X78380500Y-99141312D01*
X78380500Y-98798688D01*
X78365512Y-98665662D01*
X78342141Y-98458231D01*
X78342140Y-98458226D01*
X78342139Y-98458217D01*
X78265897Y-98124183D01*
X78152736Y-97800785D01*
X78004076Y-97492090D01*
X77821789Y-97201982D01*
X77608166Y-96934107D01*
X77365893Y-96691834D01*
X77098018Y-96478211D01*
X76807910Y-96295924D01*
X76807907Y-96295922D01*
X76499216Y-96147264D01*
X76175818Y-96034103D01*
X76175819Y-96034103D01*
X76093851Y-96015394D01*
X76032873Y-95981285D01*
X76000016Y-95919623D01*
X76005712Y-95849986D01*
X76048152Y-95794482D01*
X76113862Y-95770735D01*
X76121415Y-95770503D01*
X76843563Y-95770500D01*
X76875132Y-95775500D01*
X76878592Y-95775500D01*
X76957026Y-95775500D01*
X77077969Y-95747895D01*
X77189737Y-95694071D01*
X77286725Y-95616725D01*
X77364071Y-95519737D01*
X77417895Y-95407969D01*
X77445500Y-95287026D01*
X77445500Y-95225000D01*
X77445500Y-95208592D01*
X77445500Y-95063314D01*
X77465185Y-94996275D01*
X77517989Y-94950520D01*
X77569403Y-94939314D01*
X82243540Y-94935754D01*
X82310592Y-94955388D01*
X82356387Y-95008157D01*
X82367160Y-95048946D01*
X82384079Y-95242329D01*
X82384081Y-95242339D01*
X82441841Y-95457905D01*
X82441843Y-95457909D01*
X82441844Y-95457913D01*
X82536165Y-95660186D01*
X82664178Y-95843007D01*
X82821993Y-96000822D01*
X83004814Y-96128835D01*
X83207087Y-96223156D01*
X83422666Y-96280920D01*
X83594137Y-96295922D01*
X83644999Y-96300372D01*
X83645000Y-96300372D01*
X83645001Y-96300372D01*
X83695863Y-96295922D01*
X83867334Y-96280920D01*
X84082913Y-96223156D01*
X84285186Y-96128835D01*
X84468007Y-96000822D01*
X84625822Y-95843007D01*
X84753835Y-95660186D01*
X84848156Y-95457913D01*
X84905920Y-95242334D01*
X84923026Y-95046811D01*
X84948478Y-94981743D01*
X85005069Y-94940764D01*
X85046454Y-94933619D01*
X85193522Y-94933507D01*
X85260574Y-94953141D01*
X85306369Y-95005910D01*
X85316365Y-95075061D01*
X85298610Y-95123476D01*
X85294211Y-95130476D01*
X85234631Y-95300745D01*
X85234630Y-95300750D01*
X85214435Y-95479996D01*
X85214435Y-95480003D01*
X85234630Y-95659249D01*
X85234633Y-95659262D01*
X85287541Y-95810461D01*
X85294500Y-95851416D01*
X85294500Y-96448583D01*
X85287541Y-96489538D01*
X85234633Y-96640737D01*
X85234630Y-96640750D01*
X85214435Y-96819996D01*
X85214435Y-96820003D01*
X85234630Y-96999249D01*
X85234631Y-96999254D01*
X85294211Y-97169523D01*
X85380759Y-97307262D01*
X85390184Y-97322262D01*
X85517738Y-97449816D01*
X85573733Y-97485000D01*
X85657962Y-97537925D01*
X85670478Y-97545789D01*
X85804313Y-97592620D01*
X85840745Y-97605368D01*
X85840750Y-97605369D01*
X86019996Y-97625565D01*
X86020000Y-97625565D01*
X86020004Y-97625565D01*
X86199249Y-97605369D01*
X86199252Y-97605368D01*
X86199255Y-97605368D01*
X86369522Y-97545789D01*
X86382038Y-97537925D01*
X86466267Y-97485000D01*
X86485963Y-97472623D01*
X86553200Y-97453623D01*
X86617909Y-97472624D01*
X86628220Y-97479103D01*
X86631138Y-97480994D01*
X86716341Y-97537925D01*
X86716349Y-97537930D01*
X86723341Y-97540826D01*
X86848380Y-97592619D01*
X86848384Y-97592619D01*
X86848385Y-97592620D01*
X86988542Y-97620500D01*
X86988545Y-97620500D01*
X87131457Y-97620500D01*
X87225751Y-97601742D01*
X87271620Y-97592619D01*
X87403653Y-97537929D01*
X87488948Y-97480935D01*
X87491735Y-97479130D01*
X87498310Y-97474999D01*
X90874341Y-97474999D01*
X90874341Y-97475000D01*
X90894936Y-97710403D01*
X90894938Y-97710413D01*
X90956094Y-97938655D01*
X90956096Y-97938659D01*
X90956097Y-97938663D01*
X91040667Y-98120023D01*
X91055965Y-98152830D01*
X91055967Y-98152834D01*
X91191501Y-98346395D01*
X91191506Y-98346402D01*
X91358597Y-98513493D01*
X91358603Y-98513498D01*
X91544158Y-98643425D01*
X91587783Y-98698002D01*
X91594977Y-98767500D01*
X91563454Y-98829855D01*
X91544158Y-98846575D01*
X91358597Y-98976505D01*
X91191505Y-99143597D01*
X91055965Y-99337169D01*
X91055964Y-99337171D01*
X90956098Y-99551335D01*
X90956094Y-99551344D01*
X90894938Y-99779586D01*
X90894936Y-99779596D01*
X90874341Y-100014999D01*
X90874341Y-100015000D01*
X90894936Y-100250403D01*
X90894938Y-100250413D01*
X90956094Y-100478655D01*
X90956096Y-100478659D01*
X90956097Y-100478663D01*
X91039155Y-100656781D01*
X91055965Y-100692830D01*
X91055967Y-100692834D01*
X91143919Y-100818441D01*
X91191505Y-100886401D01*
X91358599Y-101053495D01*
X91449416Y-101117086D01*
X91552165Y-101189032D01*
X91552167Y-101189033D01*
X91552170Y-101189035D01*
X91766337Y-101288903D01*
X91994592Y-101350063D01*
X92182918Y-101366539D01*
X92229999Y-101370659D01*
X92230000Y-101370659D01*
X92230001Y-101370659D01*
X92269234Y-101367226D01*
X92465408Y-101350063D01*
X92693663Y-101288903D01*
X92907830Y-101189035D01*
X93101401Y-101053495D01*
X93268495Y-100886401D01*
X93398730Y-100700405D01*
X93453307Y-100656781D01*
X93522805Y-100649587D01*
X93585160Y-100681110D01*
X93601879Y-100700405D01*
X93731890Y-100886078D01*
X93898917Y-101053105D01*
X94092421Y-101188600D01*
X94306507Y-101288429D01*
X94306516Y-101288433D01*
X94520000Y-101345634D01*
X94520000Y-100448012D01*
X94577007Y-100480925D01*
X94704174Y-100515000D01*
X94835826Y-100515000D01*
X94962993Y-100480925D01*
X95020000Y-100448012D01*
X95020000Y-101345633D01*
X95233483Y-101288433D01*
X95233492Y-101288429D01*
X95447578Y-101188600D01*
X95641082Y-101053105D01*
X95808105Y-100886082D01*
X95943600Y-100692578D01*
X96043429Y-100478492D01*
X96043432Y-100478486D01*
X96100636Y-100265000D01*
X95203012Y-100265000D01*
X95235925Y-100207993D01*
X95270000Y-100080826D01*
X95270000Y-99949174D01*
X95235925Y-99822007D01*
X95203012Y-99765000D01*
X96100636Y-99765000D01*
X96100635Y-99764999D01*
X96043432Y-99551513D01*
X96043429Y-99551507D01*
X95943600Y-99337422D01*
X95943599Y-99337420D01*
X95808113Y-99143926D01*
X95808108Y-99143920D01*
X95685665Y-99021477D01*
X95652180Y-98960154D01*
X95657164Y-98890462D01*
X95699036Y-98834529D01*
X95730013Y-98817614D01*
X95862086Y-98768354D01*
X95862093Y-98768350D01*
X95977187Y-98682190D01*
X95977190Y-98682187D01*
X96063350Y-98567093D01*
X96063354Y-98567086D01*
X96113596Y-98432379D01*
X96113598Y-98432372D01*
X96119999Y-98372844D01*
X96120000Y-98372827D01*
X96120000Y-97725000D01*
X95203012Y-97725000D01*
X95235925Y-97667993D01*
X95270000Y-97540826D01*
X95270000Y-97484999D01*
X98769341Y-97484999D01*
X98769341Y-97485000D01*
X98789936Y-97720403D01*
X98789938Y-97720413D01*
X98851094Y-97948655D01*
X98851096Y-97948659D01*
X98851097Y-97948663D01*
X98931004Y-98120023D01*
X98950965Y-98162830D01*
X98950967Y-98162834D01*
X98965634Y-98183780D01*
X99086501Y-98356396D01*
X99086506Y-98356402D01*
X99208818Y-98478714D01*
X99242303Y-98540037D01*
X99237319Y-98609729D01*
X99195447Y-98665662D01*
X99164471Y-98682577D01*
X99032912Y-98731646D01*
X99032906Y-98731649D01*
X98917812Y-98817809D01*
X98917809Y-98817812D01*
X98831649Y-98932906D01*
X98831645Y-98932913D01*
X98781403Y-99067620D01*
X98781401Y-99067627D01*
X98775000Y-99127155D01*
X98775000Y-99775000D01*
X99691988Y-99775000D01*
X99659075Y-99832007D01*
X99625000Y-99959174D01*
X99625000Y-100090826D01*
X99659075Y-100217993D01*
X99691988Y-100275000D01*
X98775000Y-100275000D01*
X98775000Y-100922844D01*
X98781401Y-100982372D01*
X98781403Y-100982379D01*
X98831645Y-101117086D01*
X98831649Y-101117093D01*
X98917809Y-101232187D01*
X98917812Y-101232190D01*
X99032906Y-101318350D01*
X99032913Y-101318354D01*
X99167620Y-101368596D01*
X99167627Y-101368598D01*
X99227155Y-101374999D01*
X99227172Y-101375000D01*
X99875000Y-101375000D01*
X99875000Y-100458012D01*
X99932007Y-100490925D01*
X100059174Y-100525000D01*
X100190826Y-100525000D01*
X100317993Y-100490925D01*
X100375000Y-100458012D01*
X100375000Y-101375000D01*
X101022828Y-101375000D01*
X101022844Y-101374999D01*
X101082372Y-101368598D01*
X101082379Y-101368596D01*
X101217086Y-101318354D01*
X101217093Y-101318350D01*
X101332187Y-101232190D01*
X101332190Y-101232187D01*
X101418350Y-101117093D01*
X101418354Y-101117086D01*
X101467422Y-100985529D01*
X101509293Y-100929595D01*
X101574757Y-100905178D01*
X101643030Y-100920030D01*
X101671285Y-100941181D01*
X101793599Y-101063495D01*
X101870135Y-101117086D01*
X101987165Y-101199032D01*
X101987167Y-101199033D01*
X101987170Y-101199035D01*
X102201337Y-101298903D01*
X102429592Y-101360063D01*
X102600319Y-101375000D01*
X102664999Y-101380659D01*
X102665000Y-101380659D01*
X102665001Y-101380659D01*
X102729681Y-101375000D01*
X102900408Y-101360063D01*
X103128663Y-101298903D01*
X103342830Y-101199035D01*
X103536401Y-101063495D01*
X103703495Y-100896401D01*
X103833425Y-100710842D01*
X103888002Y-100667217D01*
X103957500Y-100660023D01*
X104019855Y-100691546D01*
X104036575Y-100710842D01*
X104166500Y-100896395D01*
X104166505Y-100896401D01*
X104333599Y-101063495D01*
X104410135Y-101117086D01*
X104527165Y-101199032D01*
X104527167Y-101199033D01*
X104527170Y-101199035D01*
X104741337Y-101298903D01*
X104969592Y-101360063D01*
X105140319Y-101375000D01*
X105204999Y-101380659D01*
X105205000Y-101380659D01*
X105205001Y-101380659D01*
X105269681Y-101375000D01*
X105440408Y-101360063D01*
X105668663Y-101298903D01*
X105882830Y-101199035D01*
X106076401Y-101063495D01*
X106243495Y-100896401D01*
X106373425Y-100710842D01*
X106428002Y-100667217D01*
X106497500Y-100660023D01*
X106559855Y-100691546D01*
X106576575Y-100710842D01*
X106706500Y-100896395D01*
X106706505Y-100896401D01*
X106873599Y-101063495D01*
X106950135Y-101117086D01*
X107067165Y-101199032D01*
X107067167Y-101199033D01*
X107067170Y-101199035D01*
X107281337Y-101298903D01*
X107509592Y-101360063D01*
X107680319Y-101375000D01*
X107744999Y-101380659D01*
X107745000Y-101380659D01*
X107745001Y-101380659D01*
X107809681Y-101375000D01*
X107980408Y-101360063D01*
X108208663Y-101298903D01*
X108422830Y-101199035D01*
X108616401Y-101063495D01*
X108783495Y-100896401D01*
X108913425Y-100710842D01*
X108968002Y-100667217D01*
X109037500Y-100660023D01*
X109099855Y-100691546D01*
X109116575Y-100710842D01*
X109246500Y-100896395D01*
X109246505Y-100896401D01*
X109413599Y-101063495D01*
X109490135Y-101117086D01*
X109607165Y-101199032D01*
X109607167Y-101199033D01*
X109607170Y-101199035D01*
X109821337Y-101298903D01*
X110049592Y-101360063D01*
X110220319Y-101375000D01*
X110284999Y-101380659D01*
X110285000Y-101380659D01*
X110285001Y-101380659D01*
X110349681Y-101375000D01*
X110520408Y-101360063D01*
X110748663Y-101298903D01*
X110962830Y-101199035D01*
X111156401Y-101063495D01*
X111323495Y-100896401D01*
X111453425Y-100710842D01*
X111508002Y-100667217D01*
X111577500Y-100660023D01*
X111639855Y-100691546D01*
X111656575Y-100710842D01*
X111786500Y-100896395D01*
X111786505Y-100896401D01*
X111953599Y-101063495D01*
X112030135Y-101117086D01*
X112147165Y-101199032D01*
X112147167Y-101199033D01*
X112147170Y-101199035D01*
X112361337Y-101298903D01*
X112589592Y-101360063D01*
X112760319Y-101375000D01*
X112824999Y-101380659D01*
X112825000Y-101380659D01*
X112825001Y-101380659D01*
X112889681Y-101375000D01*
X113060408Y-101360063D01*
X113288663Y-101298903D01*
X113502830Y-101199035D01*
X113696401Y-101063495D01*
X113863495Y-100896401D01*
X113993425Y-100710842D01*
X114048002Y-100667217D01*
X114117500Y-100660023D01*
X114179855Y-100691546D01*
X114196575Y-100710842D01*
X114326500Y-100896395D01*
X114326505Y-100896401D01*
X114493599Y-101063495D01*
X114570135Y-101117086D01*
X114687165Y-101199032D01*
X114687167Y-101199033D01*
X114687170Y-101199035D01*
X114901337Y-101298903D01*
X115129592Y-101360063D01*
X115300319Y-101375000D01*
X115364999Y-101380659D01*
X115365000Y-101380659D01*
X115365001Y-101380659D01*
X115429681Y-101375000D01*
X115600408Y-101360063D01*
X115828663Y-101298903D01*
X116042830Y-101199035D01*
X116236401Y-101063495D01*
X116403495Y-100896401D01*
X116533425Y-100710842D01*
X116588002Y-100667217D01*
X116657500Y-100660023D01*
X116719855Y-100691546D01*
X116736575Y-100710842D01*
X116866500Y-100896395D01*
X116866505Y-100896401D01*
X117033599Y-101063495D01*
X117110135Y-101117086D01*
X117227165Y-101199032D01*
X117227167Y-101199033D01*
X117227170Y-101199035D01*
X117441337Y-101298903D01*
X117669592Y-101360063D01*
X117840319Y-101375000D01*
X117904999Y-101380659D01*
X117905000Y-101380659D01*
X117905001Y-101380659D01*
X117969681Y-101375000D01*
X118140408Y-101360063D01*
X118368663Y-101298903D01*
X118582830Y-101199035D01*
X118776401Y-101063495D01*
X118943495Y-100896401D01*
X119073425Y-100710842D01*
X119128002Y-100667217D01*
X119197500Y-100660023D01*
X119259855Y-100691546D01*
X119276575Y-100710842D01*
X119406500Y-100896395D01*
X119406505Y-100896401D01*
X119573599Y-101063495D01*
X119650135Y-101117086D01*
X119767165Y-101199032D01*
X119767167Y-101199033D01*
X119767170Y-101199035D01*
X119981337Y-101298903D01*
X120209592Y-101360063D01*
X120380319Y-101375000D01*
X120444999Y-101380659D01*
X120445000Y-101380659D01*
X120445001Y-101380659D01*
X120509681Y-101375000D01*
X120680408Y-101360063D01*
X120908663Y-101298903D01*
X121122830Y-101199035D01*
X121316401Y-101063495D01*
X121483495Y-100896401D01*
X121613425Y-100710842D01*
X121668002Y-100667217D01*
X121737500Y-100660023D01*
X121799855Y-100691546D01*
X121816575Y-100710842D01*
X121946500Y-100896395D01*
X121946505Y-100896401D01*
X122113599Y-101063495D01*
X122190135Y-101117086D01*
X122307165Y-101199032D01*
X122307167Y-101199033D01*
X122307170Y-101199035D01*
X122521337Y-101298903D01*
X122749592Y-101360063D01*
X122920319Y-101375000D01*
X122984999Y-101380659D01*
X122985000Y-101380659D01*
X122985001Y-101380659D01*
X123049681Y-101375000D01*
X123220408Y-101360063D01*
X123448663Y-101298903D01*
X123662830Y-101199035D01*
X123856401Y-101063495D01*
X124023495Y-100896401D01*
X124153425Y-100710842D01*
X124208002Y-100667217D01*
X124277500Y-100660023D01*
X124339855Y-100691546D01*
X124356575Y-100710842D01*
X124486500Y-100896395D01*
X124486505Y-100896401D01*
X124653599Y-101063495D01*
X124730135Y-101117086D01*
X124847165Y-101199032D01*
X124847167Y-101199033D01*
X124847170Y-101199035D01*
X125061337Y-101298903D01*
X125289592Y-101360063D01*
X125460319Y-101375000D01*
X125524999Y-101380659D01*
X125525000Y-101380659D01*
X125525001Y-101380659D01*
X125589681Y-101375000D01*
X125760408Y-101360063D01*
X125988663Y-101298903D01*
X126202830Y-101199035D01*
X126396401Y-101063495D01*
X126563495Y-100896401D01*
X126699035Y-100702830D01*
X126798903Y-100488663D01*
X126860063Y-100260408D01*
X126880659Y-100025000D01*
X126860063Y-99789592D01*
X126798903Y-99561337D01*
X126699035Y-99347171D01*
X126693425Y-99339158D01*
X126563494Y-99153597D01*
X126396402Y-98986506D01*
X126396401Y-98986505D01*
X126210405Y-98856269D01*
X126166781Y-98801692D01*
X126159588Y-98732193D01*
X126191110Y-98669839D01*
X126210405Y-98653119D01*
X126396082Y-98523105D01*
X126563105Y-98356082D01*
X126698600Y-98162578D01*
X126798429Y-97948492D01*
X126798432Y-97948486D01*
X126855636Y-97735000D01*
X125958012Y-97735000D01*
X125990925Y-97677993D01*
X126025000Y-97550826D01*
X126025000Y-97419174D01*
X125990925Y-97292007D01*
X125958012Y-97235000D01*
X126855636Y-97235000D01*
X126855635Y-97234999D01*
X126798432Y-97021513D01*
X126798429Y-97021507D01*
X126698600Y-96807422D01*
X126698599Y-96807420D01*
X126563113Y-96613926D01*
X126563108Y-96613920D01*
X126396082Y-96446894D01*
X126202578Y-96311399D01*
X125988492Y-96211570D01*
X125988486Y-96211567D01*
X125775000Y-96154364D01*
X125775000Y-97051988D01*
X125717993Y-97019075D01*
X125590826Y-96985000D01*
X125459174Y-96985000D01*
X125332007Y-97019075D01*
X125275000Y-97051988D01*
X125275000Y-96154364D01*
X125274999Y-96154364D01*
X125061513Y-96211567D01*
X125061507Y-96211570D01*
X124847422Y-96311399D01*
X124847420Y-96311400D01*
X124653926Y-96446886D01*
X124653920Y-96446891D01*
X124486891Y-96613920D01*
X124486890Y-96613922D01*
X124356880Y-96799595D01*
X124302303Y-96843219D01*
X124232804Y-96850412D01*
X124170450Y-96818890D01*
X124153730Y-96799594D01*
X124023494Y-96613597D01*
X123856402Y-96446506D01*
X123856395Y-96446501D01*
X123842119Y-96436505D01*
X123803521Y-96409478D01*
X123662834Y-96310967D01*
X123662830Y-96310965D01*
X123640113Y-96300372D01*
X123448663Y-96211097D01*
X123448659Y-96211096D01*
X123448655Y-96211094D01*
X123220413Y-96149938D01*
X123220403Y-96149936D01*
X122985001Y-96129341D01*
X122984999Y-96129341D01*
X122749596Y-96149936D01*
X122749586Y-96149938D01*
X122521344Y-96211094D01*
X122521335Y-96211098D01*
X122307171Y-96310964D01*
X122307169Y-96310965D01*
X122113597Y-96446505D01*
X121946505Y-96613597D01*
X121816575Y-96799158D01*
X121761998Y-96842783D01*
X121692500Y-96849977D01*
X121630145Y-96818454D01*
X121613425Y-96799158D01*
X121483494Y-96613597D01*
X121316402Y-96446506D01*
X121316395Y-96446501D01*
X121302119Y-96436505D01*
X121263521Y-96409478D01*
X121122834Y-96310967D01*
X121122830Y-96310965D01*
X121100113Y-96300372D01*
X120908663Y-96211097D01*
X120908659Y-96211096D01*
X120908655Y-96211094D01*
X120680413Y-96149938D01*
X120680403Y-96149936D01*
X120445001Y-96129341D01*
X120444999Y-96129341D01*
X120209596Y-96149936D01*
X120209586Y-96149938D01*
X120116661Y-96174837D01*
X120046811Y-96173174D01*
X119988948Y-96134011D01*
X119961445Y-96069782D01*
X119961348Y-96041178D01*
X119962146Y-96034102D01*
X119975118Y-95918965D01*
X119975565Y-95915002D01*
X119975565Y-95914996D01*
X119955369Y-95735750D01*
X119955368Y-95735745D01*
X119895789Y-95565478D01*
X119799816Y-95412738D01*
X119672262Y-95285184D01*
X119627646Y-95257150D01*
X119519523Y-95189211D01*
X119349254Y-95129631D01*
X119349249Y-95129630D01*
X119170004Y-95109435D01*
X119169996Y-95109435D01*
X118990750Y-95129630D01*
X118990745Y-95129631D01*
X118820476Y-95189211D01*
X118667737Y-95285184D01*
X118540184Y-95412737D01*
X118444211Y-95565476D01*
X118384631Y-95735745D01*
X118384630Y-95735750D01*
X118364435Y-95914996D01*
X118364435Y-95915005D01*
X118378339Y-96038417D01*
X118366284Y-96107238D01*
X118318935Y-96158617D01*
X118251324Y-96176241D01*
X118223026Y-96172074D01*
X118140413Y-96149938D01*
X118140403Y-96149936D01*
X117905001Y-96129341D01*
X117904999Y-96129341D01*
X117669596Y-96149936D01*
X117669586Y-96149938D01*
X117441344Y-96211094D01*
X117441335Y-96211098D01*
X117227171Y-96310964D01*
X117227169Y-96310965D01*
X117033597Y-96446505D01*
X116866505Y-96613597D01*
X116736575Y-96799158D01*
X116681998Y-96842783D01*
X116612500Y-96849977D01*
X116550145Y-96818454D01*
X116533425Y-96799158D01*
X116403494Y-96613597D01*
X116236402Y-96446506D01*
X116236395Y-96446501D01*
X116222119Y-96436505D01*
X116183521Y-96409478D01*
X116042834Y-96310967D01*
X116042830Y-96310965D01*
X116020113Y-96300372D01*
X115828663Y-96211097D01*
X115828659Y-96211096D01*
X115828655Y-96211094D01*
X115600413Y-96149938D01*
X115600403Y-96149936D01*
X115365001Y-96129341D01*
X115364999Y-96129341D01*
X115129596Y-96149936D01*
X115129586Y-96149938D01*
X114901344Y-96211094D01*
X114901335Y-96211098D01*
X114687171Y-96310964D01*
X114687169Y-96310965D01*
X114493597Y-96446505D01*
X114326505Y-96613597D01*
X114196575Y-96799158D01*
X114141998Y-96842783D01*
X114072500Y-96849977D01*
X114010145Y-96818454D01*
X113993425Y-96799158D01*
X113865511Y-96616477D01*
X113843184Y-96550271D01*
X113860194Y-96482504D01*
X113879405Y-96457673D01*
X113927600Y-96409478D01*
X113984816Y-96352262D01*
X114080789Y-96199522D01*
X114140368Y-96029255D01*
X114141930Y-96015394D01*
X114160565Y-95850003D01*
X114160565Y-95849996D01*
X114140369Y-95670750D01*
X114140368Y-95670745D01*
X114136323Y-95659184D01*
X114080789Y-95500478D01*
X114077082Y-95494579D01*
X114022662Y-95407969D01*
X113984816Y-95347738D01*
X113857262Y-95220184D01*
X113704523Y-95124211D01*
X113534254Y-95064631D01*
X113534249Y-95064630D01*
X113355004Y-95044435D01*
X113354996Y-95044435D01*
X113175750Y-95064630D01*
X113175745Y-95064631D01*
X113005476Y-95124211D01*
X112852736Y-95220185D01*
X112849903Y-95222445D01*
X112847724Y-95223334D01*
X112846842Y-95223889D01*
X112846744Y-95223734D01*
X112785217Y-95248855D01*
X112772588Y-95249500D01*
X112726670Y-95249500D01*
X112726654Y-95249499D01*
X112719058Y-95249499D01*
X112560943Y-95249499D01*
X112484579Y-95269961D01*
X112408214Y-95290423D01*
X112408209Y-95290426D01*
X112271290Y-95369475D01*
X112271282Y-95369481D01*
X111252241Y-96388522D01*
X111190918Y-96422007D01*
X111121226Y-96417023D01*
X111093437Y-96402416D01*
X110962834Y-96310967D01*
X110962830Y-96310965D01*
X110940113Y-96300372D01*
X110748663Y-96211097D01*
X110748659Y-96211096D01*
X110748655Y-96211094D01*
X110520413Y-96149938D01*
X110520403Y-96149936D01*
X110285001Y-96129341D01*
X110284999Y-96129341D01*
X110049596Y-96149936D01*
X110049586Y-96149938D01*
X109821344Y-96211094D01*
X109821335Y-96211098D01*
X109607171Y-96310964D01*
X109607169Y-96310965D01*
X109413597Y-96446505D01*
X109246505Y-96613597D01*
X109116575Y-96799158D01*
X109061998Y-96842783D01*
X108992500Y-96849977D01*
X108930145Y-96818454D01*
X108913425Y-96799158D01*
X108783494Y-96613597D01*
X108616402Y-96446506D01*
X108616395Y-96446501D01*
X108602119Y-96436505D01*
X108563521Y-96409478D01*
X108422834Y-96310967D01*
X108422830Y-96310965D01*
X108400113Y-96300372D01*
X108208663Y-96211097D01*
X108208659Y-96211096D01*
X108208655Y-96211094D01*
X107980413Y-96149938D01*
X107980403Y-96149936D01*
X107745001Y-96129341D01*
X107744999Y-96129341D01*
X107509596Y-96149936D01*
X107509586Y-96149938D01*
X107281344Y-96211094D01*
X107281335Y-96211098D01*
X107067171Y-96310964D01*
X107067169Y-96310965D01*
X106873597Y-96446505D01*
X106706505Y-96613597D01*
X106576575Y-96799158D01*
X106521998Y-96842783D01*
X106452500Y-96849977D01*
X106390145Y-96818454D01*
X106373425Y-96799158D01*
X106243494Y-96613597D01*
X106076402Y-96446506D01*
X106076395Y-96446501D01*
X106062119Y-96436505D01*
X106023521Y-96409478D01*
X105882834Y-96310967D01*
X105882831Y-96310965D01*
X105882830Y-96310965D01*
X105831688Y-96287117D01*
X105779249Y-96240944D01*
X105760097Y-96173751D01*
X105780313Y-96106869D01*
X105833479Y-96061535D01*
X105870210Y-96051515D01*
X106013514Y-96035369D01*
X106013517Y-96035368D01*
X106013520Y-96035368D01*
X106183787Y-95975789D01*
X106336527Y-95879816D01*
X106464081Y-95752262D01*
X106560054Y-95599522D01*
X106619633Y-95429255D01*
X106622031Y-95407973D01*
X106639830Y-95250003D01*
X106639830Y-95249996D01*
X106619634Y-95070750D01*
X106619633Y-95070745D01*
X106610427Y-95044435D01*
X106560054Y-94900478D01*
X106556707Y-94895152D01*
X106504670Y-94812335D01*
X106464081Y-94747738D01*
X106336527Y-94620184D01*
X106332849Y-94617873D01*
X106183788Y-94524211D01*
X106013519Y-94464631D01*
X106013514Y-94464630D01*
X105834269Y-94444435D01*
X105834261Y-94444435D01*
X105655015Y-94464630D01*
X105655010Y-94464631D01*
X105484741Y-94524211D01*
X105332002Y-94620184D01*
X105204451Y-94747735D01*
X105204448Y-94747739D01*
X105180474Y-94785892D01*
X105163164Y-94807597D01*
X105089480Y-94881283D01*
X105089478Y-94881286D01*
X103602832Y-96367931D01*
X103541509Y-96401416D01*
X103471817Y-96396432D01*
X103444033Y-96381828D01*
X103364612Y-96326217D01*
X103342829Y-96310964D01*
X103208552Y-96248350D01*
X103128663Y-96211097D01*
X103128659Y-96211096D01*
X103128655Y-96211094D01*
X102900413Y-96149938D01*
X102900403Y-96149936D01*
X102665001Y-96129341D01*
X102664999Y-96129341D01*
X102429596Y-96149936D01*
X102429586Y-96149938D01*
X102201344Y-96211094D01*
X102201335Y-96211098D01*
X101987171Y-96310964D01*
X101987169Y-96310965D01*
X101793597Y-96446505D01*
X101626505Y-96613597D01*
X101496575Y-96799158D01*
X101441998Y-96842783D01*
X101372500Y-96849977D01*
X101310145Y-96818454D01*
X101293425Y-96799158D01*
X101163494Y-96613597D01*
X100996402Y-96446506D01*
X100996395Y-96446501D01*
X100982119Y-96436505D01*
X100943521Y-96409478D01*
X100802834Y-96310967D01*
X100802830Y-96310965D01*
X100780113Y-96300372D01*
X100588663Y-96211097D01*
X100588659Y-96211096D01*
X100588655Y-96211094D01*
X100360413Y-96149938D01*
X100360403Y-96149936D01*
X100125001Y-96129341D01*
X100124999Y-96129341D01*
X99889596Y-96149936D01*
X99889586Y-96149938D01*
X99661344Y-96211094D01*
X99661335Y-96211098D01*
X99447171Y-96310964D01*
X99447169Y-96310965D01*
X99253597Y-96446505D01*
X99086505Y-96613597D01*
X98950965Y-96807169D01*
X98950964Y-96807171D01*
X98851098Y-97021335D01*
X98851094Y-97021344D01*
X98789938Y-97249586D01*
X98789936Y-97249596D01*
X98769341Y-97484999D01*
X95270000Y-97484999D01*
X95270000Y-97409174D01*
X95235925Y-97282007D01*
X95203012Y-97225000D01*
X96120000Y-97225000D01*
X96120000Y-96577172D01*
X96119999Y-96577155D01*
X96113598Y-96517627D01*
X96113596Y-96517620D01*
X96063354Y-96382913D01*
X96063350Y-96382906D01*
X95977190Y-96267812D01*
X95977187Y-96267809D01*
X95862093Y-96181649D01*
X95862086Y-96181645D01*
X95727379Y-96131403D01*
X95727372Y-96131401D01*
X95667844Y-96125000D01*
X95020000Y-96125000D01*
X95020000Y-97041988D01*
X94962993Y-97009075D01*
X94835826Y-96975000D01*
X94704174Y-96975000D01*
X94577007Y-97009075D01*
X94520000Y-97041988D01*
X94520000Y-96125000D01*
X93872155Y-96125000D01*
X93812627Y-96131401D01*
X93812620Y-96131403D01*
X93677913Y-96181645D01*
X93677906Y-96181649D01*
X93562812Y-96267809D01*
X93562809Y-96267812D01*
X93476649Y-96382906D01*
X93476645Y-96382913D01*
X93427578Y-96514470D01*
X93385707Y-96570404D01*
X93320242Y-96594821D01*
X93251969Y-96579969D01*
X93223715Y-96558819D01*
X93179366Y-96514470D01*
X93101401Y-96436505D01*
X93101397Y-96436502D01*
X93101396Y-96436501D01*
X92907834Y-96300967D01*
X92907830Y-96300965D01*
X92833418Y-96266266D01*
X92693663Y-96201097D01*
X92693659Y-96201096D01*
X92693655Y-96201094D01*
X92465413Y-96139938D01*
X92465403Y-96139936D01*
X92230001Y-96119341D01*
X92229999Y-96119341D01*
X91994596Y-96139936D01*
X91994586Y-96139938D01*
X91766344Y-96201094D01*
X91766335Y-96201098D01*
X91552171Y-96300964D01*
X91552169Y-96300965D01*
X91358597Y-96436505D01*
X91191505Y-96603597D01*
X91055965Y-96797169D01*
X91055964Y-96797171D01*
X90956098Y-97011335D01*
X90956094Y-97011344D01*
X90894938Y-97239586D01*
X90894936Y-97239596D01*
X90874341Y-97474999D01*
X87498310Y-97474999D01*
X87562262Y-97434816D01*
X87689816Y-97307262D01*
X87785789Y-97154522D01*
X87845368Y-96984255D01*
X87846411Y-96975000D01*
X87865565Y-96805003D01*
X87865565Y-96804996D01*
X87845369Y-96625750D01*
X87845366Y-96625737D01*
X87792459Y-96474538D01*
X87785500Y-96433583D01*
X87785500Y-95851416D01*
X87792459Y-95810461D01*
X87845366Y-95659262D01*
X87845369Y-95659249D01*
X87865565Y-95480003D01*
X87865565Y-95479996D01*
X87845369Y-95300750D01*
X87845368Y-95300745D01*
X87840568Y-95287027D01*
X87785789Y-95130478D01*
X87785257Y-95129632D01*
X87780104Y-95121430D01*
X87761104Y-95054194D01*
X87781472Y-94987358D01*
X87834739Y-94942144D01*
X87885002Y-94931458D01*
X89800000Y-94930000D01*
X89818225Y-94911761D01*
X89819685Y-94906790D01*
X89872489Y-94861035D01*
X89937883Y-94850609D01*
X90016092Y-94859420D01*
X90092999Y-94868086D01*
X90157413Y-94895152D01*
X90196969Y-94952747D01*
X90198192Y-94956711D01*
X90244090Y-95114694D01*
X90244092Y-95114697D01*
X90328333Y-95257142D01*
X90328339Y-95257150D01*
X90445349Y-95374160D01*
X90445357Y-95374166D01*
X90587802Y-95458407D01*
X90587805Y-95458409D01*
X90746717Y-95504577D01*
X90746724Y-95504579D01*
X90754998Y-95505229D01*
X90755000Y-95505228D01*
X91255000Y-95505228D01*
X91255001Y-95505229D01*
X91263275Y-95504579D01*
X91263282Y-95504577D01*
X91422194Y-95458409D01*
X91422197Y-95458407D01*
X91526879Y-95396499D01*
X91594603Y-95379316D01*
X91653121Y-95396499D01*
X91757802Y-95458407D01*
X91757805Y-95458409D01*
X91916717Y-95504577D01*
X91916724Y-95504579D01*
X91924998Y-95505229D01*
X91925000Y-95505228D01*
X91925000Y-94890000D01*
X92425000Y-94890000D01*
X92425000Y-95505228D01*
X92425001Y-95505229D01*
X92433275Y-95504579D01*
X92433282Y-95504577D01*
X92592194Y-95458409D01*
X92592197Y-95458407D01*
X92728788Y-95377628D01*
X92796512Y-95360445D01*
X92855030Y-95377628D01*
X92957802Y-95438407D01*
X92957805Y-95438409D01*
X93116717Y-95484577D01*
X93116724Y-95484579D01*
X93124998Y-95485229D01*
X93125000Y-95485228D01*
X93625000Y-95485228D01*
X93625001Y-95485229D01*
X93633275Y-95484579D01*
X93633282Y-95484577D01*
X93792194Y-95438409D01*
X93792197Y-95438407D01*
X93903424Y-95372628D01*
X93971147Y-95355445D01*
X94029666Y-95372628D01*
X94157802Y-95448407D01*
X94157805Y-95448409D01*
X94316717Y-95494577D01*
X94316724Y-95494579D01*
X94324998Y-95495229D01*
X94325000Y-95495228D01*
X94325000Y-94880000D01*
X93783362Y-94880000D01*
X93749306Y-94870000D01*
X93625000Y-94870000D01*
X93625000Y-95485228D01*
X93125000Y-95485228D01*
X93125000Y-94870000D01*
X93014433Y-94870000D01*
X92982996Y-94887166D01*
X92956638Y-94890000D01*
X92425000Y-94890000D01*
X91925000Y-94890000D01*
X91255000Y-94890000D01*
X91255000Y-95505228D01*
X90755000Y-95505228D01*
X90755000Y-94586778D01*
X90774006Y-94520806D01*
X90819736Y-94448026D01*
X90872069Y-94401737D01*
X90924729Y-94390000D01*
X92549737Y-94390000D01*
X92549920Y-94389900D01*
X92576399Y-94387062D01*
X94550602Y-94388702D01*
X94617625Y-94408442D01*
X94663336Y-94461284D01*
X94674499Y-94512700D01*
X94674499Y-94570992D01*
X94674500Y-94571011D01*
X94686053Y-94678455D01*
X94686054Y-94678462D01*
X94697261Y-94729976D01*
X94731385Y-94832501D01*
X94731387Y-94832504D01*
X94805315Y-94947537D01*
X94825000Y-95014575D01*
X94825000Y-95495228D01*
X94825001Y-95495229D01*
X94833275Y-95494579D01*
X94833282Y-95494577D01*
X94992194Y-95448409D01*
X94992197Y-95448407D01*
X95134642Y-95364166D01*
X95134646Y-95364163D01*
X95238539Y-95260270D01*
X95299862Y-95226785D01*
X95369554Y-95231769D01*
X95413902Y-95260270D01*
X95441344Y-95287712D01*
X95590666Y-95379814D01*
X95757203Y-95434999D01*
X95859991Y-95445500D01*
X96510008Y-95445499D01*
X96510016Y-95445498D01*
X96510019Y-95445498D01*
X96579415Y-95438409D01*
X96612797Y-95434999D01*
X96779334Y-95379814D01*
X96928656Y-95287712D01*
X97052712Y-95163656D01*
X97144814Y-95014334D01*
X97199999Y-94847797D01*
X97210500Y-94745009D01*
X97210499Y-94649422D01*
X97211761Y-94631775D01*
X97213428Y-94620184D01*
X97220500Y-94571000D01*
X97220500Y-93885854D01*
X97220502Y-93885140D01*
X97220502Y-93884976D01*
X97222086Y-93244983D01*
X98309500Y-93244983D01*
X98309500Y-94745001D01*
X98309501Y-94745018D01*
X98320000Y-94847796D01*
X98320001Y-94847799D01*
X98375185Y-95014331D01*
X98375187Y-95014336D01*
X98378681Y-95020000D01*
X98467288Y-95163656D01*
X98591344Y-95287712D01*
X98740666Y-95379814D01*
X98907203Y-95434999D01*
X99009991Y-95445500D01*
X99660008Y-95445499D01*
X99660016Y-95445498D01*
X99660019Y-95445498D01*
X99729415Y-95438409D01*
X99762797Y-95434999D01*
X99929334Y-95379814D01*
X100078656Y-95287712D01*
X100202712Y-95163656D01*
X100294814Y-95014334D01*
X100349999Y-94847797D01*
X100360500Y-94745009D01*
X100360499Y-93244992D01*
X100349999Y-93142203D01*
X100326781Y-93072135D01*
X125424500Y-93072135D01*
X125424500Y-94617870D01*
X125424501Y-94617876D01*
X125430908Y-94677483D01*
X125481202Y-94812328D01*
X125481206Y-94812335D01*
X125567452Y-94927544D01*
X125567455Y-94927547D01*
X125682664Y-95013793D01*
X125682671Y-95013797D01*
X125817517Y-95064091D01*
X125817516Y-95064091D01*
X125822549Y-95064632D01*
X125877127Y-95070500D01*
X127972872Y-95070499D01*
X128032483Y-95064091D01*
X128167331Y-95013796D01*
X128282546Y-94927546D01*
X128368796Y-94812331D01*
X128419091Y-94677483D01*
X128425500Y-94617873D01*
X128425499Y-93072135D01*
X133724500Y-93072135D01*
X133724500Y-94617870D01*
X133724501Y-94617876D01*
X133730908Y-94677483D01*
X133781202Y-94812328D01*
X133781206Y-94812335D01*
X133867452Y-94927544D01*
X133867455Y-94927547D01*
X133982664Y-95013793D01*
X133982671Y-95013797D01*
X134117517Y-95064091D01*
X134117516Y-95064091D01*
X134122549Y-95064632D01*
X134177127Y-95070500D01*
X136272872Y-95070499D01*
X136332483Y-95064091D01*
X136467331Y-95013796D01*
X136582546Y-94927546D01*
X136668796Y-94812331D01*
X136719091Y-94677483D01*
X136725500Y-94617873D01*
X136725499Y-93072128D01*
X136719091Y-93012517D01*
X136705347Y-92975668D01*
X136668797Y-92877671D01*
X136668793Y-92877664D01*
X136582547Y-92762455D01*
X136582544Y-92762452D01*
X136467335Y-92676206D01*
X136467328Y-92676202D01*
X136332482Y-92625908D01*
X136332483Y-92625908D01*
X136272883Y-92619501D01*
X136272881Y-92619500D01*
X136272873Y-92619500D01*
X136272864Y-92619500D01*
X134177129Y-92619500D01*
X134177123Y-92619501D01*
X134117516Y-92625908D01*
X133982671Y-92676202D01*
X133982664Y-92676206D01*
X133867455Y-92762452D01*
X133867452Y-92762455D01*
X133781206Y-92877664D01*
X133781202Y-92877671D01*
X133730908Y-93012517D01*
X133724501Y-93072116D01*
X133724501Y-93072123D01*
X133724500Y-93072135D01*
X128425499Y-93072135D01*
X128425499Y-93072128D01*
X128419091Y-93012517D01*
X128405347Y-92975668D01*
X128368797Y-92877671D01*
X128368793Y-92877664D01*
X128282547Y-92762455D01*
X128282544Y-92762452D01*
X128167335Y-92676206D01*
X128167328Y-92676202D01*
X128032482Y-92625908D01*
X128032483Y-92625908D01*
X127972883Y-92619501D01*
X127972881Y-92619500D01*
X127972873Y-92619500D01*
X127972864Y-92619500D01*
X125877129Y-92619500D01*
X125877123Y-92619501D01*
X125817516Y-92625908D01*
X125682671Y-92676202D01*
X125682664Y-92676206D01*
X125567455Y-92762452D01*
X125567452Y-92762455D01*
X125481206Y-92877664D01*
X125481202Y-92877671D01*
X125430908Y-93012517D01*
X125424501Y-93072116D01*
X125424501Y-93072123D01*
X125424500Y-93072135D01*
X100326781Y-93072135D01*
X100294814Y-92975666D01*
X100202712Y-92826344D01*
X100078656Y-92702288D01*
X99944436Y-92619501D01*
X99929336Y-92610187D01*
X99929331Y-92610185D01*
X99927862Y-92609698D01*
X99762797Y-92555001D01*
X99762795Y-92555000D01*
X99660010Y-92544500D01*
X99009998Y-92544500D01*
X99009980Y-92544501D01*
X98907203Y-92555000D01*
X98907200Y-92555001D01*
X98740668Y-92610185D01*
X98740663Y-92610187D01*
X98591342Y-92702289D01*
X98467289Y-92826342D01*
X98375187Y-92975663D01*
X98375186Y-92975666D01*
X98320001Y-93142203D01*
X98320001Y-93142204D01*
X98320000Y-93142204D01*
X98309500Y-93244983D01*
X97222086Y-93244983D01*
X97225190Y-91990558D01*
X97213771Y-91882459D01*
X97202565Y-91830641D01*
X97201170Y-91826442D01*
X97178655Y-91758656D01*
X97168305Y-91727496D01*
X97090517Y-91606457D01*
X97052191Y-91562226D01*
X97044768Y-91553659D01*
X97044764Y-91553656D01*
X97044762Y-91553653D01*
X96936028Y-91459433D01*
X96936025Y-91459431D01*
X96936023Y-91459430D01*
X96805157Y-91399664D01*
X96805152Y-91399662D01*
X96805151Y-91399662D01*
X96748298Y-91382968D01*
X96738109Y-91379976D01*
X96674189Y-91370786D01*
X96595692Y-91359500D01*
X90828386Y-91359500D01*
X90828379Y-91359500D01*
X90735441Y-91369375D01*
X90722164Y-91370786D01*
X90691336Y-91377411D01*
X90671217Y-91381736D01*
X90671209Y-91381738D01*
X90569728Y-91415095D01*
X90569718Y-91415100D01*
X90448301Y-91492283D01*
X90395266Y-91537779D01*
X90395263Y-91537782D01*
X90300514Y-91646040D01*
X90240093Y-91776623D01*
X90220075Y-91843570D01*
X90214940Y-91878066D01*
X90185599Y-91941476D01*
X90126633Y-91978957D01*
X90056764Y-91978608D01*
X90021173Y-91961384D01*
X89908439Y-91882447D01*
X89885185Y-91866164D01*
X89871594Y-91859827D01*
X89819155Y-91813654D01*
X89800000Y-91747445D01*
X89800000Y-90833842D01*
X91310000Y-90833842D01*
X91310000Y-90862500D01*
X91870000Y-90862500D01*
X91870000Y-90247269D01*
X92370000Y-90247269D01*
X92370000Y-90862500D01*
X93040000Y-90862500D01*
X93040000Y-90247269D01*
X93540000Y-90247269D01*
X93540000Y-90862500D01*
X94200000Y-90862500D01*
X94700000Y-90862500D01*
X95260000Y-90862500D01*
X95260000Y-90833857D01*
X95259999Y-90833842D01*
X95257078Y-90796722D01*
X95257077Y-90796716D01*
X95210908Y-90637805D01*
X95210907Y-90637802D01*
X95126666Y-90495357D01*
X95126660Y-90495349D01*
X95009650Y-90378339D01*
X95009642Y-90378333D01*
X94867197Y-90294092D01*
X94867194Y-90294090D01*
X94708280Y-90247921D01*
X94708281Y-90247921D01*
X94700000Y-90247269D01*
X94700000Y-90862500D01*
X94200000Y-90862500D01*
X94200000Y-90247269D01*
X94191718Y-90247921D01*
X94032805Y-90294090D01*
X94032802Y-90294092D01*
X93933121Y-90353043D01*
X93865396Y-90370226D01*
X93806879Y-90353043D01*
X93707197Y-90294092D01*
X93707194Y-90294090D01*
X93548280Y-90247921D01*
X93548281Y-90247921D01*
X93540000Y-90247269D01*
X93040000Y-90247269D01*
X93031718Y-90247921D01*
X92872805Y-90294090D01*
X92872802Y-90294092D01*
X92768121Y-90356000D01*
X92700397Y-90373183D01*
X92641879Y-90356000D01*
X92537197Y-90294092D01*
X92537194Y-90294090D01*
X92378280Y-90247921D01*
X92378281Y-90247921D01*
X92370000Y-90247269D01*
X91870000Y-90247269D01*
X91861718Y-90247921D01*
X91702805Y-90294090D01*
X91702802Y-90294092D01*
X91560357Y-90378333D01*
X91560349Y-90378339D01*
X91443339Y-90495349D01*
X91443333Y-90495357D01*
X91359092Y-90637802D01*
X91359091Y-90637805D01*
X91312922Y-90796716D01*
X91312921Y-90796722D01*
X91310000Y-90833842D01*
X89800000Y-90833842D01*
X89800000Y-89406347D01*
X89819685Y-89339308D01*
X89872489Y-89293553D01*
X89921316Y-89282376D01*
X89947820Y-89281803D01*
X90015269Y-89300034D01*
X90062154Y-89351836D01*
X90074500Y-89405773D01*
X90074500Y-89633388D01*
X90080546Y-89699926D01*
X90080548Y-89699933D01*
X90128265Y-89853066D01*
X90128267Y-89853070D01*
X90211242Y-89990329D01*
X90211246Y-89990334D01*
X90211247Y-89990335D01*
X90324665Y-90103753D01*
X90425361Y-90164625D01*
X90427075Y-90165683D01*
X90459477Y-90186042D01*
X90570475Y-90255788D01*
X90740745Y-90315368D01*
X90740750Y-90315369D01*
X90919996Y-90335565D01*
X90920000Y-90335565D01*
X90920004Y-90335565D01*
X91099249Y-90315369D01*
X91099252Y-90315368D01*
X91099255Y-90315368D01*
X91269522Y-90255789D01*
X91422262Y-90159816D01*
X91549816Y-90032262D01*
X91564343Y-90009139D01*
X91574439Y-89996483D01*
X91574127Y-89996239D01*
X91578749Y-89990338D01*
X91578753Y-89990335D01*
X91644047Y-89882323D01*
X91645054Y-89880689D01*
X91645789Y-89879522D01*
X91645790Y-89879516D01*
X91647942Y-89876096D01*
X91649053Y-89874043D01*
X91661733Y-89853069D01*
X91709452Y-89699933D01*
X91715500Y-89633381D01*
X91715499Y-89626293D01*
X91716278Y-89612412D01*
X91725565Y-89530000D01*
X91724198Y-89517872D01*
X91716279Y-89447589D01*
X91715499Y-89433704D01*
X91715499Y-89137496D01*
X98726935Y-89137496D01*
X98726935Y-89137503D01*
X98747130Y-89316749D01*
X98747131Y-89316754D01*
X98806711Y-89487023D01*
X98898672Y-89633377D01*
X98902684Y-89639762D01*
X99030238Y-89767316D01*
X99182978Y-89863289D01*
X99328637Y-89914257D01*
X99385413Y-89954979D01*
X99410903Y-90017415D01*
X99424630Y-90139250D01*
X99424631Y-90139254D01*
X99484211Y-90309523D01*
X99572051Y-90449319D01*
X99580184Y-90462262D01*
X99707738Y-90589816D01*
X99784107Y-90637802D01*
X99835343Y-90669996D01*
X99860478Y-90685789D01*
X100030745Y-90745368D01*
X100030749Y-90745369D01*
X100104853Y-90753718D01*
X100169267Y-90780784D01*
X100208010Y-90835980D01*
X100214653Y-90854962D01*
X100214655Y-90854967D01*
X100221803Y-90866343D01*
X100310627Y-91007705D01*
X100438181Y-91135259D01*
X100590921Y-91231232D01*
X100761188Y-91290811D01*
X100761193Y-91290812D01*
X100940439Y-91311008D01*
X100940443Y-91311008D01*
X100940447Y-91311008D01*
X101119692Y-91290812D01*
X101119695Y-91290811D01*
X101119698Y-91290811D01*
X101289965Y-91231232D01*
X101442705Y-91135259D01*
X101519575Y-91058389D01*
X101580898Y-91024904D01*
X101592540Y-91023652D01*
X101592458Y-91022974D01*
X101599901Y-91022070D01*
X101599903Y-91022070D01*
X101755641Y-90983684D01*
X101897667Y-90909143D01*
X101949002Y-90866360D01*
X102303800Y-90511560D01*
X102346585Y-90460225D01*
X102421126Y-90318199D01*
X102438818Y-90246419D01*
X102473971Y-90186042D01*
X102529540Y-90155699D01*
X102600451Y-90138222D01*
X102600453Y-90138221D01*
X102742372Y-90063735D01*
X102793663Y-90020990D01*
X102793682Y-90020972D01*
X102794264Y-90020391D01*
X102037659Y-89263786D01*
X102744766Y-89263786D01*
X102744766Y-89263787D01*
X103147816Y-89666838D01*
X103148398Y-89666256D01*
X103148416Y-89666237D01*
X103191161Y-89614946D01*
X103265647Y-89473027D01*
X103304004Y-89317409D01*
X103304004Y-89157131D01*
X103265648Y-89001516D01*
X103191159Y-88859590D01*
X103191158Y-88859589D01*
X103171976Y-88836574D01*
X102744766Y-89263786D01*
X102037659Y-89263786D01*
X101636010Y-88862137D01*
X101578176Y-88845155D01*
X101557534Y-88828521D01*
X101307764Y-88578751D01*
X101286793Y-88540346D01*
X101257733Y-88511286D01*
X101992266Y-88511286D01*
X101992266Y-88511287D01*
X102391213Y-88910234D01*
X102391214Y-88910234D01*
X102536451Y-88764996D01*
X106434435Y-88764996D01*
X106434435Y-88765003D01*
X106454630Y-88944249D01*
X106454631Y-88944254D01*
X106514211Y-89114523D01*
X106610184Y-89267262D01*
X106737738Y-89394816D01*
X106890478Y-89490789D01*
X107060745Y-89550368D01*
X107066847Y-89551055D01*
X107131262Y-89578116D01*
X107140653Y-89586595D01*
X108981725Y-91427667D01*
X109015210Y-91488990D01*
X109017264Y-91501464D01*
X109027057Y-91588383D01*
X109086637Y-91758655D01*
X109129231Y-91826442D01*
X109182611Y-91911396D01*
X109310165Y-92038950D01*
X109462905Y-92134923D01*
X109633172Y-92194502D01*
X109720095Y-92204295D01*
X109783010Y-92230731D01*
X109783132Y-92230574D01*
X109783733Y-92231035D01*
X109784506Y-92231360D01*
X109786485Y-92233147D01*
X109789574Y-92235517D01*
X109789577Y-92235520D01*
X109789580Y-92235521D01*
X109789583Y-92235524D01*
X109926502Y-92314573D01*
X109926509Y-92314577D01*
X110038312Y-92344534D01*
X110079235Y-92355500D01*
X110079236Y-92355500D01*
X125573987Y-92355500D01*
X125574003Y-92355501D01*
X125737426Y-92355501D01*
X125751310Y-92356281D01*
X125853431Y-92367788D01*
X125853433Y-92367788D01*
X125853436Y-92367788D01*
X126032682Y-92347592D01*
X126032685Y-92347591D01*
X126032688Y-92347591D01*
X126202955Y-92288012D01*
X126355695Y-92192039D01*
X126483249Y-92064485D01*
X126579222Y-91911745D01*
X126638801Y-91741478D01*
X126638802Y-91741472D01*
X126658998Y-91562226D01*
X126658998Y-91562219D01*
X126638802Y-91382973D01*
X126638801Y-91382968D01*
X126609705Y-91299816D01*
X126579222Y-91212701D01*
X126553812Y-91172262D01*
X126483248Y-91059960D01*
X126355695Y-90932407D01*
X126202957Y-90836435D01*
X126202953Y-90836433D01*
X126192587Y-90832806D01*
X126135811Y-90792084D01*
X126116501Y-90756721D01*
X126062383Y-90602060D01*
X125966410Y-90449320D01*
X125838856Y-90321766D01*
X125828674Y-90315368D01*
X125686117Y-90225793D01*
X125515848Y-90166213D01*
X125515844Y-90166212D01*
X125374499Y-90150287D01*
X125310085Y-90123220D01*
X125283390Y-90093040D01*
X125265236Y-90064148D01*
X125137681Y-89936593D01*
X124984942Y-89840620D01*
X124814673Y-89781040D01*
X124814668Y-89781039D01*
X124635423Y-89760844D01*
X124635415Y-89760844D01*
X124456169Y-89781039D01*
X124456164Y-89781040D01*
X124285895Y-89840620D01*
X124133156Y-89936593D01*
X124005603Y-90064146D01*
X123909629Y-90216887D01*
X123890536Y-90271454D01*
X123849814Y-90328230D01*
X123784861Y-90353978D01*
X123773494Y-90354500D01*
X111390097Y-90354500D01*
X111323058Y-90334815D01*
X111302416Y-90318181D01*
X110731163Y-89746928D01*
X110697678Y-89685605D01*
X110695626Y-89673149D01*
X110685831Y-89586208D01*
X110626252Y-89415941D01*
X110530279Y-89263201D01*
X110421292Y-89154214D01*
X113378003Y-89154214D01*
X113405111Y-89231683D01*
X113495030Y-89374789D01*
X113614539Y-89494298D01*
X113757641Y-89584216D01*
X113835114Y-89611324D01*
X113835115Y-89611324D01*
X114335115Y-89611324D01*
X114412588Y-89584216D01*
X114555690Y-89494298D01*
X114675199Y-89374789D01*
X114765118Y-89231683D01*
X114792226Y-89154214D01*
X114335115Y-89154214D01*
X114335115Y-89611324D01*
X113835115Y-89611324D01*
X113835115Y-89154214D01*
X113378003Y-89154214D01*
X110421292Y-89154214D01*
X110402725Y-89135647D01*
X110396302Y-89131611D01*
X110249984Y-89039673D01*
X110079712Y-88980093D01*
X109992793Y-88970300D01*
X109928379Y-88943233D01*
X109918996Y-88934761D01*
X109725704Y-88741469D01*
X109692219Y-88680146D01*
X109690165Y-88667670D01*
X109680372Y-88580750D01*
X109680371Y-88580745D01*
X109666777Y-88541895D01*
X109633609Y-88447107D01*
X112670896Y-88447107D01*
X112698004Y-88524576D01*
X112787923Y-88667682D01*
X112907432Y-88787191D01*
X113050534Y-88877109D01*
X113128007Y-88904217D01*
X113128008Y-88904217D01*
X113128008Y-88884323D01*
X113985115Y-88884323D01*
X113985115Y-88924105D01*
X114000339Y-88960859D01*
X114028470Y-88988990D01*
X114065224Y-89004214D01*
X114105006Y-89004214D01*
X114141760Y-88988990D01*
X114169891Y-88960859D01*
X114185115Y-88924105D01*
X114185115Y-88904217D01*
X115042222Y-88904217D01*
X115119695Y-88877109D01*
X115262797Y-88787191D01*
X115382306Y-88667682D01*
X115472225Y-88524576D01*
X115499333Y-88447107D01*
X115042222Y-88447107D01*
X115042222Y-88904217D01*
X114185115Y-88904217D01*
X114185115Y-88884323D01*
X114169891Y-88847569D01*
X114141760Y-88819438D01*
X114105006Y-88804214D01*
X114065224Y-88804214D01*
X114028470Y-88819438D01*
X114000339Y-88847569D01*
X113985115Y-88884323D01*
X113128008Y-88884323D01*
X113128008Y-88654214D01*
X113628008Y-88654214D01*
X113835115Y-88654214D01*
X114335115Y-88654214D01*
X114542222Y-88654214D01*
X114542222Y-88447107D01*
X114335115Y-88447107D01*
X114335115Y-88654214D01*
X113835115Y-88654214D01*
X113835115Y-88447107D01*
X113628008Y-88447107D01*
X113628008Y-88654214D01*
X113128008Y-88654214D01*
X113128008Y-88447107D01*
X112670896Y-88447107D01*
X109633609Y-88447107D01*
X109620792Y-88410478D01*
X109604784Y-88385002D01*
X109535530Y-88274785D01*
X109524819Y-88257738D01*
X109397265Y-88130184D01*
X109347130Y-88098682D01*
X109244526Y-88034211D01*
X109074257Y-87974631D01*
X109074252Y-87974630D01*
X108895007Y-87954435D01*
X108894999Y-87954435D01*
X108715753Y-87974630D01*
X108715740Y-87974633D01*
X108538909Y-88036510D01*
X108538160Y-88034369D01*
X108479824Y-88043958D01*
X108451408Y-88035611D01*
X108451094Y-88036510D01*
X108274262Y-87974633D01*
X108274249Y-87974630D01*
X108095004Y-87954435D01*
X108094996Y-87954435D01*
X107915750Y-87974630D01*
X107915737Y-87974633D01*
X107745482Y-88034208D01*
X107741819Y-88036510D01*
X107729490Y-88044256D01*
X107662255Y-88063255D01*
X107597550Y-88044255D01*
X107589522Y-88039211D01*
X107589520Y-88039210D01*
X107589518Y-88039209D01*
X107419262Y-87979633D01*
X107419249Y-87979630D01*
X107240004Y-87959435D01*
X107239996Y-87959435D01*
X107060750Y-87979630D01*
X107060745Y-87979631D01*
X106890476Y-88039211D01*
X106737737Y-88135184D01*
X106610184Y-88262737D01*
X106514211Y-88415476D01*
X106454631Y-88585745D01*
X106454630Y-88585750D01*
X106434435Y-88764996D01*
X102536451Y-88764996D01*
X102818423Y-88483022D01*
X102818423Y-88483021D01*
X102795410Y-88463841D01*
X102795409Y-88463840D01*
X102653483Y-88389352D01*
X102589122Y-88373488D01*
X102528742Y-88338331D01*
X102498694Y-88283928D01*
X102489987Y-88250018D01*
X102410261Y-88104998D01*
X102404867Y-88098682D01*
X101992266Y-88511286D01*
X101257733Y-88511286D01*
X100531446Y-87784999D01*
X101238553Y-87784999D01*
X101238553Y-87785000D01*
X101624998Y-88171446D01*
X102051315Y-87745129D01*
X102045310Y-87740000D01*
X111963789Y-87740000D01*
X111990897Y-87817469D01*
X112080816Y-87960575D01*
X112200325Y-88080084D01*
X112343427Y-88170002D01*
X112420900Y-88197110D01*
X112420901Y-88197110D01*
X112420901Y-88177216D01*
X113278008Y-88177216D01*
X113278008Y-88216998D01*
X113293232Y-88253752D01*
X113321363Y-88281883D01*
X113358117Y-88297107D01*
X113397899Y-88297107D01*
X113434653Y-88281883D01*
X113462784Y-88253752D01*
X113478008Y-88216998D01*
X113478008Y-88177216D01*
X114692222Y-88177216D01*
X114692222Y-88216998D01*
X114707446Y-88253752D01*
X114735577Y-88281883D01*
X114772331Y-88297107D01*
X114812113Y-88297107D01*
X114848867Y-88281883D01*
X114876998Y-88253752D01*
X114892222Y-88216998D01*
X114892222Y-88197110D01*
X115749329Y-88197110D01*
X115826802Y-88170002D01*
X115969904Y-88080084D01*
X116089413Y-87960575D01*
X116179332Y-87817469D01*
X116206440Y-87740000D01*
X115749329Y-87740000D01*
X115749329Y-88197110D01*
X114892222Y-88197110D01*
X114892222Y-88177216D01*
X114876998Y-88140462D01*
X114848867Y-88112331D01*
X114812113Y-88097107D01*
X114772331Y-88097107D01*
X114735577Y-88112331D01*
X114707446Y-88140462D01*
X114692222Y-88177216D01*
X113478008Y-88177216D01*
X113462784Y-88140462D01*
X113434653Y-88112331D01*
X113397899Y-88097107D01*
X113358117Y-88097107D01*
X113321363Y-88112331D01*
X113293232Y-88140462D01*
X113278008Y-88177216D01*
X112420901Y-88177216D01*
X112420901Y-87947107D01*
X112920901Y-87947107D01*
X113128008Y-87947107D01*
X113628008Y-87947107D01*
X113835115Y-87947107D01*
X114335115Y-87947107D01*
X114542222Y-87947107D01*
X115042222Y-87947107D01*
X115249329Y-87947107D01*
X115249329Y-87740000D01*
X115042222Y-87740000D01*
X115042222Y-87947107D01*
X114542222Y-87947107D01*
X114542222Y-87740000D01*
X114335115Y-87740000D01*
X114335115Y-87947107D01*
X113835115Y-87947107D01*
X113835115Y-87740000D01*
X113628008Y-87740000D01*
X113628008Y-87947107D01*
X113128008Y-87947107D01*
X113128008Y-87740000D01*
X112920901Y-87740000D01*
X112920901Y-87947107D01*
X112420901Y-87947107D01*
X112420901Y-87740000D01*
X111963789Y-87740000D01*
X102045310Y-87740000D01*
X102045006Y-87739740D01*
X102044999Y-87739735D01*
X101899980Y-87660012D01*
X101899976Y-87660011D01*
X101863387Y-87650616D01*
X101803349Y-87614877D01*
X101774121Y-87561349D01*
X101758703Y-87501299D01*
X101741556Y-87470109D01*
X112570901Y-87470109D01*
X112570901Y-87509891D01*
X112586125Y-87546645D01*
X112614256Y-87574776D01*
X112651010Y-87590000D01*
X112690792Y-87590000D01*
X112727546Y-87574776D01*
X112755677Y-87546645D01*
X112770901Y-87509891D01*
X112770901Y-87470109D01*
X113985115Y-87470109D01*
X113985115Y-87509891D01*
X114000339Y-87546645D01*
X114028470Y-87574776D01*
X114065224Y-87590000D01*
X114105006Y-87590000D01*
X114141760Y-87574776D01*
X114169891Y-87546645D01*
X114185115Y-87509891D01*
X114185115Y-87470109D01*
X115399329Y-87470109D01*
X115399329Y-87509891D01*
X115414553Y-87546645D01*
X115442684Y-87574776D01*
X115479438Y-87590000D01*
X115519220Y-87590000D01*
X115555974Y-87574776D01*
X115584105Y-87546645D01*
X115599329Y-87509891D01*
X115599329Y-87470109D01*
X115584105Y-87433355D01*
X115555974Y-87405224D01*
X115519220Y-87390000D01*
X115479438Y-87390000D01*
X115442684Y-87405224D01*
X115414553Y-87433355D01*
X115399329Y-87470109D01*
X114185115Y-87470109D01*
X114169891Y-87433355D01*
X114141760Y-87405224D01*
X114105006Y-87390000D01*
X114065224Y-87390000D01*
X114028470Y-87405224D01*
X114000339Y-87433355D01*
X113985115Y-87470109D01*
X112770901Y-87470109D01*
X112755677Y-87433355D01*
X112727546Y-87405224D01*
X112690792Y-87390000D01*
X112651010Y-87390000D01*
X112614256Y-87405224D01*
X112586125Y-87433355D01*
X112570901Y-87470109D01*
X101741556Y-87470109D01*
X101678978Y-87356281D01*
X101673584Y-87349965D01*
X101238553Y-87784999D01*
X100531446Y-87784999D01*
X100135467Y-87389020D01*
X100135466Y-87389020D01*
X100115222Y-87409263D01*
X100115206Y-87409280D01*
X100091021Y-87437597D01*
X100091018Y-87437601D01*
X100011293Y-87582622D01*
X100002859Y-87615469D01*
X99967119Y-87675505D01*
X99913596Y-87704731D01*
X99879871Y-87713390D01*
X99879865Y-87713392D01*
X99734739Y-87793175D01*
X99734739Y-87793176D01*
X99706398Y-87817381D01*
X99706394Y-87817385D01*
X99312246Y-88211536D01*
X99288045Y-88239869D01*
X99214647Y-88373380D01*
X99171957Y-88418636D01*
X99030237Y-88507684D01*
X98902684Y-88635237D01*
X98806711Y-88787976D01*
X98747131Y-88958245D01*
X98747130Y-88958250D01*
X98726935Y-89137496D01*
X91715499Y-89137496D01*
X91715499Y-89131611D01*
X91709453Y-89065073D01*
X91709452Y-89065070D01*
X91709452Y-89065067D01*
X91665976Y-88925546D01*
X91661734Y-88911933D01*
X91660707Y-88910234D01*
X91623779Y-88849149D01*
X91605944Y-88781595D01*
X91623780Y-88720850D01*
X91629863Y-88710788D01*
X91661733Y-88658069D01*
X91698164Y-88541154D01*
X91728866Y-88490367D01*
X91934241Y-88284993D01*
X91934246Y-88284989D01*
X91944449Y-88274785D01*
X91944451Y-88274785D01*
X92056255Y-88162981D01*
X92085498Y-88112331D01*
X92109196Y-88071285D01*
X92109197Y-88071283D01*
X92135309Y-88026055D01*
X92135308Y-88026055D01*
X92135312Y-88026050D01*
X92176235Y-87873323D01*
X92176235Y-87866505D01*
X92195920Y-87799466D01*
X92212591Y-87778786D01*
X93434366Y-86558143D01*
X96384841Y-86558143D01*
X96384841Y-86558150D01*
X96405036Y-86737396D01*
X96405037Y-86737401D01*
X96464617Y-86907670D01*
X96560590Y-87060409D01*
X96572894Y-87072713D01*
X96606379Y-87134036D01*
X96609213Y-87160394D01*
X96609213Y-87259210D01*
X96647598Y-87414948D01*
X96722141Y-87556977D01*
X96736975Y-87574776D01*
X96764923Y-87608310D01*
X96764928Y-87608315D01*
X96764929Y-87608316D01*
X97066686Y-87910071D01*
X97066697Y-87910082D01*
X97106617Y-87943352D01*
X97118025Y-87952860D01*
X97260051Y-88027401D01*
X97260053Y-88027401D01*
X97260054Y-88027402D01*
X97415789Y-88065787D01*
X97576186Y-88065787D01*
X97731924Y-88027401D01*
X97873950Y-87952860D01*
X97925285Y-87910077D01*
X98280083Y-87555277D01*
X98322868Y-87503942D01*
X98397409Y-87361916D01*
X98415101Y-87290136D01*
X98450254Y-87229759D01*
X98505823Y-87199416D01*
X98576734Y-87181939D01*
X98576736Y-87181938D01*
X98718655Y-87107452D01*
X98769946Y-87064707D01*
X98769965Y-87064689D01*
X98770547Y-87064108D01*
X98741905Y-87035466D01*
X100489019Y-87035466D01*
X100885000Y-87431446D01*
X100885001Y-87431446D01*
X101076447Y-87239999D01*
X111963789Y-87239999D01*
X111963789Y-87240000D01*
X112420901Y-87240000D01*
X112920901Y-87240000D01*
X113128008Y-87240000D01*
X113628008Y-87240000D01*
X113835115Y-87240000D01*
X114335115Y-87240000D01*
X114542222Y-87240000D01*
X115042222Y-87240000D01*
X115249329Y-87240000D01*
X115749329Y-87240000D01*
X116206441Y-87240000D01*
X116206440Y-87239999D01*
X116179332Y-87162530D01*
X116089413Y-87019424D01*
X115969904Y-86899915D01*
X115826798Y-86809996D01*
X115749329Y-86782888D01*
X115749329Y-87240000D01*
X115249329Y-87240000D01*
X115249329Y-87032893D01*
X115042222Y-87032893D01*
X115042222Y-87240000D01*
X114542222Y-87240000D01*
X114542222Y-87032893D01*
X114335115Y-87032893D01*
X114335115Y-87240000D01*
X113835115Y-87240000D01*
X113835115Y-87032893D01*
X113628008Y-87032893D01*
X113628008Y-87240000D01*
X113128008Y-87240000D01*
X113128008Y-87032893D01*
X112920901Y-87032893D01*
X112920901Y-87240000D01*
X112420901Y-87240000D01*
X112420901Y-86782888D01*
X112420900Y-86782888D01*
X112343431Y-86809996D01*
X112200325Y-86899915D01*
X112080816Y-87019424D01*
X111990897Y-87162530D01*
X111963789Y-87239999D01*
X101076447Y-87239999D01*
X101320032Y-86996412D01*
X101313723Y-86991023D01*
X101313712Y-86991016D01*
X101168699Y-86911295D01*
X101008406Y-86870138D01*
X100842910Y-86870138D01*
X100682617Y-86911295D01*
X100537601Y-86991018D01*
X100537598Y-86991020D01*
X100509277Y-87015208D01*
X100489019Y-87035466D01*
X98741905Y-87035466D01*
X98469441Y-86763002D01*
X113278008Y-86763002D01*
X113278008Y-86802784D01*
X113293232Y-86839538D01*
X113321363Y-86867669D01*
X113358117Y-86882893D01*
X113397899Y-86882893D01*
X113434653Y-86867669D01*
X113462784Y-86839538D01*
X113478008Y-86802784D01*
X113478008Y-86763002D01*
X114692222Y-86763002D01*
X114692222Y-86802784D01*
X114707446Y-86839538D01*
X114735577Y-86867669D01*
X114772331Y-86882893D01*
X114812113Y-86882893D01*
X114848867Y-86867669D01*
X114876998Y-86839538D01*
X114892222Y-86802784D01*
X114892222Y-86763002D01*
X114876998Y-86726248D01*
X114848867Y-86698117D01*
X114812113Y-86682893D01*
X114772331Y-86682893D01*
X114735577Y-86698117D01*
X114707446Y-86726248D01*
X114692222Y-86763002D01*
X113478008Y-86763002D01*
X113462784Y-86726248D01*
X113434653Y-86698117D01*
X113397899Y-86682893D01*
X113358117Y-86682893D01*
X113321363Y-86698117D01*
X113293232Y-86726248D01*
X113278008Y-86763002D01*
X98469441Y-86763002D01*
X98013942Y-86307503D01*
X98721049Y-86307503D01*
X98721049Y-86307504D01*
X99124099Y-86710555D01*
X99124681Y-86709973D01*
X99124699Y-86709954D01*
X99167444Y-86658663D01*
X99233455Y-86532892D01*
X112670896Y-86532892D01*
X112670896Y-86532893D01*
X113128008Y-86532893D01*
X113628008Y-86532893D01*
X113835115Y-86532893D01*
X114335115Y-86532893D01*
X114542222Y-86532893D01*
X115042222Y-86532893D01*
X115499334Y-86532893D01*
X115499333Y-86532892D01*
X115472225Y-86455423D01*
X115382306Y-86312317D01*
X115262797Y-86192808D01*
X115119691Y-86102889D01*
X115042222Y-86075781D01*
X115042222Y-86532893D01*
X114542222Y-86532893D01*
X114542222Y-86325786D01*
X114335115Y-86325786D01*
X114335115Y-86532893D01*
X113835115Y-86532893D01*
X113835115Y-86325786D01*
X113628008Y-86325786D01*
X113628008Y-86532893D01*
X113128008Y-86532893D01*
X113128008Y-86075781D01*
X113128007Y-86075781D01*
X113050538Y-86102889D01*
X112907432Y-86192808D01*
X112787923Y-86312317D01*
X112698004Y-86455423D01*
X112670896Y-86532892D01*
X99233455Y-86532892D01*
X99241930Y-86516744D01*
X99280287Y-86361126D01*
X99280287Y-86200848D01*
X99244559Y-86055895D01*
X113985115Y-86055895D01*
X113985115Y-86095677D01*
X114000339Y-86132431D01*
X114028470Y-86160562D01*
X114065224Y-86175786D01*
X114105006Y-86175786D01*
X114141760Y-86160562D01*
X114169891Y-86132431D01*
X114185115Y-86095677D01*
X114185115Y-86055895D01*
X114169891Y-86019141D01*
X114141760Y-85991010D01*
X114105006Y-85975786D01*
X114065224Y-85975786D01*
X114028470Y-85991010D01*
X114000339Y-86019141D01*
X113985115Y-86055895D01*
X99244559Y-86055895D01*
X99241931Y-86045233D01*
X99167442Y-85903307D01*
X99167441Y-85903306D01*
X99148259Y-85880291D01*
X98721049Y-86307503D01*
X98013942Y-86307503D01*
X97927987Y-86221548D01*
X97910674Y-86199839D01*
X97906256Y-86192808D01*
X97820222Y-86055885D01*
X97692668Y-85928331D01*
X97616213Y-85880291D01*
X97539929Y-85832358D01*
X97369660Y-85772778D01*
X97369655Y-85772777D01*
X97190410Y-85752582D01*
X97190402Y-85752582D01*
X97011156Y-85772777D01*
X97011151Y-85772778D01*
X96840882Y-85832358D01*
X96688143Y-85928331D01*
X96560590Y-86055884D01*
X96464617Y-86208623D01*
X96405037Y-86378892D01*
X96405036Y-86378897D01*
X96384841Y-86558143D01*
X93434366Y-86558143D01*
X94442543Y-85550900D01*
X97964445Y-85550900D01*
X98367496Y-85953951D01*
X98367497Y-85953951D01*
X98794706Y-85526739D01*
X98794706Y-85526738D01*
X98771693Y-85507558D01*
X98771692Y-85507557D01*
X98629766Y-85433068D01*
X98474152Y-85394713D01*
X98313873Y-85394713D01*
X98158255Y-85433069D01*
X98016336Y-85507555D01*
X97965045Y-85550300D01*
X97965026Y-85550318D01*
X97964445Y-85550900D01*
X94442543Y-85550900D01*
X96032466Y-83962451D01*
X96093804Y-83928997D01*
X96163493Y-83934013D01*
X96207640Y-83962347D01*
X97614999Y-85365000D01*
X97614999Y-85364999D01*
X97615000Y-85365000D01*
X100285000Y-82690000D01*
X99490060Y-81895060D01*
X99456575Y-81833737D01*
X99461559Y-81764046D01*
X99503431Y-81708112D01*
X99511769Y-81702385D01*
X99551373Y-81677500D01*
X99627262Y-81629816D01*
X99754816Y-81502262D01*
X99850789Y-81349522D01*
X99910368Y-81179255D01*
X99910369Y-81179249D01*
X99930565Y-81000003D01*
X99930565Y-80999996D01*
X99910369Y-80820750D01*
X99910368Y-80820745D01*
X99880488Y-80735352D01*
X99850789Y-80650478D01*
X99850316Y-80649726D01*
X99803131Y-80574631D01*
X99775578Y-80530781D01*
X104939436Y-80530781D01*
X104939436Y-80530788D01*
X104959631Y-80710034D01*
X104959632Y-80710039D01*
X105019212Y-80880308D01*
X105064348Y-80952140D01*
X105114359Y-81031733D01*
X105115186Y-81033048D01*
X105117446Y-81035882D01*
X105118335Y-81038060D01*
X105118890Y-81038943D01*
X105118735Y-81039040D01*
X105143856Y-81100568D01*
X105144501Y-81113197D01*
X105144501Y-82463331D01*
X105144500Y-82463349D01*
X105144500Y-82629055D01*
X105144499Y-82629055D01*
X105178565Y-82756190D01*
X105185424Y-82781786D01*
X105204616Y-82815027D01*
X105264480Y-82918715D01*
X105264482Y-82918718D01*
X105383350Y-83037586D01*
X105383356Y-83037591D01*
X107122316Y-84776551D01*
X107155801Y-84837874D01*
X107155527Y-84891819D01*
X107154631Y-84895743D01*
X107134435Y-85074996D01*
X107134435Y-85075003D01*
X107154630Y-85254249D01*
X107154631Y-85254254D01*
X107214211Y-85424523D01*
X107278438Y-85526739D01*
X107310184Y-85577262D01*
X107437738Y-85704816D01*
X107477029Y-85729504D01*
X107581850Y-85795368D01*
X107590478Y-85800789D01*
X107680697Y-85832358D01*
X107760745Y-85860368D01*
X107760750Y-85860369D01*
X107939996Y-85880565D01*
X107940000Y-85880565D01*
X107940004Y-85880565D01*
X108119249Y-85860369D01*
X108119252Y-85860368D01*
X108119255Y-85860368D01*
X108218088Y-85825785D01*
X113378003Y-85825785D01*
X113378003Y-85825786D01*
X113835115Y-85825786D01*
X114335115Y-85825786D01*
X114792227Y-85825786D01*
X114792226Y-85825785D01*
X114786083Y-85808231D01*
X116592670Y-85808231D01*
X116592670Y-85808238D01*
X116612865Y-85987484D01*
X116612866Y-85987489D01*
X116672446Y-86157758D01*
X116744394Y-86272262D01*
X116768419Y-86310497D01*
X116895973Y-86438051D01*
X117048713Y-86534024D01*
X117096011Y-86550574D01*
X117115753Y-86557482D01*
X117172529Y-86598204D01*
X117191840Y-86633569D01*
X117227081Y-86734280D01*
X117270125Y-86802784D01*
X117323056Y-86887023D01*
X117450610Y-87014577D01*
X117458324Y-87019424D01*
X117598419Y-87107452D01*
X117603350Y-87110550D01*
X117745796Y-87160394D01*
X117773617Y-87170129D01*
X117773622Y-87170130D01*
X117952868Y-87190326D01*
X117952872Y-87190326D01*
X117952876Y-87190326D01*
X118132121Y-87170130D01*
X118132124Y-87170129D01*
X118132127Y-87170129D01*
X118302394Y-87110550D01*
X118455134Y-87014577D01*
X118582688Y-86887023D01*
X118678661Y-86734283D01*
X118738240Y-86564016D01*
X118738901Y-86558150D01*
X118758437Y-86384764D01*
X118758437Y-86384757D01*
X118738241Y-86205511D01*
X118738238Y-86205498D01*
X118698744Y-86092631D01*
X118695182Y-86022852D01*
X118728102Y-85963997D01*
X119682104Y-85009996D01*
X120764435Y-85009996D01*
X120764435Y-85010003D01*
X120784630Y-85189249D01*
X120784631Y-85189254D01*
X120844211Y-85359523D01*
X120937042Y-85507262D01*
X120940184Y-85512262D01*
X121067738Y-85639816D01*
X121158080Y-85696582D01*
X121220474Y-85735787D01*
X121220478Y-85735789D01*
X121376450Y-85790366D01*
X121390745Y-85795368D01*
X121390750Y-85795369D01*
X121569996Y-85815565D01*
X121570000Y-85815565D01*
X121570004Y-85815565D01*
X121749249Y-85795369D01*
X121749252Y-85795368D01*
X121749255Y-85795368D01*
X121919522Y-85735789D01*
X121920488Y-85735181D01*
X121929523Y-85729506D01*
X121995494Y-85710500D01*
X123392464Y-85710500D01*
X123453987Y-85728223D01*
X123454206Y-85727769D01*
X123456880Y-85729057D01*
X123458432Y-85729504D01*
X123460478Y-85730789D01*
X123630737Y-85790366D01*
X123630743Y-85790367D01*
X123630745Y-85790368D01*
X123630746Y-85790368D01*
X123630750Y-85790369D01*
X123809996Y-85810565D01*
X123810000Y-85810565D01*
X123810004Y-85810565D01*
X123989249Y-85790369D01*
X123989252Y-85790368D01*
X123989255Y-85790368D01*
X124159522Y-85730789D01*
X124312262Y-85634816D01*
X124439816Y-85507262D01*
X124497329Y-85415731D01*
X127075170Y-85415731D01*
X127075170Y-85415738D01*
X127095365Y-85594984D01*
X127095366Y-85594989D01*
X127154946Y-85765258D01*
X127192978Y-85825785D01*
X127250919Y-85917997D01*
X127378473Y-86045551D01*
X127426584Y-86075781D01*
X127516741Y-86132431D01*
X127531213Y-86141524D01*
X127634719Y-86177742D01*
X127681445Y-86207102D01*
X128888457Y-87414114D01*
X128934409Y-87444817D01*
X128934411Y-87444819D01*
X128934412Y-87444819D01*
X129003189Y-87490775D01*
X129093332Y-87528113D01*
X129130671Y-87543580D01*
X129157591Y-87548934D01*
X129247937Y-87566905D01*
X129266006Y-87570500D01*
X129266007Y-87570500D01*
X129375902Y-87570500D01*
X129442941Y-87590185D01*
X129488696Y-87642989D01*
X129498640Y-87712147D01*
X129469615Y-87775703D01*
X129463583Y-87782181D01*
X128394481Y-88851282D01*
X128394475Y-88851290D01*
X128351605Y-88925545D01*
X128351605Y-88925546D01*
X128315423Y-88988214D01*
X128315423Y-88988215D01*
X128274499Y-89140943D01*
X128274499Y-89140945D01*
X128274499Y-89309046D01*
X128274500Y-89309059D01*
X128274500Y-90087587D01*
X128254815Y-90154626D01*
X128247450Y-90164896D01*
X128245186Y-90167734D01*
X128149211Y-90320476D01*
X128089631Y-90490745D01*
X128089630Y-90490750D01*
X128069435Y-90669996D01*
X128069435Y-90670003D01*
X128089630Y-90849249D01*
X128089631Y-90849254D01*
X128149211Y-91019523D01*
X128221933Y-91135258D01*
X128245184Y-91172262D01*
X128372738Y-91299816D01*
X128390550Y-91311008D01*
X128505073Y-91382968D01*
X128525478Y-91395789D01*
X128580666Y-91415100D01*
X128695745Y-91455368D01*
X128695750Y-91455369D01*
X128874996Y-91475565D01*
X128875000Y-91475565D01*
X128875004Y-91475565D01*
X129054249Y-91455369D01*
X129054252Y-91455368D01*
X129054255Y-91455368D01*
X129224522Y-91395789D01*
X129377262Y-91299816D01*
X129504816Y-91172262D01*
X129600789Y-91019522D01*
X129660368Y-90849255D01*
X129660369Y-90849249D01*
X129680565Y-90670003D01*
X129680565Y-90669996D01*
X129660369Y-90490750D01*
X129660368Y-90490745D01*
X129619231Y-90373183D01*
X129600789Y-90320478D01*
X129504816Y-90167738D01*
X129504814Y-90167736D01*
X129504813Y-90167734D01*
X129502550Y-90164896D01*
X129501659Y-90162715D01*
X129501111Y-90161842D01*
X129501264Y-90161745D01*
X129476144Y-90100209D01*
X129475500Y-90087587D01*
X129475500Y-89520097D01*
X129495185Y-89453058D01*
X129511819Y-89432416D01*
X130337416Y-88606819D01*
X130398739Y-88573334D01*
X130425097Y-88570500D01*
X131250500Y-88570500D01*
X131317539Y-88590185D01*
X131363294Y-88642989D01*
X131374500Y-88694500D01*
X131374500Y-89517870D01*
X131374501Y-89517876D01*
X131380908Y-89577479D01*
X131382692Y-89585026D01*
X131381229Y-89585371D01*
X131385585Y-89646371D01*
X131381173Y-89661396D01*
X131380908Y-89662517D01*
X131375132Y-89716247D01*
X131374501Y-89722123D01*
X131374500Y-89722135D01*
X131374500Y-90617870D01*
X131374501Y-90617876D01*
X131380908Y-90677483D01*
X131431202Y-90812328D01*
X131431206Y-90812335D01*
X131517452Y-90927544D01*
X131517455Y-90927547D01*
X131632664Y-91013793D01*
X131632671Y-91013797D01*
X131767517Y-91064091D01*
X131767516Y-91064091D01*
X131774444Y-91064835D01*
X131827127Y-91070500D01*
X133422872Y-91070499D01*
X133482483Y-91064091D01*
X133617331Y-91013796D01*
X133732546Y-90927546D01*
X133818796Y-90812331D01*
X133869091Y-90677483D01*
X133875500Y-90617873D01*
X133875499Y-89722128D01*
X133869091Y-89662517D01*
X133869090Y-89662515D01*
X133869090Y-89662512D01*
X133867308Y-89654969D01*
X133868773Y-89654622D01*
X133864409Y-89593651D01*
X133868819Y-89578633D01*
X133869089Y-89577488D01*
X133869088Y-89577488D01*
X133869091Y-89577483D01*
X133875500Y-89517873D01*
X133875499Y-89370096D01*
X133895183Y-89303057D01*
X133911813Y-89282420D01*
X134593506Y-88600728D01*
X134593511Y-88600724D01*
X134603714Y-88590520D01*
X134603716Y-88590520D01*
X134715520Y-88478716D01*
X134769626Y-88385001D01*
X134776336Y-88373380D01*
X134794574Y-88341790D01*
X134794575Y-88341789D01*
X134794575Y-88341787D01*
X134794577Y-88341785D01*
X134835501Y-88189057D01*
X134835501Y-88052410D01*
X134855186Y-87985371D01*
X134862559Y-87975091D01*
X134864809Y-87972268D01*
X134864816Y-87972262D01*
X134960789Y-87819522D01*
X135020368Y-87649255D01*
X135024175Y-87615469D01*
X135040565Y-87470003D01*
X135040565Y-87469996D01*
X135020369Y-87290750D01*
X135020368Y-87290745D01*
X135009333Y-87259210D01*
X134960789Y-87120478D01*
X134864816Y-86967738D01*
X134737262Y-86840184D01*
X134689218Y-86809996D01*
X134584523Y-86744211D01*
X134414254Y-86684631D01*
X134414249Y-86684630D01*
X134235004Y-86664435D01*
X134234996Y-86664435D01*
X134118243Y-86677589D01*
X134049421Y-86665534D01*
X133998042Y-86618185D01*
X133980418Y-86550574D01*
X134002145Y-86484169D01*
X134038385Y-86449377D01*
X134117262Y-86399816D01*
X134244816Y-86272262D01*
X134340789Y-86119522D01*
X134400368Y-85949255D01*
X134405545Y-85903306D01*
X134420565Y-85770003D01*
X134420565Y-85769996D01*
X134400369Y-85590750D01*
X134400368Y-85590745D01*
X134377971Y-85526738D01*
X134340789Y-85420478D01*
X134325271Y-85395782D01*
X134278984Y-85322116D01*
X134244816Y-85267738D01*
X134117262Y-85140184D01*
X134013527Y-85075003D01*
X133964524Y-85044212D01*
X133964523Y-85044211D01*
X133964522Y-85044211D01*
X133960397Y-85042767D01*
X133958041Y-85041943D01*
X133901266Y-85001219D01*
X133875522Y-84936265D01*
X133875000Y-84924903D01*
X133875000Y-84920000D01*
X133623069Y-84920000D01*
X133579736Y-84912182D01*
X133482482Y-84875908D01*
X133482483Y-84875908D01*
X133422883Y-84869501D01*
X133422881Y-84869500D01*
X133422873Y-84869500D01*
X133422864Y-84869500D01*
X131827129Y-84869500D01*
X131827123Y-84869501D01*
X131767516Y-84875908D01*
X131670264Y-84912182D01*
X131626931Y-84920000D01*
X131375000Y-84920000D01*
X131375000Y-85117844D01*
X131381401Y-85177372D01*
X131383187Y-85184930D01*
X131381542Y-85185318D01*
X131385851Y-85245656D01*
X131380943Y-85262371D01*
X131380908Y-85262520D01*
X131374501Y-85322116D01*
X131374500Y-85322127D01*
X131374500Y-85735789D01*
X131374501Y-86045500D01*
X131354817Y-86112539D01*
X131302013Y-86158294D01*
X131250501Y-86169500D01*
X129676519Y-86169500D01*
X129609480Y-86149815D01*
X129588838Y-86133181D01*
X128672102Y-85216445D01*
X128642741Y-85169718D01*
X128620031Y-85104816D01*
X128606524Y-85066213D01*
X128571200Y-85009996D01*
X128510550Y-84913472D01*
X128382997Y-84785919D01*
X128230258Y-84689946D01*
X128059989Y-84630366D01*
X128059984Y-84630365D01*
X127880739Y-84610170D01*
X127880731Y-84610170D01*
X127701485Y-84630365D01*
X127701480Y-84630366D01*
X127531211Y-84689946D01*
X127378472Y-84785919D01*
X127250919Y-84913472D01*
X127154946Y-85066211D01*
X127095366Y-85236480D01*
X127095365Y-85236485D01*
X127075170Y-85415731D01*
X124497329Y-85415731D01*
X124535789Y-85354522D01*
X124595368Y-85184255D01*
X124607678Y-85075000D01*
X124615565Y-85005003D01*
X124615565Y-85004996D01*
X124595369Y-84825750D01*
X124595368Y-84825745D01*
X124547850Y-84689946D01*
X124535789Y-84655478D01*
X124520009Y-84630365D01*
X124481765Y-84569499D01*
X124439816Y-84502738D01*
X124312262Y-84375184D01*
X124159523Y-84279211D01*
X123989254Y-84219631D01*
X123989249Y-84219630D01*
X123810004Y-84199435D01*
X123809996Y-84199435D01*
X123630750Y-84219630D01*
X123630737Y-84219633D01*
X123460482Y-84279208D01*
X123452520Y-84284211D01*
X123442519Y-84290495D01*
X123376549Y-84309500D01*
X121995494Y-84309500D01*
X121929523Y-84290494D01*
X121919525Y-84284212D01*
X121749254Y-84224631D01*
X121749249Y-84224630D01*
X121570004Y-84204435D01*
X121569996Y-84204435D01*
X121390750Y-84224630D01*
X121390745Y-84224631D01*
X121220476Y-84284211D01*
X121067737Y-84380184D01*
X120940184Y-84507737D01*
X120844211Y-84660476D01*
X120784631Y-84830745D01*
X120784630Y-84830750D01*
X120764435Y-85009996D01*
X119682104Y-85009996D01*
X119888506Y-84803594D01*
X119888511Y-84803590D01*
X119898714Y-84793386D01*
X119898716Y-84793386D01*
X120010520Y-84681582D01*
X120075231Y-84569499D01*
X120089577Y-84544651D01*
X120130501Y-84391923D01*
X120130501Y-84233809D01*
X120130501Y-84226214D01*
X120130500Y-84226196D01*
X120130500Y-82515097D01*
X120150185Y-82448058D01*
X120166819Y-82427416D01*
X120819239Y-81774996D01*
X130274435Y-81774996D01*
X130274435Y-81775003D01*
X130294630Y-81954249D01*
X130294631Y-81954254D01*
X130354211Y-82124523D01*
X130400876Y-82198789D01*
X130450184Y-82277262D01*
X130577738Y-82404816D01*
X130613706Y-82427416D01*
X130730479Y-82500790D01*
X130771368Y-82515097D01*
X130831454Y-82536122D01*
X130888230Y-82576842D01*
X130913978Y-82641794D01*
X130914500Y-82653163D01*
X130914500Y-83038330D01*
X130914499Y-83038348D01*
X130914499Y-83204054D01*
X130914498Y-83204054D01*
X130955422Y-83356783D01*
X130978263Y-83396344D01*
X130978265Y-83396347D01*
X131034479Y-83493714D01*
X131034481Y-83493717D01*
X131153349Y-83612585D01*
X131153355Y-83612590D01*
X131338181Y-83797416D01*
X131371666Y-83858739D01*
X131374500Y-83885096D01*
X131374500Y-84017869D01*
X131374501Y-84017876D01*
X131380909Y-84077487D01*
X131382692Y-84085031D01*
X131381438Y-84085327D01*
X131385856Y-84147069D01*
X131381864Y-84160664D01*
X131381401Y-84162624D01*
X131375000Y-84222155D01*
X131375000Y-84420000D01*
X131626931Y-84420000D01*
X131670264Y-84427818D01*
X131767517Y-84464091D01*
X131767516Y-84464091D01*
X131774444Y-84464835D01*
X131827127Y-84470500D01*
X133422872Y-84470499D01*
X133482483Y-84464091D01*
X133579736Y-84427817D01*
X133623069Y-84420000D01*
X133875000Y-84420000D01*
X133875000Y-84222172D01*
X133874999Y-84222155D01*
X133868598Y-84162627D01*
X133866814Y-84155076D01*
X133868459Y-84154687D01*
X133864143Y-84094361D01*
X133869058Y-84077619D01*
X133869091Y-84077481D01*
X133869140Y-84077024D01*
X133875500Y-84017873D01*
X133875499Y-83122128D01*
X133869091Y-83062517D01*
X133869090Y-83062515D01*
X133869090Y-83062512D01*
X133867308Y-83054969D01*
X133868773Y-83054622D01*
X133864409Y-82993651D01*
X133868819Y-82978633D01*
X133869089Y-82977488D01*
X133869091Y-82977483D01*
X133875500Y-82917873D01*
X133875499Y-82022128D01*
X133869091Y-81962517D01*
X133866009Y-81954255D01*
X133818797Y-81827671D01*
X133818793Y-81827664D01*
X133732547Y-81712455D01*
X133732544Y-81712452D01*
X133617335Y-81626206D01*
X133617328Y-81626202D01*
X133482482Y-81575908D01*
X133482483Y-81575908D01*
X133422883Y-81569501D01*
X133422881Y-81569500D01*
X133422873Y-81569500D01*
X133422865Y-81569500D01*
X131944167Y-81569500D01*
X131877128Y-81549815D01*
X131831373Y-81497011D01*
X131827125Y-81486454D01*
X131805788Y-81425476D01*
X131739826Y-81320499D01*
X131709816Y-81272738D01*
X131582262Y-81145184D01*
X131531355Y-81113197D01*
X131429523Y-81049211D01*
X131259254Y-80989631D01*
X131259249Y-80989630D01*
X131080004Y-80969435D01*
X131079996Y-80969435D01*
X130900750Y-80989630D01*
X130900745Y-80989631D01*
X130730476Y-81049211D01*
X130577737Y-81145184D01*
X130450184Y-81272737D01*
X130354211Y-81425476D01*
X130294631Y-81595745D01*
X130294630Y-81595750D01*
X130274435Y-81774996D01*
X120819239Y-81774996D01*
X121032416Y-81561819D01*
X121093739Y-81528334D01*
X121120097Y-81525500D01*
X123802588Y-81525500D01*
X123869627Y-81545185D01*
X123879903Y-81552555D01*
X123882736Y-81554814D01*
X123882738Y-81554816D01*
X124035478Y-81650789D01*
X124111814Y-81677500D01*
X124205745Y-81710368D01*
X124205750Y-81710369D01*
X124384996Y-81730565D01*
X124385000Y-81730565D01*
X124385004Y-81730565D01*
X124564249Y-81710369D01*
X124564252Y-81710368D01*
X124564255Y-81710368D01*
X124734522Y-81650789D01*
X124887262Y-81554816D01*
X125014816Y-81427262D01*
X125110789Y-81274522D01*
X125170368Y-81104255D01*
X125180457Y-81014699D01*
X125180944Y-81012154D01*
X125180806Y-81012136D01*
X125182366Y-81000310D01*
X125182652Y-80995231D01*
X125188112Y-80946771D01*
X125215178Y-80882357D01*
X125215995Y-80881795D01*
X125208891Y-80870740D01*
X125392717Y-80870740D01*
X125402516Y-80876622D01*
X125426092Y-80921000D01*
X125428198Y-80920215D01*
X125481202Y-81062328D01*
X125481206Y-81062335D01*
X125567452Y-81177544D01*
X125567455Y-81177547D01*
X125682664Y-81263793D01*
X125682671Y-81263797D01*
X125817517Y-81314091D01*
X125817516Y-81314091D01*
X125824444Y-81314835D01*
X125877127Y-81320500D01*
X127972872Y-81320499D01*
X128032483Y-81314091D01*
X128167331Y-81263796D01*
X128282546Y-81177546D01*
X128368796Y-81062331D01*
X128419091Y-80927483D01*
X128425500Y-80867873D01*
X128425499Y-79322135D01*
X133724500Y-79322135D01*
X133724500Y-80867870D01*
X133724501Y-80867876D01*
X133730908Y-80927483D01*
X133781202Y-81062328D01*
X133781206Y-81062335D01*
X133867452Y-81177544D01*
X133867455Y-81177547D01*
X133982664Y-81263793D01*
X133982671Y-81263797D01*
X134117517Y-81314091D01*
X134117516Y-81314091D01*
X134124444Y-81314835D01*
X134177127Y-81320500D01*
X136272872Y-81320499D01*
X136332483Y-81314091D01*
X136467331Y-81263796D01*
X136582546Y-81177546D01*
X136668796Y-81062331D01*
X136719091Y-80927483D01*
X136725500Y-80867873D01*
X136725499Y-79322128D01*
X136719091Y-79262517D01*
X136677896Y-79152068D01*
X136668797Y-79127671D01*
X136668793Y-79127664D01*
X136582547Y-79012455D01*
X136582544Y-79012452D01*
X136467335Y-78926206D01*
X136467328Y-78926202D01*
X136332482Y-78875908D01*
X136332483Y-78875908D01*
X136272883Y-78869501D01*
X136272881Y-78869500D01*
X136272873Y-78869500D01*
X136272864Y-78869500D01*
X134177129Y-78869500D01*
X134177123Y-78869501D01*
X134117516Y-78875908D01*
X133982671Y-78926202D01*
X133982664Y-78926206D01*
X133867455Y-79012452D01*
X133867452Y-79012455D01*
X133781206Y-79127664D01*
X133781202Y-79127671D01*
X133730908Y-79262517D01*
X133725682Y-79311130D01*
X133724501Y-79322123D01*
X133724500Y-79322135D01*
X128425499Y-79322135D01*
X128425499Y-79322128D01*
X128419091Y-79262517D01*
X128377896Y-79152068D01*
X128368797Y-79127671D01*
X128368793Y-79127664D01*
X128282547Y-79012455D01*
X128282544Y-79012452D01*
X128167335Y-78926206D01*
X128167328Y-78926202D01*
X128032482Y-78875908D01*
X128032483Y-78875908D01*
X127972883Y-78869501D01*
X127972881Y-78869500D01*
X127972873Y-78869500D01*
X127972864Y-78869500D01*
X125877129Y-78869500D01*
X125877123Y-78869501D01*
X125817516Y-78875908D01*
X125682671Y-78926202D01*
X125682664Y-78926206D01*
X125567455Y-79012452D01*
X125567452Y-79012455D01*
X125481206Y-79127664D01*
X125481202Y-79127671D01*
X125430908Y-79262517D01*
X125425682Y-79311130D01*
X125424501Y-79322123D01*
X125424500Y-79322135D01*
X125424500Y-80793219D01*
X125404815Y-80860258D01*
X125392717Y-80870740D01*
X125208891Y-80870740D01*
X125181523Y-80828154D01*
X125177282Y-80807114D01*
X125170368Y-80745745D01*
X125110789Y-80575478D01*
X125014816Y-80422738D01*
X124887262Y-80295184D01*
X124886850Y-80294925D01*
X124734523Y-80199211D01*
X124564254Y-80139631D01*
X124564249Y-80139630D01*
X124385004Y-80119435D01*
X124384996Y-80119435D01*
X124205750Y-80139630D01*
X124205745Y-80139631D01*
X124035476Y-80199211D01*
X123882736Y-80295185D01*
X123879903Y-80297445D01*
X123877724Y-80298334D01*
X123876842Y-80298889D01*
X123876744Y-80298734D01*
X123815217Y-80323855D01*
X123802588Y-80324500D01*
X120740940Y-80324500D01*
X120700019Y-80335464D01*
X120700019Y-80335465D01*
X120695388Y-80336706D01*
X120588214Y-80365423D01*
X120588209Y-80365426D01*
X120451290Y-80444475D01*
X120451282Y-80444481D01*
X120339478Y-80556286D01*
X119861209Y-81034554D01*
X119799886Y-81068039D01*
X119730194Y-81063055D01*
X119674261Y-81021183D01*
X119654452Y-80981471D01*
X119621370Y-80867600D01*
X119553396Y-80752663D01*
X119537065Y-80725049D01*
X119537058Y-80725040D01*
X119419959Y-80607941D01*
X119419950Y-80607934D01*
X119289498Y-80530785D01*
X119277400Y-80523630D01*
X119277399Y-80523629D01*
X119277398Y-80523629D01*
X119277395Y-80523628D01*
X119118362Y-80477424D01*
X119118356Y-80477423D01*
X119081203Y-80474500D01*
X118638809Y-80474500D01*
X118638784Y-80474501D01*
X118601645Y-80477423D01*
X118442599Y-80523630D01*
X118300049Y-80607934D01*
X118300040Y-80607941D01*
X118182941Y-80725040D01*
X118182934Y-80725049D01*
X118098629Y-80867601D01*
X118098628Y-80867604D01*
X118052424Y-81026637D01*
X118052423Y-81026643D01*
X118049500Y-81063789D01*
X118049500Y-81621190D01*
X118049501Y-81621215D01*
X118052423Y-81658354D01*
X118052423Y-81658357D01*
X118052424Y-81658358D01*
X118065215Y-81702385D01*
X118098630Y-81817401D01*
X118116064Y-81846881D01*
X118133245Y-81914606D01*
X118116064Y-81973119D01*
X118098630Y-82002599D01*
X118098628Y-82002604D01*
X118052424Y-82161637D01*
X118052423Y-82161643D01*
X118049500Y-82198789D01*
X118049500Y-82756190D01*
X118049501Y-82756215D01*
X118052423Y-82793354D01*
X118052423Y-82793357D01*
X118052424Y-82793358D01*
X118097489Y-82948472D01*
X118098630Y-82952400D01*
X118182933Y-83094949D01*
X118183476Y-83095648D01*
X118183730Y-83096296D01*
X118186908Y-83101669D01*
X118186041Y-83102181D01*
X118209014Y-83160683D01*
X118209500Y-83171653D01*
X118209500Y-84025661D01*
X118189815Y-84092700D01*
X118173181Y-84113342D01*
X117300010Y-84986512D01*
X117238687Y-85019997D01*
X117226223Y-85022050D01*
X117218987Y-85022865D01*
X117218979Y-85022867D01*
X117048713Y-85082445D01*
X116895972Y-85178419D01*
X116768419Y-85305972D01*
X116672446Y-85458711D01*
X116612866Y-85628980D01*
X116612865Y-85628985D01*
X116592670Y-85808231D01*
X114786083Y-85808231D01*
X114765118Y-85748316D01*
X114675199Y-85605210D01*
X114555690Y-85485701D01*
X114412584Y-85395782D01*
X114335115Y-85368674D01*
X114335115Y-85825786D01*
X113835115Y-85825786D01*
X113835115Y-85368674D01*
X113835114Y-85368674D01*
X113757645Y-85395782D01*
X113614539Y-85485701D01*
X113495030Y-85605210D01*
X113405111Y-85748316D01*
X113378003Y-85825785D01*
X108218088Y-85825785D01*
X108289522Y-85800789D01*
X108442262Y-85704816D01*
X108569816Y-85577262D01*
X108665789Y-85424522D01*
X108708247Y-85303183D01*
X108748967Y-85246409D01*
X108784331Y-85227098D01*
X108859522Y-85200789D01*
X109012262Y-85104816D01*
X109139816Y-84977262D01*
X109235789Y-84824522D01*
X109295368Y-84654255D01*
X109308722Y-84535735D01*
X109335788Y-84471321D01*
X109393383Y-84431766D01*
X109463220Y-84429628D01*
X109523126Y-84465586D01*
X109536935Y-84483645D01*
X109605184Y-84592262D01*
X109732738Y-84719816D01*
X109885478Y-84815789D01*
X110038975Y-84869500D01*
X110055745Y-84875368D01*
X110055750Y-84875369D01*
X110234996Y-84895565D01*
X110235000Y-84895565D01*
X110235004Y-84895565D01*
X110414249Y-84875369D01*
X110414252Y-84875368D01*
X110414255Y-84875368D01*
X110584522Y-84815789D01*
X110737262Y-84719816D01*
X110864816Y-84592262D01*
X110960789Y-84439522D01*
X111007163Y-84306992D01*
X111047884Y-84250218D01*
X111112836Y-84224470D01*
X111165160Y-84230906D01*
X111180010Y-84236103D01*
X111180013Y-84236103D01*
X111180015Y-84236104D01*
X111359261Y-84256300D01*
X111359265Y-84256300D01*
X111359269Y-84256300D01*
X111538514Y-84236104D01*
X111538517Y-84236103D01*
X111538520Y-84236103D01*
X111708787Y-84176524D01*
X111861527Y-84080551D01*
X111989081Y-83952997D01*
X112085054Y-83800257D01*
X112144633Y-83629990D01*
X112144634Y-83629984D01*
X112164830Y-83450738D01*
X112164830Y-83450731D01*
X112144634Y-83271485D01*
X112144633Y-83271480D01*
X112092372Y-83122128D01*
X112085054Y-83101213D01*
X112081964Y-83096296D01*
X112007307Y-82977480D01*
X111989081Y-82948473D01*
X111861527Y-82820919D01*
X111799247Y-82781786D01*
X111708786Y-82724945D01*
X111538514Y-82665365D01*
X111524718Y-82663811D01*
X111460305Y-82636743D01*
X111450923Y-82628272D01*
X111341819Y-82519168D01*
X111308334Y-82457845D01*
X111305500Y-82431487D01*
X111305500Y-81678337D01*
X111845000Y-81678337D01*
X111851043Y-81744843D01*
X111898724Y-81897859D01*
X111898726Y-81897863D01*
X111981639Y-82035019D01*
X111981642Y-82035023D01*
X112094976Y-82148357D01*
X112094980Y-82148360D01*
X112232136Y-82231273D01*
X112232138Y-82231274D01*
X112385155Y-82278956D01*
X112385161Y-82278958D01*
X112414999Y-82281668D01*
X112415000Y-82281668D01*
X112915000Y-82281668D01*
X112944838Y-82278958D01*
X112944844Y-82278956D01*
X113097861Y-82231274D01*
X113097863Y-82231273D01*
X113235019Y-82148360D01*
X113235023Y-82148357D01*
X113348357Y-82035023D01*
X113348360Y-82035019D01*
X113431273Y-81897863D01*
X113431275Y-81897859D01*
X113478956Y-81744843D01*
X113485000Y-81678337D01*
X113485000Y-81677500D01*
X112915000Y-81677500D01*
X112915000Y-82281668D01*
X112415000Y-82281668D01*
X112415000Y-81677500D01*
X111845000Y-81677500D01*
X111845000Y-81678337D01*
X111305500Y-81678337D01*
X111305500Y-81673337D01*
X114845000Y-81673337D01*
X114851043Y-81739843D01*
X114898724Y-81892859D01*
X114898726Y-81892863D01*
X114981639Y-82030019D01*
X114981642Y-82030023D01*
X115094976Y-82143357D01*
X115094980Y-82143360D01*
X115232136Y-82226273D01*
X115232138Y-82226274D01*
X115385155Y-82273956D01*
X115385161Y-82273958D01*
X115414999Y-82276668D01*
X115415000Y-82276668D01*
X115915000Y-82276668D01*
X115944838Y-82273958D01*
X115944844Y-82273956D01*
X116097861Y-82226274D01*
X116097863Y-82226273D01*
X116235019Y-82143360D01*
X116235023Y-82143357D01*
X116348357Y-82030023D01*
X116348360Y-82030019D01*
X116431273Y-81892863D01*
X116431275Y-81892859D01*
X116478956Y-81739843D01*
X116485000Y-81673337D01*
X116485000Y-81672500D01*
X115915000Y-81672500D01*
X115915000Y-82276668D01*
X115415000Y-82276668D01*
X115415000Y-81672500D01*
X114845000Y-81672500D01*
X114845000Y-81673337D01*
X111305500Y-81673337D01*
X111305500Y-81645257D01*
X111301068Y-81628719D01*
X111301067Y-81628713D01*
X111290207Y-81588182D01*
X111264577Y-81492530D01*
X111225864Y-81425476D01*
X111185524Y-81355604D01*
X111185521Y-81355600D01*
X111185520Y-81355598D01*
X111073716Y-81243794D01*
X111073715Y-81243793D01*
X111069385Y-81239463D01*
X111069374Y-81239453D01*
X110828130Y-80998209D01*
X110794645Y-80936886D01*
X110798049Y-80881599D01*
X110795585Y-80881037D01*
X110797134Y-80874251D01*
X110817330Y-80695003D01*
X110817330Y-80694996D01*
X110797134Y-80515750D01*
X110797133Y-80515745D01*
X110783724Y-80477424D01*
X110737554Y-80345478D01*
X110731262Y-80335465D01*
X110655338Y-80214632D01*
X110641581Y-80192738D01*
X110514027Y-80065184D01*
X110482700Y-80045500D01*
X110381038Y-79981621D01*
X111844500Y-79981621D01*
X111844500Y-80483388D01*
X111850546Y-80549926D01*
X111850548Y-80549933D01*
X111898265Y-80703066D01*
X111898267Y-80703070D01*
X111936511Y-80766334D01*
X111954347Y-80833889D01*
X111936512Y-80894632D01*
X111898724Y-80957141D01*
X111851043Y-81110156D01*
X111845000Y-81176662D01*
X111845000Y-81177500D01*
X113485000Y-81177500D01*
X113485000Y-81176662D01*
X113478956Y-81110156D01*
X113431275Y-80957140D01*
X113393488Y-80894633D01*
X113375652Y-80827078D01*
X113393488Y-80766334D01*
X113431733Y-80703069D01*
X113479452Y-80549933D01*
X113485500Y-80483381D01*
X113485500Y-80449500D01*
X113505185Y-80382461D01*
X113557989Y-80336706D01*
X113609500Y-80325500D01*
X113745056Y-80325500D01*
X113910225Y-80284790D01*
X113996128Y-80239703D01*
X114053754Y-80225500D01*
X114256719Y-80225500D01*
X114314344Y-80239703D01*
X114380090Y-80274210D01*
X114409775Y-80289790D01*
X114574944Y-80330500D01*
X114720501Y-80330500D01*
X114787540Y-80350185D01*
X114833295Y-80402989D01*
X114844501Y-80454500D01*
X114844501Y-80478388D01*
X114850546Y-80544926D01*
X114850548Y-80544933D01*
X114898265Y-80698066D01*
X114898267Y-80698070D01*
X114936511Y-80761334D01*
X114954347Y-80828889D01*
X114936512Y-80889632D01*
X114898724Y-80952141D01*
X114851043Y-81105156D01*
X114845000Y-81171662D01*
X114845000Y-81172500D01*
X116485000Y-81172500D01*
X116485000Y-81171662D01*
X116478956Y-81105156D01*
X116431275Y-80952140D01*
X116393488Y-80889633D01*
X116375652Y-80822078D01*
X116393488Y-80761334D01*
X116431733Y-80698069D01*
X116479452Y-80544933D01*
X116485500Y-80478381D01*
X116485499Y-79976620D01*
X116485499Y-79976611D01*
X116479453Y-79910073D01*
X116479452Y-79910070D01*
X116479452Y-79910067D01*
X116431733Y-79756931D01*
X116372349Y-79658698D01*
X116354514Y-79591147D01*
X116355369Y-79579624D01*
X116365645Y-79495000D01*
X116345140Y-79326128D01*
X116343623Y-79322129D01*
X116284817Y-79167068D01*
X116222154Y-79076286D01*
X116188183Y-79027071D01*
X116060852Y-78914266D01*
X116060849Y-78914263D01*
X115910226Y-78835210D01*
X115745056Y-78794500D01*
X115574944Y-78794500D01*
X115409773Y-78835210D01*
X115259150Y-78914264D01*
X115153749Y-79007641D01*
X115090516Y-79037362D01*
X115021252Y-79028178D01*
X115013896Y-79024621D01*
X114910226Y-78970210D01*
X114745056Y-78929500D01*
X114574944Y-78929500D01*
X114409775Y-78970209D01*
X114333398Y-79010296D01*
X114275772Y-79024500D01*
X114053754Y-79024500D01*
X113996128Y-79010296D01*
X113952459Y-78987376D01*
X113910224Y-78965209D01*
X113745056Y-78924500D01*
X113574944Y-78924500D01*
X113409774Y-78965209D01*
X113313190Y-79015901D01*
X113244682Y-79029625D01*
X113179629Y-79004133D01*
X113173346Y-78998926D01*
X113090254Y-78925314D01*
X113060849Y-78899263D01*
X112910226Y-78820210D01*
X112745056Y-78779500D01*
X112574944Y-78779500D01*
X112409773Y-78820210D01*
X112259150Y-78899263D01*
X112148114Y-78997633D01*
X112136818Y-79007641D01*
X112131816Y-79012072D01*
X112035182Y-79152068D01*
X111974860Y-79311125D01*
X111974859Y-79311130D01*
X111954355Y-79480000D01*
X111968322Y-79595035D01*
X111956861Y-79663959D01*
X111951344Y-79674130D01*
X111898265Y-79761934D01*
X111850548Y-79915065D01*
X111844500Y-79981621D01*
X110381038Y-79981621D01*
X110361288Y-79969211D01*
X110191019Y-79909631D01*
X110191014Y-79909630D01*
X110011769Y-79889435D01*
X110011761Y-79889435D01*
X109832515Y-79909630D01*
X109832510Y-79909631D01*
X109662241Y-79969211D01*
X109509502Y-80065184D01*
X109381949Y-80192737D01*
X109285975Y-80345478D01*
X109273035Y-80382461D01*
X109245393Y-80461456D01*
X109204674Y-80518230D01*
X109139721Y-80543978D01*
X109128353Y-80544500D01*
X108139756Y-80544500D01*
X108098802Y-80537542D01*
X108005470Y-80504884D01*
X108005464Y-80504883D01*
X107826222Y-80484688D01*
X107826214Y-80484688D01*
X107646968Y-80504883D01*
X107646955Y-80504886D01*
X107476698Y-80564462D01*
X107420937Y-80599498D01*
X107353700Y-80618497D01*
X107314013Y-80611545D01*
X107208518Y-80574631D01*
X107139881Y-80566897D01*
X107075467Y-80539830D01*
X107035912Y-80482235D01*
X107029765Y-80443677D01*
X107029765Y-80047983D01*
X107048771Y-79982011D01*
X107049016Y-79981621D01*
X107142554Y-79832757D01*
X107202133Y-79662490D01*
X107202560Y-79658701D01*
X107222330Y-79483238D01*
X107222330Y-79483231D01*
X107202134Y-79303985D01*
X107202133Y-79303980D01*
X107148977Y-79152070D01*
X107142554Y-79133713D01*
X107138756Y-79127669D01*
X107103187Y-79071061D01*
X107046581Y-78980973D01*
X106919027Y-78853419D01*
X106873504Y-78824815D01*
X106766288Y-78757446D01*
X106596019Y-78697866D01*
X106596014Y-78697865D01*
X106416769Y-78677670D01*
X106416761Y-78677670D01*
X106237515Y-78697865D01*
X106237510Y-78697866D01*
X106067241Y-78757446D01*
X105914502Y-78853419D01*
X105786949Y-78980972D01*
X105690976Y-79133711D01*
X105631396Y-79303980D01*
X105631395Y-79303985D01*
X105611200Y-79483231D01*
X105611200Y-79483239D01*
X105626823Y-79621906D01*
X105614768Y-79690728D01*
X105567419Y-79742107D01*
X105544558Y-79752831D01*
X105395477Y-79804996D01*
X105242738Y-79900969D01*
X105115185Y-80028522D01*
X105019212Y-80181261D01*
X104959632Y-80351530D01*
X104959631Y-80351535D01*
X104939436Y-80530781D01*
X99775578Y-80530781D01*
X99754816Y-80497738D01*
X99627262Y-80370184D01*
X99587943Y-80345478D01*
X99474521Y-80274210D01*
X99304249Y-80214630D01*
X99217330Y-80204837D01*
X99152916Y-80177770D01*
X99143533Y-80169298D01*
X98057590Y-79083355D01*
X98057588Y-79083352D01*
X97938717Y-78964481D01*
X97938709Y-78964475D01*
X97836936Y-78905717D01*
X97836934Y-78905716D01*
X97801790Y-78885425D01*
X97801789Y-78885424D01*
X97789263Y-78882067D01*
X97649057Y-78844499D01*
X97490943Y-78844499D01*
X97483347Y-78844499D01*
X97483331Y-78844500D01*
X96657412Y-78844500D01*
X96590373Y-78824815D01*
X96580097Y-78817445D01*
X96577263Y-78815185D01*
X96577262Y-78815184D01*
X96485373Y-78757446D01*
X96424523Y-78719211D01*
X96254254Y-78659631D01*
X96254249Y-78659630D01*
X96075004Y-78639435D01*
X96074996Y-78639435D01*
X95895750Y-78659630D01*
X95895745Y-78659631D01*
X95725476Y-78719211D01*
X95572737Y-78815184D01*
X95445184Y-78942737D01*
X95349211Y-79095476D01*
X95289631Y-79265745D01*
X95289630Y-79265750D01*
X95269435Y-79444996D01*
X95269435Y-79445003D01*
X95290411Y-79631175D01*
X95287315Y-79631523D01*
X95283819Y-79687583D01*
X95254931Y-79732989D01*
X95200185Y-79787736D01*
X95104211Y-79940476D01*
X95044631Y-80110745D01*
X95044630Y-80110750D01*
X95024435Y-80289996D01*
X95024435Y-80290003D01*
X95044630Y-80469249D01*
X95044631Y-80469254D01*
X95104211Y-80639523D01*
X95141578Y-80698992D01*
X95160578Y-80766229D01*
X95140210Y-80833064D01*
X95086942Y-80878278D01*
X95036727Y-80888964D01*
X90632055Y-80894036D01*
X90564993Y-80874429D01*
X90519177Y-80821677D01*
X90508385Y-80780844D01*
X90505920Y-80752666D01*
X90450258Y-80544933D01*
X90448158Y-80537094D01*
X90448157Y-80537093D01*
X90448156Y-80537087D01*
X90353835Y-80334814D01*
X90225822Y-80151993D01*
X90068007Y-79994178D01*
X89885186Y-79866165D01*
X89885187Y-79866165D01*
X89885185Y-79866164D01*
X89871594Y-79859827D01*
X89819155Y-79813654D01*
X89800000Y-79747445D01*
X89800000Y-79040000D01*
X85049031Y-79043618D01*
X84981977Y-79023984D01*
X84936182Y-78971215D01*
X84925409Y-78930425D01*
X84921472Y-78885423D01*
X84905920Y-78707666D01*
X84848156Y-78492087D01*
X84753835Y-78289814D01*
X84625822Y-78106993D01*
X84468007Y-77949178D01*
X84285186Y-77821165D01*
X84082913Y-77726844D01*
X84082909Y-77726843D01*
X84082905Y-77726841D01*
X83867339Y-77669081D01*
X83867329Y-77669079D01*
X83645001Y-77649628D01*
X83644999Y-77649628D01*
X83422670Y-77669079D01*
X83422660Y-77669081D01*
X83207094Y-77726841D01*
X83207087Y-77726843D01*
X83207087Y-77726844D01*
X83004814Y-77821165D01*
X82821993Y-77949178D01*
X82821991Y-77949179D01*
X82821988Y-77949182D01*
X82664182Y-78106988D01*
X82664179Y-78106991D01*
X82664178Y-78106993D01*
X82536165Y-78289814D01*
X82458971Y-78455359D01*
X82441845Y-78492085D01*
X82441841Y-78492094D01*
X82384081Y-78707660D01*
X82384079Y-78707670D01*
X82364403Y-78932564D01*
X82338950Y-78997633D01*
X82282359Y-79038611D01*
X82240969Y-79045756D01*
X77569594Y-79049314D01*
X77502540Y-79029680D01*
X77456745Y-78976911D01*
X77445500Y-78925314D01*
X77445500Y-78662974D01*
X77417895Y-78542031D01*
X77416053Y-78538207D01*
X77380558Y-78464500D01*
X77364071Y-78430263D01*
X77286725Y-78333275D01*
X77189737Y-78255929D01*
X77077973Y-78202106D01*
X77077974Y-78202106D01*
X76957027Y-78174500D01*
X76957026Y-78174500D01*
X76939076Y-78174500D01*
X76931802Y-78173053D01*
X76910918Y-78173053D01*
X76105862Y-78173053D01*
X76038823Y-78153368D01*
X75993068Y-78100564D01*
X75983124Y-78031406D01*
X76012149Y-77967850D01*
X76070927Y-77930076D01*
X76078269Y-77928162D01*
X76091909Y-77925048D01*
X76175817Y-77905897D01*
X76499215Y-77792736D01*
X76807910Y-77644076D01*
X77098018Y-77461789D01*
X77365893Y-77248166D01*
X77608166Y-77005893D01*
X77821789Y-76738018D01*
X78004076Y-76447910D01*
X78088530Y-76272540D01*
X93384200Y-76272540D01*
X93384200Y-76419459D01*
X93412858Y-76563534D01*
X93412861Y-76563544D01*
X93469078Y-76699266D01*
X93469083Y-76699275D01*
X93550698Y-76821419D01*
X93550701Y-76821423D01*
X93654576Y-76925298D01*
X93654580Y-76925301D01*
X93776724Y-77006916D01*
X93776733Y-77006921D01*
X93801800Y-77017304D01*
X93912458Y-77063140D01*
X94028829Y-77086287D01*
X94056540Y-77091799D01*
X94056544Y-77091800D01*
X94056545Y-77091800D01*
X94203456Y-77091800D01*
X94203457Y-77091799D01*
X94347542Y-77063140D01*
X94483269Y-77006920D01*
X94605420Y-76925301D01*
X94709301Y-76821420D01*
X94765869Y-76736761D01*
X101167670Y-76736761D01*
X101167670Y-76736768D01*
X101187865Y-76916014D01*
X101187866Y-76916019D01*
X101247446Y-77086288D01*
X101315073Y-77193915D01*
X101343419Y-77239027D01*
X101470973Y-77366581D01*
X101509239Y-77390625D01*
X101622495Y-77461789D01*
X101623713Y-77462554D01*
X101731782Y-77500369D01*
X101793980Y-77522133D01*
X101793985Y-77522134D01*
X101973231Y-77542330D01*
X101973235Y-77542330D01*
X101973239Y-77542330D01*
X102152484Y-77522134D01*
X102152487Y-77522133D01*
X102152490Y-77522133D01*
X102322757Y-77462554D01*
X102322759Y-77462553D01*
X102367394Y-77434507D01*
X102433367Y-77415500D01*
X103824506Y-77415500D01*
X103890477Y-77434506D01*
X103900474Y-77440787D01*
X103900475Y-77440787D01*
X103900478Y-77440789D01*
X104070745Y-77500368D01*
X104070750Y-77500369D01*
X104249996Y-77520565D01*
X104250000Y-77520565D01*
X104250004Y-77520565D01*
X104429249Y-77500369D01*
X104429252Y-77500368D01*
X104429255Y-77500368D01*
X104599522Y-77440789D01*
X104752262Y-77344816D01*
X104879816Y-77217262D01*
X104975789Y-77064522D01*
X105035368Y-76894255D01*
X105037727Y-76873318D01*
X105055565Y-76715003D01*
X105055565Y-76714996D01*
X105035369Y-76535750D01*
X105035368Y-76535745D01*
X104988192Y-76400923D01*
X104975789Y-76365478D01*
X104879816Y-76212738D01*
X104752262Y-76085184D01*
X104599523Y-75989211D01*
X104429254Y-75929631D01*
X104429249Y-75929630D01*
X104250004Y-75909435D01*
X104249996Y-75909435D01*
X104070750Y-75929630D01*
X104070745Y-75929631D01*
X103900474Y-75989212D01*
X103890477Y-75995494D01*
X103824506Y-76014500D01*
X102353896Y-76014500D01*
X102312941Y-76007541D01*
X102152497Y-75951398D01*
X102152484Y-75951395D01*
X101973239Y-75931200D01*
X101973231Y-75931200D01*
X101793985Y-75951395D01*
X101793980Y-75951396D01*
X101623711Y-76010976D01*
X101470972Y-76106949D01*
X101343419Y-76234502D01*
X101247446Y-76387241D01*
X101187866Y-76557510D01*
X101187865Y-76557515D01*
X101167670Y-76736761D01*
X94765869Y-76736761D01*
X94790920Y-76699269D01*
X94847140Y-76563542D01*
X94875800Y-76419455D01*
X94875800Y-76272545D01*
X94847140Y-76128458D01*
X94797055Y-76007541D01*
X94790921Y-75992733D01*
X94790916Y-75992724D01*
X94709301Y-75870580D01*
X94709298Y-75870576D01*
X94605423Y-75766701D01*
X94605419Y-75766698D01*
X94483275Y-75685083D01*
X94483266Y-75685078D01*
X94347544Y-75628861D01*
X94347545Y-75628861D01*
X94347542Y-75628860D01*
X94347538Y-75628859D01*
X94347534Y-75628858D01*
X94203459Y-75600200D01*
X94203455Y-75600200D01*
X94056545Y-75600200D01*
X94056540Y-75600200D01*
X93912465Y-75628858D01*
X93912455Y-75628861D01*
X93776733Y-75685078D01*
X93776724Y-75685083D01*
X93654580Y-75766698D01*
X93654576Y-75766701D01*
X93550701Y-75870576D01*
X93550698Y-75870580D01*
X93469083Y-75992724D01*
X93469078Y-75992733D01*
X93412861Y-76128455D01*
X93412858Y-76128465D01*
X93384200Y-76272540D01*
X78088530Y-76272540D01*
X78152736Y-76139215D01*
X78265897Y-75815817D01*
X78342139Y-75481783D01*
X78367517Y-75256540D01*
X98464200Y-75256540D01*
X98464200Y-75403459D01*
X98492858Y-75547534D01*
X98492861Y-75547544D01*
X98549078Y-75683266D01*
X98549083Y-75683275D01*
X98630698Y-75805419D01*
X98630701Y-75805423D01*
X98734576Y-75909298D01*
X98734580Y-75909301D01*
X98856724Y-75990916D01*
X98856733Y-75990921D01*
X98881800Y-76001304D01*
X98992458Y-76047140D01*
X99136540Y-76075799D01*
X99136544Y-76075800D01*
X99136545Y-76075800D01*
X99283456Y-76075800D01*
X99283457Y-76075799D01*
X99427542Y-76047140D01*
X99563269Y-75990920D01*
X99685420Y-75909301D01*
X99789301Y-75805420D01*
X99870920Y-75683269D01*
X99927140Y-75547542D01*
X99955800Y-75403455D01*
X99955800Y-75256545D01*
X99927140Y-75112458D01*
X99870920Y-74976731D01*
X99870919Y-74976730D01*
X99870916Y-74976724D01*
X99789301Y-74854580D01*
X99789298Y-74854576D01*
X99685423Y-74750701D01*
X99685419Y-74750698D01*
X99563275Y-74669083D01*
X99563266Y-74669078D01*
X99427544Y-74612861D01*
X99427545Y-74612861D01*
X99427542Y-74612860D01*
X99427538Y-74612859D01*
X99427534Y-74612858D01*
X99283459Y-74584200D01*
X99283455Y-74584200D01*
X99136545Y-74584200D01*
X99136540Y-74584200D01*
X98992465Y-74612858D01*
X98992455Y-74612861D01*
X98856733Y-74669078D01*
X98856724Y-74669083D01*
X98734580Y-74750698D01*
X98734576Y-74750701D01*
X98630701Y-74854576D01*
X98630698Y-74854580D01*
X98549083Y-74976724D01*
X98549078Y-74976733D01*
X98492861Y-75112455D01*
X98492858Y-75112465D01*
X98464200Y-75256540D01*
X78367517Y-75256540D01*
X78380500Y-75141312D01*
X78380500Y-74798688D01*
X78359563Y-74612860D01*
X78342141Y-74458231D01*
X78342140Y-74458226D01*
X78342139Y-74458217D01*
X78292455Y-74240540D01*
X93384200Y-74240540D01*
X93384200Y-74387459D01*
X93412858Y-74531534D01*
X93412861Y-74531544D01*
X93469078Y-74667266D01*
X93469083Y-74667275D01*
X93550698Y-74789419D01*
X93550701Y-74789423D01*
X93654576Y-74893298D01*
X93654580Y-74893301D01*
X93776724Y-74974916D01*
X93776730Y-74974919D01*
X93776731Y-74974920D01*
X93912458Y-75031140D01*
X94013269Y-75051192D01*
X94056540Y-75059799D01*
X94056544Y-75059800D01*
X94056545Y-75059800D01*
X94203456Y-75059800D01*
X94203457Y-75059799D01*
X94347542Y-75031140D01*
X94483269Y-74974920D01*
X94605420Y-74893301D01*
X94709301Y-74789420D01*
X94790920Y-74667269D01*
X94847140Y-74531542D01*
X94875800Y-74387455D01*
X94875800Y-74240545D01*
X94847140Y-74096458D01*
X94790920Y-73960731D01*
X94790919Y-73960730D01*
X94790916Y-73960724D01*
X94709301Y-73838580D01*
X94709298Y-73838576D01*
X94605423Y-73734701D01*
X94605419Y-73734698D01*
X94483275Y-73653083D01*
X94483266Y-73653078D01*
X94347544Y-73596861D01*
X94347545Y-73596861D01*
X94347542Y-73596860D01*
X94347538Y-73596859D01*
X94347534Y-73596858D01*
X94203459Y-73568200D01*
X94203455Y-73568200D01*
X94056545Y-73568200D01*
X94056540Y-73568200D01*
X93912465Y-73596858D01*
X93912455Y-73596861D01*
X93776733Y-73653078D01*
X93776724Y-73653083D01*
X93654580Y-73734698D01*
X93654576Y-73734701D01*
X93550701Y-73838576D01*
X93550698Y-73838580D01*
X93469083Y-73960724D01*
X93469078Y-73960733D01*
X93412861Y-74096455D01*
X93412858Y-74096465D01*
X93384200Y-74240540D01*
X78292455Y-74240540D01*
X78265897Y-74124183D01*
X78152736Y-73800785D01*
X78004076Y-73492090D01*
X77821789Y-73201982D01*
X77608166Y-72934107D01*
X77365893Y-72691834D01*
X77098018Y-72478211D01*
X76807910Y-72295924D01*
X76807907Y-72295922D01*
X76727978Y-72257430D01*
X76676118Y-72210607D01*
X76657806Y-72143180D01*
X76678854Y-72076556D01*
X76732581Y-72031888D01*
X76781879Y-72021710D01*
X81288478Y-72025468D01*
X81288674Y-72025500D01*
X81308592Y-72025500D01*
X81316874Y-72025500D01*
X81333059Y-72026561D01*
X81400564Y-72035448D01*
X81431832Y-72043826D01*
X81487168Y-72066747D01*
X81515202Y-72082932D01*
X81562719Y-72119394D01*
X81585607Y-72142282D01*
X81622067Y-72189798D01*
X81638252Y-72217831D01*
X81661173Y-72273167D01*
X81669551Y-72304433D01*
X81672593Y-72327537D01*
X81676436Y-72356729D01*
X81678439Y-72371938D01*
X81679500Y-72388125D01*
X81679500Y-73630918D01*
X81709082Y-73660500D01*
X85570918Y-73660500D01*
X85600500Y-73630918D01*
X85600500Y-72388125D01*
X85601561Y-72371940D01*
X85610448Y-72304435D01*
X85618826Y-72273167D01*
X85629145Y-72248255D01*
X85641747Y-72217829D01*
X85657930Y-72189800D01*
X85694397Y-72142276D01*
X85717276Y-72119397D01*
X85764800Y-72082930D01*
X85792829Y-72066747D01*
X85848168Y-72043825D01*
X85879434Y-72035448D01*
X85946941Y-72026561D01*
X85963126Y-72025500D01*
X85992474Y-72025500D01*
X85992521Y-72025491D01*
X108020605Y-72020791D01*
X108087648Y-72040461D01*
X108133414Y-72093255D01*
X108143373Y-72162412D01*
X108114361Y-72225974D01*
X108108313Y-72232472D01*
X108013248Y-72327537D01*
X107903814Y-72491315D01*
X107903807Y-72491328D01*
X107828430Y-72673306D01*
X107828427Y-72673318D01*
X107790000Y-72866504D01*
X107790000Y-73315000D01*
X108490000Y-73315000D01*
X108490000Y-73815000D01*
X107790000Y-73815000D01*
X107790000Y-74263495D01*
X107828427Y-74456681D01*
X107828430Y-74456693D01*
X107903807Y-74638671D01*
X107903814Y-74638684D01*
X108013248Y-74802462D01*
X108013251Y-74802466D01*
X108152533Y-74941748D01*
X108152537Y-74941751D01*
X108316315Y-75051185D01*
X108316328Y-75051192D01*
X108498308Y-75126569D01*
X108540000Y-75134862D01*
X108540000Y-74331988D01*
X108549940Y-74349205D01*
X108605795Y-74405060D01*
X108674204Y-74444556D01*
X108750504Y-74465000D01*
X108829496Y-74465000D01*
X108905796Y-74444556D01*
X108974205Y-74405060D01*
X109030060Y-74349205D01*
X109040000Y-74331988D01*
X109040000Y-75134862D01*
X109081690Y-75126569D01*
X109081692Y-75126569D01*
X109263671Y-75051192D01*
X109263684Y-75051185D01*
X109427462Y-74941751D01*
X109427466Y-74941748D01*
X109527819Y-74841396D01*
X109589142Y-74807911D01*
X109658834Y-74812895D01*
X109714767Y-74854767D01*
X109739184Y-74920231D01*
X109739500Y-74929077D01*
X109739500Y-76400923D01*
X109719815Y-76467962D01*
X109667011Y-76513717D01*
X109597853Y-76523661D01*
X109534297Y-76494636D01*
X109527819Y-76488604D01*
X109427466Y-76388251D01*
X109427462Y-76388248D01*
X109263684Y-76278814D01*
X109263671Y-76278807D01*
X109081691Y-76203429D01*
X109081683Y-76203427D01*
X109040000Y-76195135D01*
X109040000Y-76998011D01*
X109030060Y-76980795D01*
X108974205Y-76924940D01*
X108905796Y-76885444D01*
X108829496Y-76865000D01*
X108750504Y-76865000D01*
X108674204Y-76885444D01*
X108605795Y-76924940D01*
X108549940Y-76980795D01*
X108540000Y-76998011D01*
X108540000Y-76195136D01*
X108539999Y-76195135D01*
X108498316Y-76203427D01*
X108498308Y-76203429D01*
X108316328Y-76278807D01*
X108316315Y-76278814D01*
X108152537Y-76388248D01*
X108152533Y-76388251D01*
X108013251Y-76527533D01*
X108013248Y-76527537D01*
X107903814Y-76691315D01*
X107903807Y-76691328D01*
X107828430Y-76873306D01*
X107828427Y-76873318D01*
X107790000Y-77066504D01*
X107790000Y-77315000D01*
X108490000Y-77315000D01*
X108490000Y-77815000D01*
X107790000Y-77815000D01*
X107790000Y-78063495D01*
X107828427Y-78256681D01*
X107828430Y-78256693D01*
X107903807Y-78438671D01*
X107903814Y-78438684D01*
X108013248Y-78602462D01*
X108013251Y-78602466D01*
X108152533Y-78741748D01*
X108152537Y-78741751D01*
X108316315Y-78851185D01*
X108316328Y-78851192D01*
X108498308Y-78926569D01*
X108540000Y-78934862D01*
X108540000Y-78131988D01*
X108549940Y-78149205D01*
X108605795Y-78205060D01*
X108674204Y-78244556D01*
X108750504Y-78265000D01*
X108829496Y-78265000D01*
X108905796Y-78244556D01*
X108974205Y-78205060D01*
X109030060Y-78149205D01*
X109040000Y-78131988D01*
X109040000Y-78934862D01*
X109081690Y-78926569D01*
X109081692Y-78926569D01*
X109263671Y-78851192D01*
X109263684Y-78851185D01*
X109427462Y-78741751D01*
X109427466Y-78741748D01*
X109566751Y-78602463D01*
X109660777Y-78461743D01*
X109714389Y-78416938D01*
X109783714Y-78408231D01*
X109846741Y-78438385D01*
X109851560Y-78442953D01*
X109894087Y-78485480D01*
X109985413Y-78538207D01*
X110087273Y-78565500D01*
X110137002Y-78565500D01*
X110141274Y-78565573D01*
X110183083Y-78567016D01*
X110270476Y-78546799D01*
X110349659Y-78504653D01*
X110415235Y-78443448D01*
X110462736Y-78367357D01*
X110488924Y-78281564D01*
X110488924Y-78281561D01*
X110490261Y-78273552D01*
X110493011Y-78274010D01*
X110510704Y-78220586D01*
X110565041Y-78176663D01*
X110587608Y-78169711D01*
X110595619Y-78168058D01*
X110620677Y-78165500D01*
X118199323Y-78165500D01*
X118224384Y-78168059D01*
X118232394Y-78169712D01*
X118294072Y-78202540D01*
X118328211Y-78263501D01*
X118329525Y-78273581D01*
X118329738Y-78273546D01*
X118331075Y-78281562D01*
X118331076Y-78281564D01*
X118357264Y-78367357D01*
X118357265Y-78367360D01*
X118404763Y-78443446D01*
X118404764Y-78443446D01*
X118404765Y-78443448D01*
X118470341Y-78504653D01*
X118549524Y-78546799D01*
X118636917Y-78567016D01*
X118678725Y-78565573D01*
X118682998Y-78565500D01*
X118732725Y-78565500D01*
X118732727Y-78565500D01*
X118834587Y-78538207D01*
X118925913Y-78485480D01*
X118968440Y-78442952D01*
X119029761Y-78409468D01*
X119099452Y-78414452D01*
X119155386Y-78456323D01*
X119159222Y-78461743D01*
X119253248Y-78602462D01*
X119253251Y-78602466D01*
X119392533Y-78741748D01*
X119392537Y-78741751D01*
X119556315Y-78851185D01*
X119556328Y-78851192D01*
X119738308Y-78926569D01*
X119780000Y-78934862D01*
X119780000Y-78131988D01*
X119789940Y-78149205D01*
X119845795Y-78205060D01*
X119914204Y-78244556D01*
X119990504Y-78265000D01*
X120069496Y-78265000D01*
X120145796Y-78244556D01*
X120214205Y-78205060D01*
X120270060Y-78149205D01*
X120280000Y-78131988D01*
X120280000Y-78934862D01*
X120321690Y-78926569D01*
X120321692Y-78926569D01*
X120503671Y-78851192D01*
X120503684Y-78851185D01*
X120667462Y-78741751D01*
X120667466Y-78741748D01*
X120806748Y-78602466D01*
X120806751Y-78602462D01*
X120916185Y-78438684D01*
X120916192Y-78438671D01*
X120991569Y-78256693D01*
X120991572Y-78256681D01*
X121029999Y-78063495D01*
X121030000Y-78063492D01*
X121030000Y-77815000D01*
X120330000Y-77815000D01*
X120330000Y-77315000D01*
X121030000Y-77315000D01*
X121030000Y-77066508D01*
X121029999Y-77066504D01*
X120991572Y-76873318D01*
X120991569Y-76873306D01*
X120916192Y-76691328D01*
X120916185Y-76691315D01*
X120806751Y-76527537D01*
X120806748Y-76527533D01*
X120667466Y-76388251D01*
X120667462Y-76388248D01*
X120503684Y-76278814D01*
X120503671Y-76278807D01*
X120321691Y-76203429D01*
X120321683Y-76203427D01*
X120280000Y-76195135D01*
X120280000Y-76998011D01*
X120270060Y-76980795D01*
X120214205Y-76924940D01*
X120145796Y-76885444D01*
X120069496Y-76865000D01*
X119990504Y-76865000D01*
X119914204Y-76885444D01*
X119845795Y-76924940D01*
X119789940Y-76980795D01*
X119780000Y-76998011D01*
X119780000Y-76195136D01*
X119779999Y-76195135D01*
X119738316Y-76203427D01*
X119738308Y-76203429D01*
X119556328Y-76278807D01*
X119556315Y-76278814D01*
X119392537Y-76388248D01*
X119392533Y-76388251D01*
X119292181Y-76488604D01*
X119230858Y-76522089D01*
X119161166Y-76517105D01*
X119105233Y-76475233D01*
X119080816Y-76409769D01*
X119080500Y-76400923D01*
X119080500Y-74929077D01*
X119100185Y-74862038D01*
X119152989Y-74816283D01*
X119222147Y-74806339D01*
X119285703Y-74835364D01*
X119292181Y-74841396D01*
X119392533Y-74941748D01*
X119392537Y-74941751D01*
X119556315Y-75051185D01*
X119556328Y-75051192D01*
X119738308Y-75126569D01*
X119780000Y-75134862D01*
X119780000Y-74331988D01*
X119789940Y-74349205D01*
X119845795Y-74405060D01*
X119914204Y-74444556D01*
X119990504Y-74465000D01*
X120069496Y-74465000D01*
X120145796Y-74444556D01*
X120214205Y-74405060D01*
X120270060Y-74349205D01*
X120280000Y-74331988D01*
X120280000Y-75134862D01*
X120321690Y-75126569D01*
X120321692Y-75126569D01*
X120503671Y-75051192D01*
X120503684Y-75051185D01*
X120667462Y-74941751D01*
X120667466Y-74941748D01*
X120806748Y-74802466D01*
X120806751Y-74802462D01*
X120916185Y-74638684D01*
X120916192Y-74638671D01*
X120991569Y-74456693D01*
X120991572Y-74456681D01*
X121029999Y-74263495D01*
X121030000Y-74263492D01*
X121030000Y-73815000D01*
X120330000Y-73815000D01*
X120330000Y-73315000D01*
X121030000Y-73315000D01*
X121030000Y-72866508D01*
X121029999Y-72866504D01*
X120991572Y-72673318D01*
X120991569Y-72673306D01*
X120916192Y-72491328D01*
X120916185Y-72491315D01*
X120806751Y-72327537D01*
X120806748Y-72327533D01*
X120711396Y-72232181D01*
X120677911Y-72170858D01*
X120682895Y-72101166D01*
X120724767Y-72045233D01*
X120790231Y-72020816D01*
X120799077Y-72020500D01*
X132880733Y-72020500D01*
X132947772Y-72040185D01*
G37*
%TD.AperFunction*%
%TD*%
%TA.AperFunction,Conductor*%
%TO.N,AVDD*%
G36*
X96662731Y-91884685D02*
G01*
X96708486Y-91937489D01*
X96719692Y-91989307D01*
X96715004Y-93883725D01*
X96715000Y-93885154D01*
X96715000Y-94571000D01*
X96695315Y-94638039D01*
X96642511Y-94683794D01*
X96591000Y-94695000D01*
X95304000Y-94695000D01*
X95236961Y-94675315D01*
X95191206Y-94622511D01*
X95180000Y-94571001D01*
X95179997Y-93883725D01*
X90819512Y-93880103D01*
X90752489Y-93860363D01*
X90706778Y-93807521D01*
X90695617Y-93755492D01*
X90704388Y-91988385D01*
X90724405Y-91921444D01*
X90777435Y-91875951D01*
X90828386Y-91865000D01*
X96595692Y-91865000D01*
X96662731Y-91884685D01*
G37*
%TD.AperFunction*%
%TD*%
M02*
