%TF.GenerationSoftware,KiCad,Pcbnew,8.0.2-8.0.2-0~ubuntu22.04.1*%
%TF.CreationDate,2024-07-23T14:23:55-05:00*%
%TF.ProjectId,atslim-328,6174736c-696d-42d3-9332-382e6b696361,rev?*%
%TF.SameCoordinates,Original*%
%TF.FileFunction,Paste,Top*%
%TF.FilePolarity,Positive*%
%FSLAX46Y46*%
G04 Gerber Fmt 4.6, Leading zero omitted, Abs format (unit mm)*
G04 Created by KiCad (PCBNEW 8.0.2-8.0.2-0~ubuntu22.04.1) date 2024-07-23 14:23:55*
%MOMM*%
%LPD*%
G01*
G04 APERTURE LIST*
G04 Aperture macros list*
%AMRoundRect*
0 Rectangle with rounded corners*
0 $1 Rounding radius*
0 $2 $3 $4 $5 $6 $7 $8 $9 X,Y pos of 4 corners*
0 Add a 4 corners polygon primitive as box body*
4,1,4,$2,$3,$4,$5,$6,$7,$8,$9,$2,$3,0*
0 Add four circle primitives for the rounded corners*
1,1,$1+$1,$2,$3*
1,1,$1+$1,$4,$5*
1,1,$1+$1,$6,$7*
1,1,$1+$1,$8,$9*
0 Add four rect primitives between the rounded corners*
20,1,$1+$1,$2,$3,$4,$5,0*
20,1,$1+$1,$4,$5,$6,$7,0*
20,1,$1+$1,$6,$7,$8,$9,0*
20,1,$1+$1,$8,$9,$2,$3,0*%
%AMFreePoly0*
4,1,21,0.105327,0.385197,0.116521,0.375637,0.194236,0.297922,0.220557,0.246263,0.221713,0.231588,0.221713,-0.231588,0.203796,-0.286728,0.194236,-0.297922,0.116521,-0.375637,0.064862,-0.401958,0.050188,-0.403113,-0.127901,-0.403113,-0.183042,-0.385197,-0.217121,-0.338292,-0.221712,-0.309303,-0.221712,0.309303,-0.203796,0.364444,-0.156891,0.398522,-0.127901,0.403113,0.050188,0.403113,
0.105327,0.385197,0.105327,0.385197,$1*%
%AMFreePoly1*
4,1,19,0.176016,0.200540,0.216286,0.145112,0.221712,0.110856,0.221713,0.000473,0.200540,-0.064687,0.189243,-0.077915,0.077915,-0.189243,0.016869,-0.220347,-0.000473,-0.221713,-0.110856,-0.221712,-0.176016,-0.200540,-0.216286,-0.145112,-0.221712,-0.110856,-0.221712,0.110856,-0.200540,0.176016,-0.145112,0.216286,-0.110856,0.221712,0.110856,0.221712,0.176016,0.200540,0.176016,0.200540,
$1*%
%AMFreePoly2*
4,1,19,0.064687,0.200540,0.077915,0.189243,0.189243,0.077915,0.220347,0.016869,0.221713,-0.000473,0.221712,-0.110856,0.200540,-0.176016,0.145112,-0.216286,0.110856,-0.221712,-0.110856,-0.221712,-0.176016,-0.200540,-0.216286,-0.145112,-0.221712,-0.110856,-0.221712,0.110856,-0.200540,0.176016,-0.145112,0.216286,-0.110856,0.221712,-0.000473,0.221713,0.064687,0.200540,0.064687,0.200540,
$1*%
%AMFreePoly3*
4,1,21,0.364444,0.203796,0.398522,0.156891,0.403113,0.127901,0.403113,-0.050188,0.385197,-0.105327,0.375637,-0.116521,0.297922,-0.194236,0.246263,-0.220557,0.231588,-0.221713,-0.231588,-0.221713,-0.286728,-0.203796,-0.297922,-0.194236,-0.375637,-0.116521,-0.401958,-0.064862,-0.403113,-0.050188,-0.403113,0.127901,-0.385197,0.183042,-0.338292,0.217121,-0.309303,0.221712,0.309303,0.221712,
0.364444,0.203796,0.364444,0.203796,$1*%
%AMFreePoly4*
4,1,21,0.286728,0.203796,0.297922,0.194236,0.375637,0.116521,0.401958,0.064862,0.403113,0.050188,0.403113,-0.127901,0.385197,-0.183042,0.338292,-0.217121,0.309303,-0.221712,-0.309303,-0.221712,-0.364444,-0.203796,-0.398522,-0.156891,-0.403113,-0.127901,-0.403113,0.050188,-0.385197,0.105327,-0.375637,0.116521,-0.297922,0.194236,-0.246263,0.220557,-0.231588,0.221713,0.231588,0.221713,
0.286728,0.203796,0.286728,0.203796,$1*%
%AMFreePoly5*
4,1,19,0.176016,0.200540,0.216286,0.145112,0.221712,0.110856,0.221712,-0.110856,0.200540,-0.176016,0.145112,-0.216286,0.110856,-0.221712,0.000473,-0.221713,-0.064687,-0.200540,-0.077915,-0.189243,-0.189243,-0.077915,-0.220347,-0.016869,-0.221713,0.000473,-0.221712,0.110856,-0.200540,0.176016,-0.145112,0.216286,-0.110856,0.221712,0.110856,0.221712,0.176016,0.200540,0.176016,0.200540,
$1*%
%AMFreePoly6*
4,1,19,0.176016,0.200540,0.216286,0.145112,0.221712,0.110856,0.221712,-0.110856,0.200540,-0.176016,0.145112,-0.216286,0.110856,-0.221712,-0.110856,-0.221712,-0.176016,-0.200540,-0.216286,-0.145112,-0.221712,-0.110856,-0.221713,-0.000473,-0.200540,0.064687,-0.189243,0.077915,-0.077915,0.189243,-0.016869,0.220347,0.000473,0.221713,0.110856,0.221712,0.176016,0.200540,0.176016,0.200540,
$1*%
%AMFreePoly7*
4,1,21,0.183042,0.385197,0.217121,0.338292,0.221712,0.309303,0.221712,-0.309303,0.203796,-0.364444,0.156891,-0.398522,0.127901,-0.403113,-0.050188,-0.403113,-0.105327,-0.385197,-0.116521,-0.375637,-0.194236,-0.297922,-0.220557,-0.246263,-0.221713,-0.231588,-0.221713,0.231588,-0.203796,0.286728,-0.194236,0.297922,-0.116521,0.375637,-0.064862,0.401958,-0.050188,0.403113,0.127901,0.403113,
0.183042,0.385197,0.183042,0.385197,$1*%
G04 Aperture macros list end*
%ADD10RoundRect,0.375000X-0.625000X-0.375000X0.625000X-0.375000X0.625000X0.375000X-0.625000X0.375000X0*%
%ADD11RoundRect,0.500000X-0.500000X-1.400000X0.500000X-1.400000X0.500000X1.400000X-0.500000X1.400000X0*%
%ADD12RoundRect,0.155000X-0.212500X-0.155000X0.212500X-0.155000X0.212500X0.155000X-0.212500X0.155000X0*%
%ADD13R,0.650000X1.525000*%
%ADD14RoundRect,0.160000X-0.026517X-0.252791X0.252791X0.026517X0.026517X0.252791X-0.252791X-0.026517X0*%
%ADD15RoundRect,0.250001X0.462499X0.624999X-0.462499X0.624999X-0.462499X-0.624999X0.462499X-0.624999X0*%
%ADD16R,0.800000X1.250000*%
%ADD17R,0.650000X0.700000*%
%ADD18RoundRect,0.160000X-0.160000X0.197500X-0.160000X-0.197500X0.160000X-0.197500X0.160000X0.197500X0*%
%ADD19RoundRect,0.160000X-0.197500X-0.160000X0.197500X-0.160000X0.197500X0.160000X-0.197500X0.160000X0*%
%ADD20RoundRect,0.155000X0.212500X0.155000X-0.212500X0.155000X-0.212500X-0.155000X0.212500X-0.155000X0*%
%ADD21RoundRect,0.075000X-0.521491X0.415425X0.415425X-0.521491X0.521491X-0.415425X-0.415425X0.521491X0*%
%ADD22RoundRect,0.075000X-0.521491X-0.415425X-0.415425X-0.521491X0.521491X0.415425X0.415425X0.521491X0*%
%ADD23RoundRect,0.155000X0.155000X-0.212500X0.155000X0.212500X-0.155000X0.212500X-0.155000X-0.212500X0*%
%ADD24RoundRect,0.160000X0.197500X0.160000X-0.197500X0.160000X-0.197500X-0.160000X0.197500X-0.160000X0*%
%ADD25R,1.100000X1.050000*%
%ADD26RoundRect,0.160000X-0.252791X0.026517X0.026517X-0.252791X0.252791X-0.026517X-0.026517X0.252791X0*%
%ADD27FreePoly0,45.000000*%
%ADD28FreePoly1,45.000000*%
%ADD29FreePoly2,45.000000*%
%ADD30FreePoly3,45.000000*%
%ADD31RoundRect,0.201557X0.000000X-0.285043X0.285043X0.000000X0.000000X0.285043X-0.285043X0.000000X0*%
%ADD32FreePoly4,45.000000*%
%ADD33FreePoly5,45.000000*%
%ADD34FreePoly6,45.000000*%
%ADD35FreePoly7,45.000000*%
%ADD36RoundRect,0.062500X-0.220971X-0.309359X0.309359X0.220971X0.220971X0.309359X-0.309359X-0.220971X0*%
%ADD37RoundRect,0.062500X0.220971X-0.309359X0.309359X-0.220971X-0.220971X0.309359X-0.309359X0.220971X0*%
%ADD38R,0.600000X1.100000*%
%ADD39R,0.300000X1.100000*%
G04 APERTURE END LIST*
D10*
%TO.C,U2*%
X123180000Y-73967500D03*
X123180000Y-76267500D03*
D11*
X129480000Y-76267500D03*
D10*
X123180000Y-78567500D03*
%TD*%
D12*
%TO.C,C7*%
X91972500Y-89540000D03*
X93107500Y-89540000D03*
%TD*%
D13*
%TO.C,IC1*%
X126340000Y-89337000D03*
X127610000Y-89337000D03*
X128880000Y-89337000D03*
X130150000Y-89337000D03*
X131420000Y-89337000D03*
X132690000Y-89337000D03*
X133960000Y-89337000D03*
X133960000Y-83913000D03*
X132690000Y-83913000D03*
X131420000Y-83913000D03*
X130150000Y-83913000D03*
X128880000Y-83913000D03*
X127610000Y-83913000D03*
X126340000Y-83913000D03*
%TD*%
D14*
%TO.C,R11*%
X104727504Y-83592496D03*
X105572496Y-82747504D03*
%TD*%
%TO.C,R9*%
X103217504Y-82042496D03*
X104062496Y-81197504D03*
%TD*%
D15*
%TO.C,D1*%
X106382500Y-73490000D03*
X103407500Y-73490000D03*
%TD*%
D16*
%TO.C,J2*%
X83640000Y-74465000D03*
X84790000Y-74465000D03*
X82490000Y-74465000D03*
D17*
X86115000Y-72740000D03*
X81165000Y-72740000D03*
%TD*%
D18*
%TO.C,R12*%
X105245000Y-91872500D03*
X105245000Y-93067500D03*
%TD*%
D14*
%TO.C,R10*%
X103982504Y-82827496D03*
X104827496Y-81982504D03*
%TD*%
D19*
%TO.C,R3*%
X126367500Y-91025000D03*
X127562500Y-91025000D03*
%TD*%
D12*
%TO.C,C6*%
X108152500Y-92395000D03*
X109287500Y-92395000D03*
%TD*%
D20*
%TO.C,C1*%
X89582500Y-75732500D03*
X88447500Y-75732500D03*
%TD*%
D21*
%TO.C,U3*%
X99386212Y-82602124D03*
X99032658Y-82955678D03*
X98679105Y-83309231D03*
X98325551Y-83662785D03*
X97971998Y-84016338D03*
X97618445Y-84369891D03*
X97264891Y-84723445D03*
X96911338Y-85076998D03*
X96557785Y-85430551D03*
X96204231Y-85784105D03*
X95850678Y-86137658D03*
X95497124Y-86491212D03*
D22*
X95497124Y-88488788D03*
X95850678Y-88842342D03*
X96204231Y-89195895D03*
X96557785Y-89549449D03*
X96911338Y-89903002D03*
X97264891Y-90256555D03*
X97618445Y-90610109D03*
X97971998Y-90963662D03*
X98325551Y-91317215D03*
X98679105Y-91670769D03*
X99032658Y-92024322D03*
X99386212Y-92377876D03*
D21*
X101383788Y-92377876D03*
X101737342Y-92024322D03*
X102090895Y-91670769D03*
X102444449Y-91317215D03*
X102798002Y-90963662D03*
X103151555Y-90610109D03*
X103505109Y-90256555D03*
X103858662Y-89903002D03*
X104212215Y-89549449D03*
X104565769Y-89195895D03*
X104919322Y-88842342D03*
X105272876Y-88488788D03*
D22*
X105272876Y-86491212D03*
X104919322Y-86137658D03*
X104565769Y-85784105D03*
X104212215Y-85430551D03*
X103858662Y-85076998D03*
X103505109Y-84723445D03*
X103151555Y-84369891D03*
X102798002Y-84016338D03*
X102444449Y-83662785D03*
X102090895Y-83309231D03*
X101737342Y-82955678D03*
X101383788Y-82602124D03*
%TD*%
D19*
%TO.C,R4*%
X130222500Y-92065000D03*
X131417500Y-92065000D03*
%TD*%
D23*
%TO.C,C4*%
X117850000Y-81367500D03*
X117850000Y-80232500D03*
%TD*%
D24*
%TO.C,R19*%
X95827500Y-80300000D03*
X94632500Y-80300000D03*
%TD*%
D25*
%TO.C,X1*%
X106685000Y-91895000D03*
X106685000Y-93745000D03*
%TD*%
D24*
%TO.C,R6*%
X132707500Y-80925000D03*
X131512500Y-80925000D03*
%TD*%
D18*
%TO.C,R1*%
X89580000Y-73405000D03*
X89580000Y-74600000D03*
%TD*%
D26*
%TO.C,R16*%
X97322504Y-80322504D03*
X98167496Y-81167496D03*
%TD*%
D27*
%TO.C,U1*%
X112830000Y-88038008D03*
X113537107Y-88745115D03*
D28*
X112281993Y-87490000D03*
D29*
X114085115Y-89293122D03*
D30*
X112830000Y-86941992D03*
D31*
X113378008Y-87490000D03*
X114085115Y-88197107D03*
D32*
X114633123Y-88745115D03*
D30*
X113537107Y-86234885D03*
D31*
X114085115Y-86782893D03*
X114792222Y-87490000D03*
D32*
X115340230Y-88038008D03*
D33*
X114085115Y-85686878D03*
D34*
X115888237Y-87490000D03*
D35*
X114633123Y-86234885D03*
X115340230Y-86941992D03*
D36*
X111124105Y-87976136D03*
X111477659Y-88329689D03*
X111831212Y-88683243D03*
X112184766Y-89036796D03*
X112538319Y-89390349D03*
X112891872Y-89743903D03*
X113245426Y-90097456D03*
X113598979Y-90451010D03*
D37*
X114571251Y-90451010D03*
X114924804Y-90097456D03*
X115278358Y-89743903D03*
X115631911Y-89390349D03*
X115985464Y-89036796D03*
X116339018Y-88683243D03*
X116692571Y-88329689D03*
X117046125Y-87976136D03*
D36*
X117046125Y-87003864D03*
X116692571Y-86650311D03*
X116339018Y-86296757D03*
X115985464Y-85943204D03*
X115631911Y-85589651D03*
X115278358Y-85236097D03*
X114924804Y-84882544D03*
X114571251Y-84528990D03*
D37*
X113598979Y-84528990D03*
X113245426Y-84882544D03*
X112891872Y-85236097D03*
X112538319Y-85589651D03*
X112184766Y-85943204D03*
X111831212Y-86296757D03*
X111477659Y-86650311D03*
X111124105Y-87003864D03*
%TD*%
D19*
%TO.C,R5*%
X128882500Y-81660000D03*
X130077500Y-81660000D03*
%TD*%
D18*
%TO.C,R22*%
X107045000Y-76702500D03*
X107045000Y-77897500D03*
%TD*%
D12*
%TO.C,C5*%
X108152500Y-93745000D03*
X109287500Y-93745000D03*
%TD*%
%TO.C,C10*%
X92007500Y-80290000D03*
X93142500Y-80290000D03*
%TD*%
D38*
%TO.C,J4*%
X117610000Y-78715000D03*
X116810000Y-78715000D03*
D39*
X115660000Y-78715000D03*
X114660000Y-78715000D03*
X114160000Y-78715000D03*
X113160000Y-78715000D03*
D38*
X111210000Y-78715000D03*
X112010000Y-78715000D03*
D39*
X112660000Y-78715000D03*
X113660000Y-78715000D03*
X115160000Y-78715000D03*
X116160000Y-78715000D03*
%TD*%
D19*
%TO.C,R20*%
X91125000Y-94060000D03*
X92320000Y-94060000D03*
%TD*%
D18*
%TO.C,R14*%
X90930000Y-87157500D03*
X90930000Y-88352500D03*
%TD*%
D19*
%TO.C,R21*%
X91977500Y-78950000D03*
X93172500Y-78950000D03*
%TD*%
M02*
