%TF.GenerationSoftware,KiCad,Pcbnew,8.0.2-8.0.2-0~ubuntu22.04.1*%
%TF.CreationDate,2024-08-08T22:40:51-05:00*%
%TF.ProjectId,atslim-328,6174736c-696d-42d3-9332-382e6b696361,rev?*%
%TF.SameCoordinates,Original*%
%TF.FileFunction,Component,L1,Top*%
%TF.FilePolarity,Positive*%
%FSLAX46Y46*%
G04 Gerber Fmt 4.6, Leading zero omitted, Abs format (unit mm)*
G04 Created by KiCad (PCBNEW 8.0.2-8.0.2-0~ubuntu22.04.1) date 2024-08-08 22:40:51*
%MOMM*%
%LPD*%
G01*
G04 APERTURE LIST*
%TA.AperFunction,ComponentMain*%
%ADD10C,0.300000*%
%TD*%
%TA.AperFunction,ComponentOutline,Courtyard*%
%ADD11C,0.100000*%
%TD*%
%TA.AperFunction,ComponentPin*%
%ADD12P,0.360000X4X0.000000*%
%TD*%
%TA.AperFunction,ComponentPin*%
%ADD13C,0.100000*%
%TD*%
%TA.AperFunction,ComponentOutline,Footprint*%
%ADD14C,0.100000*%
%TD*%
G04 APERTURE END LIST*
D10*
%TO.C,U2*%
%TO.CFtp,SOT-223-3_TabPin2*%
%TO.CVal,LT1963AxST-3.3*%
%TO.CLbN,Package_TO_SOT_SMD*%
%TO.CMnt,SMD*%
%TO.CRot,0*%
X126330000Y-76267500D03*
D11*
X130729999Y-72667501D02*
X130729999Y-79867499D01*
X121930001Y-79867499D01*
X121930001Y-72667501D01*
X130729999Y-72667501D01*
D12*
%TO.P,U2,1,IN*%
X123180000Y-73967500D03*
D13*
%TO.P,U2,2,GND*%
X123180000Y-76267500D03*
X129480000Y-76267500D03*
%TO.P,U2,3,OUT*%
X123180000Y-78567500D03*
%TD*%
D10*
%TO.C,C7*%
%TO.CFtp,C_0402_1005Metric_Pad0.74x0.62mm_HandSolder*%
%TO.CVal,10nF*%
%TO.CLbN,Capacitor_SMD*%
%TO.CMnt,SMD*%
%TO.CRot,0*%
X92540000Y-89540000D03*
D11*
X93619999Y-89080001D02*
X93619999Y-89999999D01*
X91460001Y-89999999D01*
X91460001Y-89080001D01*
X93619999Y-89080001D01*
D12*
%TO.P,C7,1*%
X91972500Y-89540000D03*
D13*
%TO.P,C7,2*%
X93107500Y-89540000D03*
%TD*%
D10*
%TO.C,IC1*%
%TO.CFtp,SOIC127P600X175-14N*%
%TO.CVal,SN74LVC125ADRG3*%
%TO.CLbN,LogicLevelConverter*%
%TO.CMnt,SMD*%
%TO.CRot,90*%
X130150000Y-86625000D03*
D11*
X134774999Y-82900001D02*
X134774999Y-90349999D01*
X125525001Y-90349999D01*
X125525001Y-82900001D01*
X134774999Y-82900001D01*
D12*
%TO.P,IC1,1,1~{OE}*%
X126340000Y-89337000D03*
D13*
%TO.P,IC1,2,1A*%
X127610000Y-89337000D03*
%TO.P,IC1,3,1Y*%
X128880000Y-89337000D03*
%TO.P,IC1,4,2~{OE}*%
X130150000Y-89337000D03*
%TO.P,IC1,5,2A*%
X131420000Y-89337000D03*
%TO.P,IC1,6,2Y*%
X132690000Y-89337000D03*
%TO.P,IC1,7,GND*%
X133960000Y-89337000D03*
%TO.P,IC1,8,3Y*%
X133960000Y-83913000D03*
%TO.P,IC1,9,3A*%
X132690000Y-83913000D03*
%TO.P,IC1,10,3~{OE}*%
X131420000Y-83913000D03*
%TO.P,IC1,11,4Y*%
X130150000Y-83913000D03*
%TO.P,IC1,12,4A*%
X128880000Y-83913000D03*
%TO.P,IC1,13,4~{OE}*%
X127610000Y-83913000D03*
%TO.P,IC1,14,VCC*%
X126340000Y-83913000D03*
%TD*%
D10*
%TO.C,H2*%
%TO.CFtp,RPI_MountingHole*%
%TO.CVal,MountingHole*%
%TO.CLbN,MountingPoints*%
%TO.CMnt,Other*%
%TO.CRot,0*%
X75230000Y-92370000D03*
D14*
X73980000Y-97620000D02*
X73980000Y-100320000D01*
X76680000Y-100320000D01*
X76680000Y-97620000D01*
X73980000Y-97620000D01*
D13*
%TO.P,H2,*%
X75330000Y-98970000D03*
%TD*%
D10*
%TO.C,R11*%
%TO.CFtp,R_0402_1005Metric_Pad0.72x0.64mm_HandSolder*%
%TO.CVal,10k*%
%TO.CLbN,Resistor_SMD*%
%TO.CMnt,SMD*%
%TO.CRot,45*%
X105150000Y-83170000D03*
D11*
X106260156Y-82724523D02*
X104704523Y-84280156D01*
X104039844Y-83615477D01*
X105595477Y-82059844D01*
X106260156Y-82724523D01*
D12*
%TO.P,R11,1*%
X104727504Y-83592496D03*
D13*
%TO.P,R11,2*%
X105572496Y-82747504D03*
%TD*%
D10*
%TO.C,R9*%
%TO.CFtp,R_0402_1005Metric_Pad0.72x0.64mm_HandSolder*%
%TO.CVal,10k*%
%TO.CLbN,Resistor_SMD*%
%TO.CMnt,SMD*%
%TO.CRot,45*%
X103640000Y-81620000D03*
D11*
X104750156Y-81174523D02*
X103194523Y-82730156D01*
X102529844Y-82065477D01*
X104085477Y-80509844D01*
X104750156Y-81174523D01*
D12*
%TO.P,R9,1*%
X103217504Y-82042496D03*
D13*
%TO.P,R9,2*%
X104062496Y-81197504D03*
%TD*%
D10*
%TO.C,D1*%
%TO.CFtp,LED_1206_3216Metric_Pad1.42x1.75mm_HandSolder*%
%TO.CVal,PWR*%
%TO.CLbN,LED_SMD*%
%TO.CMnt,SMD*%
%TO.CRot,180*%
X104895000Y-73490000D03*
D11*
X107344999Y-72370001D02*
X107344999Y-74609999D01*
X102445001Y-74609999D01*
X102445001Y-72370001D01*
X107344999Y-72370001D01*
D12*
%TO.P,D1,1,A*%
X106382500Y-73490000D03*
D13*
%TO.P,D1,2,K*%
X103407500Y-73490000D03*
%TD*%
D10*
%TO.C,J2*%
%TO.CFtp,EVPAEDB2A*%
%TO.CVal,RESET*%
%TO.CLbN,Button_Switch_Sidemount*%
%TO.CMnt,SMD*%
%TO.CRot,180*%
X83640000Y-72090000D03*
D11*
X87439999Y-70803001D02*
X87439999Y-77152999D01*
X79840001Y-77152999D01*
X79840001Y-70803001D01*
X87439999Y-70803001D01*
D12*
%TO.P,J2,A1,COM_1*%
X84790000Y-74465000D03*
D13*
%TO.P,J2,2,NO*%
X83640000Y-74465000D03*
%TO.P,J2,B1,COM_2*%
X82490000Y-74465000D03*
%TO.P,J2,MP1,MP1*%
X86115000Y-72740000D03*
%TO.P,J2,MP2,MP2*%
X81165000Y-72740000D03*
%TD*%
D10*
%TO.C,P1*%
%TO.CFtp,PinHeader_1x02_P2.54mm_Vertical*%
%TO.CVal,PoE Header*%
%TO.CLbN,Connector_PinHeader_2.54mm*%
%TO.CMnt,TH*%
%TO.CRot,0*%
X93825000Y-97475000D03*
D11*
X95624999Y-95675001D02*
X95624999Y-101824999D01*
X92025001Y-101824999D01*
X92025001Y-95675001D01*
X95624999Y-95675001D01*
D12*
%TO.P,P1,1,P1*%
X93825000Y-97475000D03*
D13*
%TO.P,P1,2,P2*%
X93825000Y-100015000D03*
%TD*%
D10*
%TO.C,R12*%
%TO.CFtp,R_0402_1005Metric_Pad0.72x0.64mm_HandSolder*%
%TO.CVal,1M*%
%TO.CLbN,Resistor_SMD*%
%TO.CMnt,SMD*%
%TO.CRot,-90*%
X105075000Y-92110000D03*
D11*
X105544999Y-91010001D02*
X105544999Y-93209999D01*
X104605001Y-93209999D01*
X104605001Y-91010001D01*
X105544999Y-91010001D01*
D12*
%TO.P,R12,1*%
X105075000Y-91512500D03*
D13*
%TO.P,R12,2*%
X105075000Y-92707500D03*
%TD*%
D10*
%TO.C,R10*%
%TO.CFtp,R_0402_1005Metric_Pad0.72x0.64mm_HandSolder*%
%TO.CVal,10k*%
%TO.CLbN,Resistor_SMD*%
%TO.CMnt,SMD*%
%TO.CRot,45*%
X104405000Y-82405000D03*
D11*
X105515156Y-81959523D02*
X103959523Y-83515156D01*
X103294844Y-82850477D01*
X104850477Y-81294844D01*
X105515156Y-81959523D01*
D12*
%TO.P,R10,1*%
X103982504Y-82827496D03*
D13*
%TO.P,R10,2*%
X104827496Y-81982504D03*
%TD*%
D10*
%TO.C,R3*%
%TO.CFtp,R_0402_1005Metric_Pad0.72x0.64mm_HandSolder*%
%TO.CVal,3.3k*%
%TO.CLbN,Resistor_SMD*%
%TO.CMnt,SMD*%
%TO.CRot,0*%
X126965000Y-91025000D03*
D11*
X128064999Y-90555001D02*
X128064999Y-91494999D01*
X125865001Y-91494999D01*
X125865001Y-90555001D01*
X128064999Y-90555001D01*
D12*
%TO.P,R3,1*%
X126367500Y-91025000D03*
D13*
%TO.P,R3,2*%
X127562500Y-91025000D03*
%TD*%
D10*
%TO.C,J5*%
%TO.CFtp,TE_1888250-3*%
%TO.CVal,1888250-3*%
%TO.CLbN,Connector_Ethernet*%
%TO.CMnt,TH*%
%TO.CRot,-90*%
X83645000Y-86975000D03*
D11*
X90394999Y-77480001D02*
X90394999Y-96469999D01*
X63155001Y-96469999D01*
X63155001Y-77480001D01*
X90394999Y-77480001D01*
D12*
%TO.P,J5,1,TD+*%
X87035000Y-83419000D03*
D13*
%TO.P,J5,2,TCT*%
X84495000Y-84435000D03*
%TO.P,J5,3,TD-*%
X87035000Y-85451000D03*
%TO.P,J5,4,RD+*%
X84495000Y-86467000D03*
%TO.P,J5,5,RCT*%
X87035000Y-87483000D03*
%TO.P,J5,6,RD-*%
X84495000Y-88499000D03*
%TO.P,J5,7,V+*%
X87035000Y-89515000D03*
%TO.P,J5,8,V-*%
X84495000Y-90531000D03*
%TO.P,J5,9,LED1_VIN*%
X81195000Y-91115000D03*
%TO.P,J5,10,LED1_DAT*%
X78895000Y-92555000D03*
%TO.P,J5,11,LED2_VIN*%
X81195000Y-81395000D03*
%TO.P,J5,12,LED2_DAT*%
X78895000Y-82835000D03*
%TO.P,J5,SH1*%
X89245000Y-80975000D03*
%TO.P,J5,SH2*%
X89245000Y-92975000D03*
%TO.P,J5,SH3*%
X83645000Y-95020000D03*
%TO.P,J5,SH4*%
X83645000Y-78930000D03*
%TD*%
D10*
%TO.C,C1*%
%TO.CFtp,C_0402_1005Metric_Pad0.74x0.62mm_HandSolder*%
%TO.CVal,0.1 uF*%
%TO.CLbN,Capacitor_SMD*%
%TO.CMnt,SMD*%
%TO.CRot,180*%
X89015000Y-75732500D03*
D11*
X90094999Y-75272501D02*
X90094999Y-76192499D01*
X87935001Y-76192499D01*
X87935001Y-75272501D01*
X90094999Y-75272501D01*
D12*
%TO.P,C1,1*%
X89582500Y-75732500D03*
D13*
%TO.P,C1,2*%
X88447500Y-75732500D03*
%TD*%
D10*
%TO.C,H3*%
%TO.CFtp,RPI_MountingHole*%
%TO.CVal,MountingHole*%
%TO.CLbN,MountingPoints*%
%TO.CMnt,Other*%
%TO.CRot,0*%
X134230000Y-68370000D03*
D14*
X132980000Y-73620000D02*
X132980000Y-76320000D01*
X135680000Y-76320000D01*
X135680000Y-73620000D01*
X132980000Y-73620000D01*
D13*
%TO.P,H3,*%
X134330000Y-74970000D03*
%TD*%
D10*
%TO.C,U3*%
%TO.CFtp,LQFP-48_7x7mm_P0.5mm*%
%TO.CVal,W5500*%
%TO.CLbN,Package_QFP*%
%TO.CMnt,SMD*%
%TO.CRot,-45*%
X100385000Y-87490000D03*
D11*
X106253984Y-86075786D02*
X105264036Y-87065736D01*
X105688299Y-87490000D01*
X105264036Y-87914264D01*
X106253984Y-88904213D01*
X104026599Y-91131599D01*
X101799213Y-93358984D01*
X100809264Y-92369036D01*
X100385000Y-92793299D01*
X99960736Y-92369036D01*
X98970786Y-93358984D01*
X94516015Y-88904213D01*
X95505964Y-87914264D01*
X95081700Y-87490000D01*
X95505964Y-87065736D01*
X94516015Y-86075786D01*
X96743401Y-83848401D01*
X98970786Y-81621015D01*
X99960736Y-82610964D01*
X100385000Y-82186700D01*
X100809264Y-82610964D01*
X101799213Y-81621015D01*
X106253984Y-86075786D01*
D12*
%TO.P,U3,1,TXN*%
X99386212Y-82602124D03*
D13*
%TO.P,U3,2,TXP*%
X99032658Y-82955678D03*
%TO.P,U3,3,AGND*%
X98679105Y-83309231D03*
%TO.P,U3,4,AVDD*%
X98325551Y-83662785D03*
%TO.P,U3,5,RXN*%
X97971998Y-84016338D03*
%TO.P,U3,6,RXP*%
X97618445Y-84369891D03*
%TO.P,U3,7,DNC*%
X97264891Y-84723445D03*
%TO.P,U3,8,AVDD*%
X96911338Y-85076998D03*
%TO.P,U3,9,AGND*%
X96557785Y-85430551D03*
%TO.P,U3,10,EXRES1*%
X96204231Y-85784105D03*
%TO.P,U3,11,AVDD*%
X95850678Y-86137658D03*
%TO.P,U3,12,NC*%
X95497124Y-86491212D03*
%TO.P,U3,13,NC*%
X95497124Y-88488788D03*
%TO.P,U3,14,AGND*%
X95850678Y-88842342D03*
%TO.P,U3,15,AVDD*%
X96204231Y-89195895D03*
%TO.P,U3,16,AGND*%
X96557785Y-89549449D03*
%TO.P,U3,17,AVDD*%
X96911338Y-89903002D03*
%TO.P,U3,18,VBG*%
X97264891Y-90256555D03*
%TO.P,U3,19,AGND*%
X97618445Y-90610109D03*
%TO.P,U3,20,TOCAP*%
X97971998Y-90963662D03*
%TO.P,U3,21,AVDD*%
X98325551Y-91317215D03*
%TO.P,U3,22,1V2O*%
X98679105Y-91670769D03*
%TO.P,U3,23,RSVD*%
X99032658Y-92024322D03*
%TO.P,U3,24,SPDLED*%
X99386212Y-92377876D03*
%TO.P,U3,25,LINKLED*%
X101383788Y-92377876D03*
%TO.P,U3,26,DUPLED*%
X101737342Y-92024322D03*
%TO.P,U3,27,ACTLED*%
X102090895Y-91670769D03*
%TO.P,U3,28,VDD*%
X102444449Y-91317215D03*
%TO.P,U3,29,GND*%
X102798002Y-90963662D03*
%TO.P,U3,30,XI/CLKIN*%
X103151555Y-90610109D03*
%TO.P,U3,31,XO*%
X103505109Y-90256555D03*
%TO.P,U3,32,~{SCS}*%
X103858662Y-89903002D03*
%TO.P,U3,33,SCLK*%
X104212215Y-89549449D03*
%TO.P,U3,34,MISO*%
X104565769Y-89195895D03*
%TO.P,U3,35,MOSI*%
X104919322Y-88842342D03*
%TO.P,U3,36,~{INT}*%
X105272876Y-88488788D03*
%TO.P,U3,37,~{RST}*%
X105272876Y-86491212D03*
%TO.P,U3,38,RSVD*%
X104919322Y-86137658D03*
%TO.P,U3,39,RSVD*%
X104565769Y-85784105D03*
%TO.P,U3,40,RSVD*%
X104212215Y-85430551D03*
%TO.P,U3,41,RSVD*%
X103858662Y-85076998D03*
%TO.P,U3,42,RSVD*%
X103505109Y-84723445D03*
%TO.P,U3,43,PMODE2*%
X103151555Y-84369891D03*
%TO.P,U3,44,PMODE1*%
X102798002Y-84016338D03*
%TO.P,U3,45,PMODE0*%
X102444449Y-83662785D03*
%TO.P,U3,46,NC*%
X102090895Y-83309231D03*
%TO.P,U3,47,NC*%
X101737342Y-82955678D03*
%TO.P,U3,48,AGND*%
X101383788Y-82602124D03*
%TD*%
D10*
%TO.C,R21*%
%TO.CFtp,R_0402_1005Metric_Pad0.72x0.64mm_HandSolder*%
%TO.CVal,330R*%
%TO.CLbN,Resistor_SMD*%
%TO.CMnt,SMD*%
%TO.CRot,0*%
X92575000Y-78950000D03*
D11*
X93674999Y-78480001D02*
X93674999Y-79419999D01*
X91475001Y-79419999D01*
X91475001Y-78480001D01*
X93674999Y-78480001D01*
D12*
%TO.P,R21,1*%
X91977500Y-78950000D03*
D13*
%TO.P,R21,2*%
X93172500Y-78950000D03*
%TD*%
D10*
%TO.C,R4*%
%TO.CFtp,R_0402_1005Metric_Pad0.72x0.64mm_HandSolder*%
%TO.CVal,3.3k*%
%TO.CLbN,Resistor_SMD*%
%TO.CMnt,SMD*%
%TO.CRot,0*%
X130820000Y-92065000D03*
D11*
X131919999Y-91595001D02*
X131919999Y-92534999D01*
X129720001Y-92534999D01*
X129720001Y-91595001D01*
X131919999Y-91595001D01*
D12*
%TO.P,R4,1*%
X130222500Y-92065000D03*
D13*
%TO.P,R4,2*%
X131417500Y-92065000D03*
%TD*%
D10*
%TO.C,C4*%
%TO.CFtp,C_0402_1005Metric_Pad0.74x0.62mm_HandSolder*%
%TO.CVal,10uF*%
%TO.CLbN,Capacitor_SMD*%
%TO.CMnt,SMD*%
%TO.CRot,90*%
X117850000Y-80800000D03*
D11*
X118309999Y-79720001D02*
X118309999Y-81879999D01*
X117390001Y-81879999D01*
X117390001Y-79720001D01*
X118309999Y-79720001D01*
D12*
%TO.P,C4,1*%
X117850000Y-81367500D03*
D13*
%TO.P,C4,2*%
X117850000Y-80232500D03*
%TD*%
D10*
%TO.C,R19*%
%TO.CFtp,R_0402_1005Metric_Pad0.72x0.64mm_HandSolder*%
%TO.CVal,10R*%
%TO.CLbN,Resistor_SMD*%
%TO.CMnt,SMD*%
%TO.CRot,180*%
X95230000Y-80300000D03*
D11*
X96329999Y-79830001D02*
X96329999Y-80769999D01*
X94130001Y-80769999D01*
X94130001Y-79830001D01*
X96329999Y-79830001D01*
D12*
%TO.P,R19,1*%
X95827500Y-80300000D03*
D13*
%TO.P,R19,2*%
X94632500Y-80300000D03*
%TD*%
D10*
%TO.C,R6*%
%TO.CFtp,R_0402_1005Metric_Pad0.72x0.64mm_HandSolder*%
%TO.CVal,3.3k*%
%TO.CLbN,Resistor_SMD*%
%TO.CMnt,SMD*%
%TO.CRot,180*%
X132110000Y-80925000D03*
D11*
X133209999Y-80455001D02*
X133209999Y-81394999D01*
X131010001Y-81394999D01*
X131010001Y-80455001D01*
X133209999Y-80455001D01*
D12*
%TO.P,R6,1*%
X132707500Y-80925000D03*
D13*
%TO.P,R6,2*%
X131512500Y-80925000D03*
%TD*%
D10*
%TO.C,R1*%
%TO.CFtp,R_0402_1005Metric_Pad0.72x0.64mm_HandSolder*%
%TO.CVal,1K*%
%TO.CLbN,Resistor_SMD*%
%TO.CMnt,SMD*%
%TO.CRot,-90*%
X89580000Y-74002500D03*
D11*
X90049999Y-72902501D02*
X90049999Y-75102499D01*
X89110001Y-75102499D01*
X89110001Y-72902501D01*
X90049999Y-72902501D01*
D12*
%TO.P,R1,1*%
X89580000Y-73405000D03*
D13*
%TO.P,R1,2*%
X89580000Y-74600000D03*
%TD*%
D10*
%TO.C,Y1*%
%TO.CFtp,830081609*%
%TO.CVal,830081609*%
%TO.CLbN,CrystalOscillator*%
%TO.CMnt,SMD*%
%TO.CRot,180*%
X107605000Y-92680000D03*
D11*
X109529999Y-91030001D02*
X109529999Y-94329999D01*
X105680001Y-94329999D01*
X105680001Y-91030001D01*
X109529999Y-91030001D01*
D12*
%TO.P,Y1,1,CRYSTAL_1*%
X108155000Y-92305000D03*
D13*
%TO.P,Y1,2,GND_1*%
X107055000Y-92305000D03*
%TO.P,Y1,3,CRYSTAL_2*%
X107055000Y-93055000D03*
%TO.P,Y1,4,GND_2*%
X108155000Y-93055000D03*
%TD*%
D10*
%TO.C,R16*%
%TO.CFtp,R_0402_1005Metric_Pad0.72x0.64mm_HandSolder*%
%TO.CVal,49R9*%
%TO.CLbN,Resistor_SMD*%
%TO.CMnt,SMD*%
%TO.CRot,-45*%
X97745000Y-80745000D03*
D11*
X98855156Y-81190477D02*
X98190477Y-81855156D01*
X96634844Y-80299523D01*
X97299523Y-79634844D01*
X98855156Y-81190477D01*
D12*
%TO.P,R16,1*%
X97322504Y-80322504D03*
D13*
%TO.P,R16,2*%
X98167496Y-81167496D03*
%TD*%
D10*
%TO.C,H4*%
%TO.CFtp,RPI_MountingHole*%
%TO.CVal,MountingHole*%
%TO.CLbN,MountingPoints*%
%TO.CMnt,Other*%
%TO.CRot,0*%
X134230000Y-92370000D03*
D14*
X132980000Y-97620000D02*
X132980000Y-100320000D01*
X135680000Y-100320000D01*
X135680000Y-97620000D01*
X132980000Y-97620000D01*
D13*
%TO.P,H4,*%
X134330000Y-98970000D03*
%TD*%
D10*
%TO.C,U1*%
%TO.CFtp,QFN-32-1EP_5x5mm_P0.5mm_EP3.1x3.1mm_ThermalVias*%
%TO.CVal,ATmega3208-M*%
%TO.CLbN,Package_DFN_QFN*%
%TO.CMnt,SMD*%
%TO.CRot,45*%
X114085115Y-87490000D03*
D11*
X118511601Y-87490000D02*
X114085115Y-91916486D01*
X109658629Y-87490000D01*
X114085115Y-83063514D01*
X118511601Y-87490000D01*
D12*
%TO.P,U1,1,PA3*%
X111124105Y-87976136D03*
D13*
%TO.P,U1,2,PA4*%
X111477659Y-88329689D03*
%TO.P,U1,3,PA5*%
X111831212Y-88683243D03*
%TO.P,U1,4,PA6*%
X112184766Y-89036796D03*
%TO.P,U1,5,PA7*%
X112538319Y-89390349D03*
%TO.P,U1,6,PC0*%
X112891872Y-89743903D03*
%TO.P,U1,7,PC1*%
X113245426Y-90097456D03*
%TO.P,U1,8,PC2*%
X113598979Y-90451010D03*
%TO.P,U1,9,PC3*%
X114571251Y-90451010D03*
%TO.P,U1,10,PD0*%
X114924804Y-90097456D03*
%TO.P,U1,11,PD1*%
X115278358Y-89743903D03*
%TO.P,U1,12,PD2*%
X115631911Y-89390349D03*
%TO.P,U1,13,PD3*%
X115985464Y-89036796D03*
%TO.P,U1,14,PD4*%
X116339018Y-88683243D03*
%TO.P,U1,15,PD5*%
X116692571Y-88329689D03*
%TO.P,U1,16,PD6*%
X117046125Y-87976136D03*
%TO.P,U1,17,PD7*%
X117046125Y-87003864D03*
%TO.P,U1,18,AVDD*%
X116692571Y-86650311D03*
%TO.P,U1,19,GND*%
X116339018Y-86296757D03*
%TO.P,U1,20,PF0/TOSC1*%
X115985464Y-85943204D03*
%TO.P,U1,21,PF1/TOSC2*%
X115631911Y-85589651D03*
%TO.P,U1,22,PF2*%
X115278358Y-85236097D03*
%TO.P,U1,23,PF3*%
X114924804Y-84882544D03*
%TO.P,U1,24,PF4*%
X114571251Y-84528990D03*
%TO.P,U1,25,PF5*%
X113598979Y-84528990D03*
%TO.P,U1,26,PF6/~{RESET}*%
X113245426Y-84882544D03*
%TO.P,U1,27,UPDI*%
X112891872Y-85236097D03*
%TO.P,U1,28,VDD*%
X112538319Y-85589651D03*
%TO.P,U1,29,GND*%
X112184766Y-85943204D03*
%TO.P,U1,30,EXTCLK/PA0*%
X111831212Y-86296757D03*
%TO.P,U1,31,PA1*%
X111477659Y-86650311D03*
%TO.P,U1,32,PA2*%
X111124105Y-87003864D03*
%TO.P,U1,33,GND*%
X112670901Y-87490000D03*
X113378008Y-88197107D03*
X114085115Y-88904214D03*
X113378008Y-86782893D03*
X114085115Y-87490000D03*
X114085115Y-87490000D03*
X114792222Y-88197107D03*
X114085115Y-86075786D03*
X114792222Y-86782893D03*
X115499329Y-87490000D03*
%TD*%
D10*
%TO.C,H1*%
%TO.CFtp,RPI_MountingHole*%
%TO.CVal,MountingHole*%
%TO.CLbN,MountingPoints*%
%TO.CMnt,Other*%
%TO.CRot,0*%
X75230000Y-68370000D03*
D14*
X73980000Y-73620000D02*
X73980000Y-76320000D01*
X76680000Y-76320000D01*
X76680000Y-73620000D01*
X73980000Y-73620000D01*
D13*
%TO.P,H1,*%
X75330000Y-74970000D03*
%TD*%
D10*
%TO.C,R5*%
%TO.CFtp,R_0402_1005Metric_Pad0.72x0.64mm_HandSolder*%
%TO.CVal,3.3k*%
%TO.CLbN,Resistor_SMD*%
%TO.CMnt,SMD*%
%TO.CRot,0*%
X129480000Y-81660000D03*
D11*
X130579999Y-81190001D02*
X130579999Y-82129999D01*
X128380001Y-82129999D01*
X128380001Y-81190001D01*
X130579999Y-81190001D01*
D12*
%TO.P,R5,1*%
X128882500Y-81660000D03*
D13*
%TO.P,R5,2*%
X130077500Y-81660000D03*
%TD*%
D10*
%TO.C,R22*%
%TO.CFtp,R_0402_1005Metric_Pad0.72x0.64mm_HandSolder*%
%TO.CVal,1k*%
%TO.CLbN,Resistor_SMD*%
%TO.CMnt,SMD*%
%TO.CRot,-90*%
X106865000Y-77360000D03*
D11*
X107334999Y-76260001D02*
X107334999Y-78459999D01*
X106395001Y-78459999D01*
X106395001Y-76260001D01*
X107334999Y-76260001D01*
D12*
%TO.P,R22,1*%
X106865000Y-76762500D03*
D13*
%TO.P,R22,2*%
X106865000Y-77957500D03*
%TD*%
D10*
%TO.C,R20*%
%TO.CFtp,R_0402_1005Metric_Pad0.72x0.64mm_HandSolder*%
%TO.CVal,330R*%
%TO.CLbN,Resistor_SMD*%
%TO.CMnt,SMD*%
%TO.CRot,0*%
X93145000Y-94085000D03*
D11*
X94244999Y-93615001D02*
X94244999Y-94554999D01*
X92045001Y-94554999D01*
X92045001Y-93615001D01*
X94244999Y-93615001D01*
D12*
%TO.P,R20,1*%
X92547500Y-94085000D03*
D13*
%TO.P,R20,2*%
X93742500Y-94085000D03*
%TD*%
D10*
%TO.C,C10*%
%TO.CFtp,C_0402_1005Metric_Pad0.74x0.62mm_HandSolder*%
%TO.CVal,22nF*%
%TO.CLbN,Capacitor_SMD*%
%TO.CMnt,SMD*%
%TO.CRot,0*%
X92575000Y-80290000D03*
D11*
X93654999Y-79830001D02*
X93654999Y-80749999D01*
X91495001Y-80749999D01*
X91495001Y-79830001D01*
X93654999Y-79830001D01*
D12*
%TO.P,C10,1*%
X92007500Y-80290000D03*
D13*
%TO.P,C10,2*%
X93142500Y-80290000D03*
%TD*%
D10*
%TO.C,J6*%
%TO.CFtp,PinHeader_2x11_P2.54mm_Vertical*%
%TO.CVal,GPIO*%
%TO.CLbN,Connector_PinHeader_2.54mm*%
%TO.CMnt,TH*%
%TO.CRot,90*%
X100125000Y-100025000D03*
D11*
X127324999Y-95675001D02*
X127324999Y-101824999D01*
X98325001Y-101824999D01*
X98325001Y-95675001D01*
X127324999Y-95675001D01*
D12*
%TO.P,J6,1,Pin_1*%
X100125000Y-100025000D03*
D13*
%TO.P,J6,2,Pin_2*%
X100125000Y-97485000D03*
%TO.P,J6,3,Pin_3*%
X102665000Y-100025000D03*
%TO.P,J6,4,Pin_4*%
X102665000Y-97485000D03*
%TO.P,J6,5,Pin_5*%
X105205000Y-100025000D03*
%TO.P,J6,6,Pin_6*%
X105205000Y-97485000D03*
%TO.P,J6,7,Pin_7*%
X107745000Y-100025000D03*
%TO.P,J6,8,Pin_8*%
X107745000Y-97485000D03*
%TO.P,J6,9,Pin_9*%
X110285000Y-100025000D03*
%TO.P,J6,10,Pin_10*%
X110285000Y-97485000D03*
%TO.P,J6,11,Pin_11*%
X112825000Y-100025000D03*
%TO.P,J6,12,Pin_12*%
X112825000Y-97485000D03*
%TO.P,J6,13,Pin_13*%
X115365000Y-100025000D03*
%TO.P,J6,14,Pin_14*%
X115365000Y-97485000D03*
%TO.P,J6,15,Pin_15*%
X117905000Y-100025000D03*
%TO.P,J6,16,Pin_16*%
X117905000Y-97485000D03*
%TO.P,J6,17,Pin_17*%
X120445000Y-100025000D03*
%TO.P,J6,18,Pin_18*%
X120445000Y-97485000D03*
%TO.P,J6,19,Pin_19*%
X122985000Y-100025000D03*
%TO.P,J6,20,Pin_20*%
X122985000Y-97485000D03*
%TO.P,J6,21,Pin_21*%
X125525000Y-100025000D03*
%TO.P,J6,22,Pin_22*%
X125525000Y-97485000D03*
%TD*%
D10*
%TO.C,R14*%
%TO.CFtp,R_0402_1005Metric_Pad0.72x0.64mm_HandSolder*%
%TO.CVal,49R9*%
%TO.CLbN,Resistor_SMD*%
%TO.CMnt,SMD*%
%TO.CRot,-90*%
X90930000Y-87755000D03*
D11*
X91399999Y-86655001D02*
X91399999Y-88854999D01*
X90460001Y-88854999D01*
X90460001Y-86655001D01*
X91399999Y-86655001D01*
D12*
%TO.P,R14,1*%
X90930000Y-87157500D03*
D13*
%TO.P,R14,2*%
X90930000Y-88352500D03*
%TD*%
D10*
%TO.C,J4*%
%TO.CFtp,GCT_USB4500-03-0-A_REVA1*%
%TO.CVal,USB4500-03-0-A_REVA1*%
%TO.CLbN,PowerJack*%
%TO.CMnt,SMD*%
%TO.CRot,180*%
X114410000Y-73565000D03*
D11*
X120779999Y-71215001D02*
X120779999Y-79514999D01*
X108040001Y-79514999D01*
X108040001Y-71215001D01*
X120779999Y-71215001D01*
D13*
%TO.P,J4,A1_B12,GND_A*%
X117610000Y-78715000D03*
%TO.P,J4,A4_B9,VBUS_A*%
X116810000Y-78715000D03*
%TO.P,J4,A5,CC1*%
X115660000Y-78715000D03*
%TO.P,J4,A6,DP1*%
X114660000Y-78715000D03*
%TO.P,J4,A7,DN1*%
X114160000Y-78715000D03*
%TO.P,J4,A8,SBU1*%
X113160000Y-78715000D03*
%TO.P,J4,B1_A12,GND_B*%
X111210000Y-78715000D03*
%TO.P,J4,B4_A9,VBUS_B*%
X112010000Y-78715000D03*
%TO.P,J4,B5,CC2*%
X112660000Y-78715000D03*
%TO.P,J4,B6,DP2*%
X113660000Y-78715000D03*
%TO.P,J4,B7,DN2*%
X115160000Y-78715000D03*
%TO.P,J4,B8,SBU2*%
X116160000Y-78715000D03*
%TO.P,J4,SH1,SHELL_GND*%
X120030000Y-73565000D03*
%TO.P,J4,SH2,SHELL_GND__1*%
X108790000Y-77565000D03*
%TO.P,J4,SH3,SHELL_GND__2*%
X120030000Y-77565000D03*
%TO.P,J4,SH4,SHELL_GND__3*%
X108790000Y-73565000D03*
%TD*%
M02*
